<?xml version="1.0" encoding="UTF-8" standalone="no"?>
<!-- Created with Inkscape (http://www.inkscape.org/) -->

<svg
   xmlns:dc="http://purl.org/dc/elements/1.1/"
   xmlns:cc="http://creativecommons.org/ns#"
   xmlns:rdf="http://www.w3.org/1999/02/22-rdf-syntax-ns#"
   xmlns:svg="http://www.w3.org/2000/svg"
   xmlns="http://www.w3.org/2000/svg"
   xmlns:sodipodi="http://sodipodi.sourceforge.net/DTD/sodipodi-0.dtd"
   xmlns:inkscape="http://www.inkscape.org/namespaces/inkscape"
   width="210mm"
   height="297mm"
   viewBox="0 0 210 297"
   version="1.1"
   id="svg8"
   inkscape:version="0.92.2 5c3e80d, 2017-08-06"
   sodipodi:docname="background_nature2.svg"
   inkscape:export-filename="/Users/jayantha/Desktop/Personal/Youtube_Channel/Art-works/backgrounds/g1092.png"
   inkscape:export-xdpi="96"
   inkscape:export-ydpi="96">
  <defs
     id="defs2" />
  <sodipodi:namedview
     id="base"
     pagecolor="#ffffff"
     bordercolor="#666666"
     borderopacity="1.0"
     inkscape:pageopacity="0.0"
     inkscape:pageshadow="2"
     inkscape:zoom="0.056568542"
     inkscape:cx="6659.6535"
     inkscape:cy="-697.76042"
     inkscape:document-units="mm"
     inkscape:current-layer="g1046"
     showgrid="false"
     showborder="false"
     inkscape:window-width="1440"
     inkscape:window-height="789"
     inkscape:window-x="0"
     inkscape:window-y="1"
     inkscape:window-maximized="1"
     inkscape:snap-grids="false"
     inkscape:snap-to-guides="false"
     inkscape:object-nodes="false"
     inkscape:snap-page="false" />
  <metadata
     id="metadata5">
    <rdf:RDF>
      <cc:Work
         rdf:about="">
        <dc:format>image/svg+xml</dc:format>
        <dc:type
           rdf:resource="http://purl.org/dc/dcmitype/StillImage" />
        <dc:title />
      </cc:Work>
    </rdf:RDF>
  </metadata>
  <g
     inkscape:label="Layer 1"
     inkscape:groupmode="layer"
     id="layer1">
    <rect
       style="opacity:1;fill:#ffffff;fill-opacity:1;fill-rule:nonzero;stroke:#000000;stroke-width:0.93436742;stroke-miterlimit:4;stroke-dasharray:none;stroke-opacity:1"
       id="rect901"
       width="3914.896"
       height="1178.7242"
       x="-364.85571"
       y="-194.14055" />
    <g
       id="g899"
       inkscape:export-xdpi="96"
       inkscape:export-ydpi="96">
      <g
         id="g1046">
        <path
           style="fill:#25fdff;fill-opacity:0.45497628;stroke:none;stroke-width:22.56829262;stroke-miterlimit:4;stroke-dasharray:none;stroke-opacity:1"
           d="M -359.88263,401.41063 V -182.40661 H 1596.0241 3551.9307 V 401.41063 985.22784 H 1596.0241 -359.88263 Z"
           id="path869"
           inkscape:connector-curvature="0" />
        <path
           style="fill:#00c400;fill-opacity:0.42180098;stroke:none;stroke-width:0.48596948px;stroke-linecap:butt;stroke-linejoin:miter;stroke-opacity:1"
           d="m 177.43414,219.71711 c -238.76315,166.59172 -660.2297,243.55265 -537.26685,606.39642 -87.09136,231.77487 173.76686,142.96846 320.11391,159.11426 1197.2163,0 2394.4327,0 3591.649,0 -28.3001,-63.962 65.6852,-576.25831 -41.6138,-329.93905 C 2636.6394,646.34564 1741.1278,743.11858 889.66167,511.00007 700.2042,298.5258 476.00922,200.97869 177.43414,219.71711 Z"
           id="path4592"
           inkscape:connector-curvature="0" />
        <path
           style="fill:#00ed00;fill-opacity:0.34597156;stroke:none;stroke-width:0.48596948px;stroke-linecap:butt;stroke-linejoin:miter;stroke-opacity:1"
           d="M 2366.4138,-31.296325 C 2225.3311,-39.0885 2109.1224,11.078745 2029.5278,118.40129 1914.1469,225.13497 1811.64,349.15715 1661.8096,416.33028 1488.4026,514.58054 1318.1301,621.46321 1121.6153,676.52508 987.85926,723.6424 854.1032,770.75974 720.34714,817.87703 418.56612,768.36284 114.27656,735.42501 -191.72801,719.76078 c -92.5421,-10.52639 -202.6815,-38.65647 -168.15426,77.9327 0,62.51145 0,125.02287 0,187.53431 1303.93749,0 2607.87497,0 3911.81247,0 0,-109.80808 0,-219.61613 0,-329.4242 C 3437.5801,596.62129 3307.4382,562.02023 3183.611,521.0511 3067.4083,513.14474 2954.755,487.1889 2845.8937,447.88826 2703.6764,358.2643 2640.7603,173.82339 2491.1808,78.446697 2449.5918,41.865678 2408.0028,5.2846593 2366.4138,-31.296325 Z"
           id="path4587"
           inkscape:connector-curvature="0" />
        <path
           style="fill:#00c900;fill-opacity:0.82464456;stroke:none;stroke-width:0.48596948px;stroke-linecap:butt;stroke-linejoin:miter;stroke-opacity:1"
           d="m 3586.1665,508.37679 v 0 c 0,0 -281.925,-160.27392 -372.9268,-77.96384 -143.2401,129.55882 -219.5655,202.39278 -408.4013,264.35164 -163.2951,53.57867 -342.7673,96.2208 -514.5866,75.5296 -184.8581,-22.26136 -369.1291,-54.20268 -555.4268,-60.42387 -242.405,-8.09483 -484.4278,34.0568 -726.9551,30.21194 C 835.8273,737.35484 663.38557,726.305 493.28435,702.31758 311.11112,676.62778 120.95288,661.54138 -45.806773,589.02444 -165.33211,537.04776 -376.21834,607.31482 -376.21834,607.31482 l 16.33607,377.91296 H 1596.0245 3551.9303 Z"
           id="path892"
           inkscape:connector-curvature="0"
           sodipodi:nodetypes="ccsssssssccccc" />
        <path
           style="fill:#ffffff;fill-opacity:0.83886252;stroke:none;stroke-width:0.48596948px;stroke-linecap:butt;stroke-linejoin:miter;stroke-opacity:1"
           d="m 2160.1192,-4.2126561 c -46.8378,39.2176681 -93.6755,78.4353351 -140.5133,117.6530061 35.2232,-24.887654 73.5744,-50.451044 119.0323,-54.680753 20.7549,3.383884 25.1712,25.857536 21.3436,41.964543 -4.455,25.79885 -14.9535,50.09211 -25.0059,74.3444 -0.1629,9.76321 16.4945,-12.56757 22.9493,-15.73227 27.6845,-24.25229 55.3689,-48.50456 83.0534,-72.756813 28.8784,58.747863 57.7567,117.495713 86.6351,176.243583 11.5513,-62.30833 23.1027,-124.61665 34.654,-186.924977 53.9063,44.505937 107.8126,89.011887 161.7188,133.517847 -14.7269,-45.51131 -27.9052,-91.45012 -43.5958,-136.693882 -41.2996,-36.326454 -82.5992,-72.65285385 -123.8988,-108.979291 -65.4062,10.950956 -131.5217,18.337324 -196.3727,32.0446069 z"
           id="path4604"
           inkscape:connector-curvature="0" />
        <path
           sodipodi:nodetypes="ccccccccccccccc"
           style="fill:#ffffff;fill-opacity:0.58767772;stroke:none;stroke-width:0.48596948px;stroke-linecap:butt;stroke-linejoin:miter;stroke-opacity:1"
           d="M -51.939428,349.54828 C 24.099068,307.39746 97.456871,275.9694 177.43414,218.06346 l 160.87966,2.03384 c 67.09502,6.77481 103.52974,10.07575 190.57305,40.31251 53.12987,15.92824 93.39968,34.28899 144.41599,66.50177 L 783.04063,444.40729 500.03265,326.91158 586.66775,492.4737 448.05159,412.36301 367.19216,492.4737 251.67871,407.0223 165.04362,353.61517 72.632829,391.00015 -71.758986,492.4737 Z"
           id="path4610"
           inkscape:connector-curvature="0" />
        <g
           id="g4698"
           transform="matrix(1.9100652,0,0,1.7662203,-4269.3961,-926.49304)">
          <g
             id="g4710"
             transform="matrix(0.45312509,0,0,0.38145166,1305.2859,516.51643)">
            <g
               transform="translate(1.8871863,-8.6404224)"
               id="g4703">
              <path
                 style="fill:#098a09;fill-opacity:0.66350708;stroke:none;stroke-width:3.77952766;stroke-miterlimit:4;stroke-dasharray:none;stroke-opacity:1"
                 d="m 6840,1202.5195 a 394.28571,588.57139 0 0 0 -394.2852,588.5723 394.28571,588.57139 0 0 0 30.8575,226.8262 348.57145,571.42857 0 0 0 -179.4297,498.8867 348.57145,571.42857 0 0 0 348.5722,571.4297 348.57145,571.42857 0 0 0 137.6231,-47.1367 382.85716,171.42857 0 0 0 308.0898,69.9941 382.85716,171.42857 0 0 0 382.8575,-171.4297 382.85716,171.42857 0 0 0 -9.379,-36.7363 A 491.42855,434.28566 0 0 0 7760,2505.377 a 491.42855,434.28566 0 0 0 -491.4277,-434.2852 491.42855,434.28566 0 0 0 -84.3203,6.4766 394.28571,588.57139 0 0 0 50.0332,-286.4766 A 394.28571,588.57139 0 0 0 6840,1202.5195 Z"
                 id="path4612"
                 inkscape:connector-curvature="0"
                 transform="scale(0.26458333)" />
              <path
                 inkscape:connector-curvature="0"
                 id="path4674"
                 transform="scale(0.26458333)"
                 d="m 6945.3711,3102.9043 c -1.7425,0.028 -2.7982,0.1595 -3.043,0.4043 -1.3054,1.3055 4.2782,17.4136 12.4082,35.7969 8.13,18.3834 22.5675,63.0595 32.084,99.2812 21.6064,82.2386 26.4028,164.0684 17.5508,299.4883 -3.516,53.7886 -9.0795,141.5128 -12.3633,194.9414 -10.972,178.5202 -14.6186,203.6237 -36.2598,249.7031 -10.7781,22.9493 -26.9879,51.0293 -36.0234,62.4004 -25.6439,32.2729 -134.3664,166.67 -144.4883,178.6094 -8.6283,10.1777 -8.2262,10.5461 8.0586,7.3418 9.4286,-1.8552 104.5726,-15.1961 211.4297,-29.6465 106.8571,-14.4503 197.7436,-27.4101 201.9707,-28.7988 5.9039,-1.9396 4.8094,-6.8226 -4.7226,-21.0664 -6.8248,-10.1984 -26.258,-46.829 -43.1856,-81.4004 -46.6668,-95.3087 -68.4771,-190.328 -67.8809,-297.4258 57.0361,-32.4951 114.0732,-64.9894 171.1094,-97.4844 62.1139,-85.6864 125.0611,-171.1345 191.7422,-255.3398 -38.1577,41.3049 -76.3169,82.6111 -114.4746,123.916 l 123.0606,-208.4023 c -83.9815,105.9157 -152.6701,217.8256 -257.6094,315.998 -27.9519,22.3169 -72.4982,30.0099 -104.9375,48.709 -1.9084,0.7631 -3.976,1.6372 -6.1035,2.5293 3.3096,-72.624 2.623,-147.3199 -2.3086,-306.7852 -4.8773,-157.7134 -11.4308,-227.4129 -24.4375,-259.9199 l -8.6153,-21.5293 -51.8144,-6.6445 c -23.1551,-2.9695 -43.5955,-4.7957 -51.1465,-4.6758 z"
                 style="fill:#8e2222;fill-opacity:0.80094784;stroke:none;stroke-width:0.40564764px;stroke-linecap:butt;stroke-linejoin:miter;stroke-opacity:1" />
            </g>
            <g
               id="g4667">
              <path
                 inkscape:connector-curvature="0"
                 id="path4657"
                 transform="scale(0.26458333)"
                 d="m 6594.2852,1939.6621 c 0,0 -123.0749,137.8119 -32.5235,254.7422 29.9169,38.6321 79.9885,57.6535 133.627,65.8184 -25.6793,64.109 -60.5092,193.3811 13.1816,308.0117 102.8572,160 371.4297,74.2851 371.4297,74.2851 0,0 -354.2854,5.7149 -337.1426,-154.2851 17.1428,-160 34.2852,-205.7149 34.2852,-205.7149 l -17.166,-17.166 c 87.755,1.48 167.5019,-16.6601 167.5019,-16.6601 0,0 -109.52,1.2777 -201.8008,-17.6387 l -11.3925,-11.3926 c 0,0 -1.6139,2.8134 -4.2247,7.9473 -66.7485,-15.8116 -120.0094,-43.4279 -107.8593,-91.6719 29.4485,-116.9303 50.1074,-150.3379 50.1074,-150.3379 z m 771.4941,487.3359 c 0,0 312.0262,176.3933 117.2207,247.6231 -194.8052,71.2298 -261.0273,85.3848 -261.0273,85.3848 l -16.502,63.1933 c 0,0 305.8146,-39.2413 397.1113,-171.1836 91.2972,-131.9422 -236.8027,-225.0176 -236.8027,-225.0176 z"
                 style="fill:#000000;fill-opacity:0.42180098;stroke:none;stroke-width:0.99999994px;stroke-linecap:butt;stroke-linejoin:miter;stroke-opacity:1" />
            </g>
          </g>
        </g>
        <g
           transform="matrix(0.93893251,0,0,0.50020733,-901.84642,229.3566)"
           id="g4724">
          <g
             transform="matrix(0.45312509,0,0,0.38145166,1305.2859,516.51643)"
             id="g4722">
            <g
               id="g4716"
               transform="translate(1.8871863,-8.6404224)">
              <path
                 transform="scale(0.26458333)"
                 inkscape:connector-curvature="0"
                 id="path4712"
                 d="m 6840,1202.5195 a 394.28571,588.57139 0 0 0 -394.2852,588.5723 394.28571,588.57139 0 0 0 30.8575,226.8262 348.57145,571.42857 0 0 0 -179.4297,498.8867 348.57145,571.42857 0 0 0 348.5722,571.4297 348.57145,571.42857 0 0 0 137.6231,-47.1367 382.85716,171.42857 0 0 0 308.0898,69.9941 382.85716,171.42857 0 0 0 382.8575,-171.4297 382.85716,171.42857 0 0 0 -9.379,-36.7363 A 491.42855,434.28566 0 0 0 7760,2505.377 a 491.42855,434.28566 0 0 0 -491.4277,-434.2852 491.42855,434.28566 0 0 0 -84.3203,6.4766 394.28571,588.57139 0 0 0 50.0332,-286.4766 A 394.28571,588.57139 0 0 0 6840,1202.5195 Z"
                 style="fill:#098a09;fill-opacity:0.66350708;stroke:none;stroke-width:3.77952766;stroke-miterlimit:4;stroke-dasharray:none;stroke-opacity:1" />
              <path
                 style="fill:#8e2222;fill-opacity:0.80094784;stroke:none;stroke-width:0.40564764px;stroke-linecap:butt;stroke-linejoin:miter;stroke-opacity:1"
                 d="m 6945.3711,3102.9043 c -1.7425,0.028 -2.7982,0.1595 -3.043,0.4043 -1.3054,1.3055 4.2782,17.4136 12.4082,35.7969 8.13,18.3834 22.5675,63.0595 32.084,99.2812 21.6064,82.2386 26.4028,164.0684 17.5508,299.4883 -3.516,53.7886 -9.0795,141.5128 -12.3633,194.9414 -10.972,178.5202 -14.6186,203.6237 -36.2598,249.7031 -10.7781,22.9493 -26.9879,51.0293 -36.0234,62.4004 -25.6439,32.2729 -134.3664,166.67 -144.4883,178.6094 -8.6283,10.1777 -8.2262,10.5461 8.0586,7.3418 9.4286,-1.8552 104.5726,-15.1961 211.4297,-29.6465 106.8571,-14.4503 197.7436,-27.4101 201.9707,-28.7988 5.9039,-1.9396 4.8094,-6.8226 -4.7226,-21.0664 -6.8248,-10.1984 -26.258,-46.829 -43.1856,-81.4004 -46.6668,-95.3087 -68.4771,-190.328 -67.8809,-297.4258 57.0361,-32.4951 114.0732,-64.9894 171.1094,-97.4844 62.1139,-85.6864 125.0611,-171.1345 191.7422,-255.3398 -38.1577,41.3049 -76.3169,82.6111 -114.4746,123.916 l 123.0606,-208.4023 c -83.9815,105.9157 -152.6701,217.8256 -257.6094,315.998 -27.9519,22.3169 -72.4982,30.0099 -104.9375,48.709 -1.9084,0.7631 -3.976,1.6372 -6.1035,2.5293 3.3096,-72.624 2.623,-147.3199 -2.3086,-306.7852 -4.8773,-157.7134 -11.4308,-227.4129 -24.4375,-259.9199 l -8.6153,-21.5293 -51.8144,-6.6445 c -23.1551,-2.9695 -43.5955,-4.7957 -51.1465,-4.6758 z"
                 transform="scale(0.26458333)"
                 id="path4714"
                 inkscape:connector-curvature="0" />
            </g>
            <g
               id="g4720">
              <path
                 style="fill:#000000;fill-opacity:0.42180098;stroke:none;stroke-width:0.99999994px;stroke-linecap:butt;stroke-linejoin:miter;stroke-opacity:1"
                 d="m 6594.2852,1939.6621 c 0,0 -123.0749,137.8119 -32.5235,254.7422 29.9169,38.6321 79.9885,57.6535 133.627,65.8184 -25.6793,64.109 -60.5092,193.3811 13.1816,308.0117 102.8572,160 371.4297,74.2851 371.4297,74.2851 0,0 -354.2854,5.7149 -337.1426,-154.2851 17.1428,-160 34.2852,-205.7149 34.2852,-205.7149 l -17.166,-17.166 c 87.755,1.48 167.5019,-16.6601 167.5019,-16.6601 0,0 -109.52,1.2777 -201.8008,-17.6387 l -11.3925,-11.3926 c 0,0 -1.6139,2.8134 -4.2247,7.9473 -66.7485,-15.8116 -120.0094,-43.4279 -107.8593,-91.6719 29.4485,-116.9303 50.1074,-150.3379 50.1074,-150.3379 z m 771.4941,487.3359 c 0,0 312.0262,176.3933 117.2207,247.6231 -194.8052,71.2298 -261.0273,85.3848 -261.0273,85.3848 l -16.502,63.1933 c 0,0 305.8146,-39.2413 397.1113,-171.1836 91.2972,-131.9422 -236.8027,-225.0176 -236.8027,-225.0176 z"
                 transform="scale(0.26458333)"
                 id="path4718"
                 inkscape:connector-curvature="0" />
            </g>
          </g>
        </g>
        <g
           id="g4738"
           transform="matrix(-0.57594621,0,0,0.56133013,3135.9163,145.17289)">
          <g
             id="g4736"
             transform="matrix(0.45312509,0,0,0.38145166,1305.2859,516.51643)">
            <g
               transform="translate(1.8871863,-8.6404224)"
               id="g4730">
              <path
                 style="fill:#098a09;fill-opacity:0.66350708;stroke:none;stroke-width:3.77952766;stroke-miterlimit:4;stroke-dasharray:none;stroke-opacity:1"
                 d="m 6840,1202.5195 a 394.28571,588.57139 0 0 0 -394.2852,588.5723 394.28571,588.57139 0 0 0 30.8575,226.8262 348.57145,571.42857 0 0 0 -179.4297,498.8867 348.57145,571.42857 0 0 0 348.5722,571.4297 348.57145,571.42857 0 0 0 137.6231,-47.1367 382.85716,171.42857 0 0 0 308.0898,69.9941 382.85716,171.42857 0 0 0 382.8575,-171.4297 382.85716,171.42857 0 0 0 -9.379,-36.7363 A 491.42855,434.28566 0 0 0 7760,2505.377 a 491.42855,434.28566 0 0 0 -491.4277,-434.2852 491.42855,434.28566 0 0 0 -84.3203,6.4766 394.28571,588.57139 0 0 0 50.0332,-286.4766 A 394.28571,588.57139 0 0 0 6840,1202.5195 Z"
                 id="path4726"
                 inkscape:connector-curvature="0"
                 transform="scale(0.26458333)" />
              <path
                 inkscape:connector-curvature="0"
                 id="path4728"
                 transform="scale(0.26458333)"
                 d="m 6945.3711,3102.9043 c -1.7425,0.028 -2.7982,0.1595 -3.043,0.4043 -1.3054,1.3055 4.2782,17.4136 12.4082,35.7969 8.13,18.3834 22.5675,63.0595 32.084,99.2812 21.6064,82.2386 26.4028,164.0684 17.5508,299.4883 -3.516,53.7886 -9.0795,141.5128 -12.3633,194.9414 -10.972,178.5202 -14.6186,203.6237 -36.2598,249.7031 -10.7781,22.9493 -26.9879,51.0293 -36.0234,62.4004 -25.6439,32.2729 -134.3664,166.67 -144.4883,178.6094 -8.6283,10.1777 -8.2262,10.5461 8.0586,7.3418 9.4286,-1.8552 104.5726,-15.1961 211.4297,-29.6465 106.8571,-14.4503 197.7436,-27.4101 201.9707,-28.7988 5.9039,-1.9396 4.8094,-6.8226 -4.7226,-21.0664 -6.8248,-10.1984 -26.258,-46.829 -43.1856,-81.4004 -46.6668,-95.3087 -68.4771,-190.328 -67.8809,-297.4258 57.0361,-32.4951 114.0732,-64.9894 171.1094,-97.4844 62.1139,-85.6864 125.0611,-171.1345 191.7422,-255.3398 -38.1577,41.3049 -76.3169,82.6111 -114.4746,123.916 l 123.0606,-208.4023 c -83.9815,105.9157 -152.6701,217.8256 -257.6094,315.998 -27.9519,22.3169 -72.4982,30.0099 -104.9375,48.709 -1.9084,0.7631 -3.976,1.6372 -6.1035,2.5293 3.3096,-72.624 2.623,-147.3199 -2.3086,-306.7852 -4.8773,-157.7134 -11.4308,-227.4129 -24.4375,-259.9199 l -8.6153,-21.5293 -51.8144,-6.6445 c -23.1551,-2.9695 -43.5955,-4.7957 -51.1465,-4.6758 z"
                 style="fill:#8e2222;fill-opacity:0.80094784;stroke:none;stroke-width:0.40564764px;stroke-linecap:butt;stroke-linejoin:miter;stroke-opacity:1" />
            </g>
            <g
               id="g4734">
              <path
                 inkscape:connector-curvature="0"
                 id="path4732"
                 transform="scale(0.26458333)"
                 d="m 6594.2852,1939.6621 c 0,0 -123.0749,137.8119 -32.5235,254.7422 29.9169,38.6321 79.9885,57.6535 133.627,65.8184 -25.6793,64.109 -60.5092,193.3811 13.1816,308.0117 102.8572,160 371.4297,74.2851 371.4297,74.2851 0,0 -354.2854,5.7149 -337.1426,-154.2851 17.1428,-160 34.2852,-205.7149 34.2852,-205.7149 l -17.166,-17.166 c 87.755,1.48 167.5019,-16.6601 167.5019,-16.6601 0,0 -109.52,1.2777 -201.8008,-17.6387 l -11.3925,-11.3926 c 0,0 -1.6139,2.8134 -4.2247,7.9473 -66.7485,-15.8116 -120.0094,-43.4279 -107.8593,-91.6719 29.4485,-116.9303 50.1074,-150.3379 50.1074,-150.3379 z m 771.4941,487.3359 c 0,0 312.0262,176.3933 117.2207,247.6231 -194.8052,71.2298 -261.0273,85.3848 -261.0273,85.3848 l -16.502,63.1933 c 0,0 305.8146,-39.2413 397.1113,-171.1836 91.2972,-131.9422 -236.8027,-225.0176 -236.8027,-225.0176 z"
                 style="fill:#000000;fill-opacity:0.42180098;stroke:none;stroke-width:0.99999994px;stroke-linecap:butt;stroke-linejoin:miter;stroke-opacity:1" />
            </g>
          </g>
        </g>
        <g
           transform="matrix(4.2976458,0,0,3.206972,-6275.9535,-2064.4112)"
           id="g4752">
          <g
             transform="matrix(0.45312509,0,0,0.38145166,1305.2859,516.51643)"
             id="g4750">
            <g
               id="g4744"
               transform="translate(1.8871863,-8.6404224)">
              <path
                 transform="scale(0.26458333)"
                 inkscape:connector-curvature="0"
                 id="path4740"
                 d="m 6840,1202.5195 a 394.28571,588.57139 0 0 0 -394.2852,588.5723 394.28571,588.57139 0 0 0 30.8575,226.8262 348.57145,571.42857 0 0 0 -179.4297,498.8867 348.57145,571.42857 0 0 0 348.5722,571.4297 348.57145,571.42857 0 0 0 137.6231,-47.1367 382.85716,171.42857 0 0 0 308.0898,69.9941 382.85716,171.42857 0 0 0 382.8575,-171.4297 382.85716,171.42857 0 0 0 -9.379,-36.7363 A 491.42855,434.28566 0 0 0 7760,2505.377 a 491.42855,434.28566 0 0 0 -491.4277,-434.2852 491.42855,434.28566 0 0 0 -84.3203,6.4766 394.28571,588.57139 0 0 0 50.0332,-286.4766 A 394.28571,588.57139 0 0 0 6840,1202.5195 Z"
                 style="fill:#098a09;fill-opacity:0.66350708;stroke:none;stroke-width:3.77952766;stroke-miterlimit:4;stroke-dasharray:none;stroke-opacity:1" />
              <path
                 style="fill:#8e2222;fill-opacity:0.80094784;stroke:none;stroke-width:0.40564764px;stroke-linecap:butt;stroke-linejoin:miter;stroke-opacity:1"
                 d="m 6945.3711,3102.9043 c -1.7425,0.028 -2.7982,0.1595 -3.043,0.4043 -1.3054,1.3055 4.2782,17.4136 12.4082,35.7969 8.13,18.3834 22.5675,63.0595 32.084,99.2812 21.6064,82.2386 26.4028,164.0684 17.5508,299.4883 -3.516,53.7886 -9.0795,141.5128 -12.3633,194.9414 -10.972,178.5202 -14.6186,203.6237 -36.2598,249.7031 -10.7781,22.9493 -26.9879,51.0293 -36.0234,62.4004 -25.6439,32.2729 -134.3664,166.67 -144.4883,178.6094 -8.6283,10.1777 -8.2262,10.5461 8.0586,7.3418 9.4286,-1.8552 104.5726,-15.1961 211.4297,-29.6465 106.8571,-14.4503 197.7436,-27.4101 201.9707,-28.7988 5.9039,-1.9396 4.8094,-6.8226 -4.7226,-21.0664 -6.8248,-10.1984 -26.258,-46.829 -43.1856,-81.4004 -46.6668,-95.3087 -68.4771,-190.328 -67.8809,-297.4258 57.0361,-32.4951 114.0732,-64.9894 171.1094,-97.4844 62.1139,-85.6864 125.0611,-171.1345 191.7422,-255.3398 -38.1577,41.3049 -76.3169,82.6111 -114.4746,123.916 l 123.0606,-208.4023 c -83.9815,105.9157 -152.6701,217.8256 -257.6094,315.998 -27.9519,22.3169 -72.4982,30.0099 -104.9375,48.709 -1.9084,0.7631 -3.976,1.6372 -6.1035,2.5293 3.3096,-72.624 2.623,-147.3199 -2.3086,-306.7852 -4.8773,-157.7134 -11.4308,-227.4129 -24.4375,-259.9199 l -8.6153,-21.5293 -51.8144,-6.6445 c -23.1551,-2.9695 -43.5955,-4.7957 -51.1465,-4.6758 z"
                 transform="scale(0.26458333)"
                 id="path4742"
                 inkscape:connector-curvature="0" />
            </g>
            <g
               id="g4748">
              <path
                 style="fill:#000000;fill-opacity:0.42180098;stroke:none;stroke-width:0.99999994px;stroke-linecap:butt;stroke-linejoin:miter;stroke-opacity:1"
                 d="m 6594.2852,1939.6621 c 0,0 -123.0749,137.8119 -32.5235,254.7422 29.9169,38.6321 79.9885,57.6535 133.627,65.8184 -25.6793,64.109 -60.5092,193.3811 13.1816,308.0117 102.8572,160 371.4297,74.2851 371.4297,74.2851 0,0 -354.2854,5.7149 -337.1426,-154.2851 17.1428,-160 34.2852,-205.7149 34.2852,-205.7149 l -17.166,-17.166 c 87.755,1.48 167.5019,-16.6601 167.5019,-16.6601 0,0 -109.52,1.2777 -201.8008,-17.6387 l -11.3925,-11.3926 c 0,0 -1.6139,2.8134 -4.2247,7.9473 -66.7485,-15.8116 -120.0094,-43.4279 -107.8593,-91.6719 29.4485,-116.9303 50.1074,-150.3379 50.1074,-150.3379 z m 771.4941,487.3359 c 0,0 312.0262,176.3933 117.2207,247.6231 -194.8052,71.2298 -261.0273,85.3848 -261.0273,85.3848 l -16.502,63.1933 c 0,0 305.8146,-39.2413 397.1113,-171.1836 91.2972,-131.9422 -236.8027,-225.0176 -236.8027,-225.0176 z"
                 transform="scale(0.26458333)"
                 id="path4746"
                 inkscape:connector-curvature="0" />
            </g>
          </g>
        </g>
        <path
           inkscape:connector-curvature="0"
           id="path9274"
           d=""
           style="opacity:0.98000004;fill:#000000;fill-opacity:0.91153846;fill-rule:nonzero;stroke:none;stroke-width:40.58649445;stroke-miterlimit:4;stroke-dasharray:none;stroke-opacity:1" />
        <text
           xml:space="preserve"
           style="font-style:normal;font-weight:normal;font-size:46.65307236px;line-height:1.25;font-family:sans-serif;letter-spacing:0px;word-spacing:0px;fill:#000000;fill-opacity:1;stroke:none;stroke-width:0.48596948"
           x="2154.4883"
           y="1793.589"
           id="text10596"
           transform="scale(1.0399241,0.96160863)"><tspan
             sodipodi:role="line"
             id="tspan10594"
             x="2154.4883"
             y="1834.866"
             style="stroke-width:0.48596948" /></text>
        <path
           inkscape:connector-curvature="0"
           id="path995"
           d="m 3260.0201,572.95573 a 37.417732,79.512686 0 0 0 -34.1566,47.19608 98.22155,56.126599 0 0 0 -40.6792,-5.10098 98.22155,56.126599 0 0 0 -98.2213,56.12628 98.22155,56.126599 0 0 0 19.5771,33.52665 121.69661,67.908606 0 0 0 120.7394,60.1069 121.69661,67.908606 0 0 0 121.6964,-67.90851 121.69661,67.908606 0 0 0 -51.9493,-55.61005 37.417732,79.512686 0 0 0 -37.0065,-68.33637 z"
           style="opacity:1;fill:#319d19;fill-opacity:0.72222218;fill-rule:nonzero;stroke:none;stroke-width:0.82206887;stroke-miterlimit:4;stroke-dasharray:none;stroke-opacity:1" />
      </g>
    </g>
  </g>
</svg>
