<?xml version="1.0" encoding="UTF-8" standalone="no"?>
<!-- Created with Inkscape (http://www.inkscape.org/) -->

<svg
   xmlns:dc="http://purl.org/dc/elements/1.1/"
   xmlns:cc="http://creativecommons.org/ns#"
   xmlns:rdf="http://www.w3.org/1999/02/22-rdf-syntax-ns#"
   xmlns:svg="http://www.w3.org/2000/svg"
   xmlns="http://www.w3.org/2000/svg"
   xmlns:sodipodi="http://sodipodi.sourceforge.net/DTD/sodipodi-0.dtd"
   xmlns:inkscape="http://www.inkscape.org/namespaces/inkscape"
   width="210mm"
   height="297mm"
   viewBox="0 0 210 297"
   version="1.1"
   id="svg8"
   inkscape:version="0.92.2 5c3e80d, 2017-08-06"
   sodipodi:docname="background1.svg">
  <defs
     id="defs2" />
  <sodipodi:namedview
     id="base"
     pagecolor="#ffffff"
     bordercolor="#666666"
     borderopacity="1.0"
     inkscape:pageopacity="0.0"
     inkscape:pageshadow="2"
     inkscape:zoom="0.04375"
     inkscape:cx="7926.4823"
     inkscape:cy="-3799.0046"
     inkscape:document-units="mm"
     inkscape:current-layer="layer1"
     showgrid="false"
     inkscape:window-width="1440"
     inkscape:window-height="782"
     inkscape:window-x="0"
     inkscape:window-y="1"
     inkscape:window-maximized="1"
     inkscape:snap-grids="false"
     inkscape:snap-to-guides="false"
     inkscape:snap-others="false"
     inkscape:snap-nodes="false" />
  <metadata
     id="metadata5">
    <rdf:RDF>
      <cc:Work
         rdf:about="">
        <dc:format>image/svg+xml</dc:format>
        <dc:type
           rdf:resource="http://purl.org/dc/dcmitype/StillImage" />
        <dc:title></dc:title>
      </cc:Work>
    </rdf:RDF>
  </metadata>
  <g
     inkscape:label="Layer 1"
     inkscape:groupmode="layer"
     id="layer1">
    <rect
       style="opacity:0.98000004;fill:#000000;fill-opacity:1;fill-rule:nonzero;stroke:none;stroke-width:10;stroke-miterlimit:4;stroke-dasharray:none;stroke-opacity:0.78155338"
       id="rect3198"
       width="3888.6189"
       height="2304.1428"
       x="-864.80957"
       y="1536.7618"
       inkscape:export-filename="/Users/jayantha/house_night.png"
       inkscape:export-xdpi="96"
       inkscape:export-ydpi="96" />
    <rect
       style="opacity:0.98000004;fill:#000000;fill-opacity:1;fill-rule:nonzero;stroke:none;stroke-width:10;stroke-miterlimit:4;stroke-dasharray:none;stroke-opacity:0.78155338"
       id="rect3174"
       width="564.47321"
       height="487.4996"
       x="-68.420998"
       y="3008.1819"
       inkscape:export-filename="/Users/jayantha/house_night.png"
       inkscape:export-xdpi="96"
       inkscape:export-ydpi="96" />
    <rect
       style="opacity:0.98000004;fill:#cccccc;fill-opacity:1;fill-rule:nonzero;stroke:none;stroke-width:10;stroke-miterlimit:4;stroke-dasharray:none;stroke-opacity:0.78155338"
       id="rect815"
       width="4000"
       height="2160"
       x="-90.714287"
       y="-1692.7531" />
    <path
       style="opacity:0.98000004;fill:#333333;fill-opacity:1;fill-rule:nonzero;stroke:none;stroke-width:12.64411259;stroke-miterlimit:4;stroke-dasharray:none;stroke-opacity:0.78155338"
       d="m 692.76258,2823.0191 c 191.09109,-211.9714 385.85902,-399.0241 667.10472,0 v 681.2153 H 692.76258 Z"
       id="rect3159"
       inkscape:connector-curvature="0"
       sodipodi:nodetypes="ccccc"
       inkscape:export-filename="/Users/jayantha/house_night.png"
       inkscape:export-xdpi="96"
       inkscape:export-ydpi="96" />
    <rect
       style="opacity:0.98000004;fill:#ffff00;fill-opacity:1;fill-rule:nonzero;stroke:none;stroke-width:10;stroke-miterlimit:4;stroke-dasharray:none;stroke-opacity:0.78155338"
       id="rect3162"
       width="153.94724"
       height="316.44711"
       x="829.69049"
       y="3119.3662"
       inkscape:export-filename="/Users/jayantha/house_night.png"
       inkscape:export-xdpi="96"
       inkscape:export-ydpi="96" />
    <rect
       y="3119.3665"
       x="1034.9532"
       height="316.44711"
       width="153.94724"
       id="rect3164"
       style="opacity:0.98000004;fill:#ffff00;fill-opacity:1;fill-rule:nonzero;stroke:none;stroke-width:10;stroke-miterlimit:4;stroke-dasharray:none;stroke-opacity:0.78155338"
       inkscape:export-filename="/Users/jayantha/house_night.png"
       inkscape:export-xdpi="96"
       inkscape:export-ydpi="96" />
    <path
       style="opacity:0.98000004;fill:#ffff00;fill-opacity:1;fill-rule:nonzero;stroke:none;stroke-width:7.16598845;stroke-miterlimit:4;stroke-dasharray:none;stroke-opacity:0.78155338"
       d="m 829.69057,2909.4297 162.49978,-68.421 -8.55255,230.921 H 829.69057 Z"
       id="rect3166"
       inkscape:connector-curvature="0"
       sodipodi:nodetypes="ccccc"
       inkscape:export-filename="/Users/jayantha/house_night.png"
       inkscape:export-xdpi="96"
       inkscape:export-ydpi="96" />
    <path
       style="opacity:0.98000004;fill:#ffff00;fill-opacity:1;fill-rule:nonzero;stroke:none;stroke-width:7.16598845;stroke-miterlimit:4;stroke-dasharray:none;stroke-opacity:0.78155338"
       d="m 1032.8146,2838.8705 156.0855,70.5592 v 162.5 h -153.9473 z"
       id="rect3168"
       inkscape:connector-curvature="0"
       sodipodi:nodetypes="ccccc"
       inkscape:export-filename="/Users/jayantha/house_night.png"
       inkscape:export-xdpi="96"
       inkscape:export-ydpi="96" />
    <path
       style="opacity:0.98000004;fill:#008100;fill-opacity:1;fill-rule:nonzero;stroke:none;stroke-width:341.54455566;stroke-miterlimit:4;stroke-dasharray:none;stroke-opacity:0.78155338"
       d="m 496.65274,3469.8312 c 16.54006,-79.4187 35.3763,-238.4259 44.86868,-378.7611 11.53524,-170.5375 1.25038,-423.3658 -24.17069,-594.1781 -7.35068,-49.3914 -16.07781,-109.046 -19.39367,-132.5657 l -6.02887,-42.7631 204.90072,-230.6451 c 112.69541,-126.8548 208.9603,-231.8572 213.92194,-233.3386 8.41249,-2.5118 544.11425,450.5936 557.49545,471.5388 10.427,16.3211 53.9892,201.4064 71.6953,304.6157 12.2514,71.4129 16.9763,151.0682 17.2488,290.7893 0.4098,209.9916 -11.466,305.1072 -59.4147,475.8635 l -26.0825,92.8859 -490.4228,2.2164 -490.42285,2.2164 z m 788.85106,-276.9524 v -287.565 l -42.0931,-52.8378 c -79.0623,-99.2436 -151.6358,-144.9862 -230.0298,-144.9862 -77.224,0 -149.72526,42.6408 -239.35843,140.7761 l -51.86081,56.7799 v 287.6991 287.699 h 281.67114 281.671 z"
       id="path3170"
       inkscape:connector-curvature="0"
       inkscape:export-filename="/Users/jayantha/house_night.png"
       inkscape:export-xdpi="96"
       inkscape:export-ydpi="96" />
    <path
       inkscape:connector-curvature="0"
       id="path3172"
       d="m -138.01078,3488.3094 c 11.49903,-38.8335 24.59442,-116.5834 31.19374,-185.2032 8.019566,-83.3879 0.86929,-207.0136 -16.80402,-290.5359 -5.11036,-24.151 -11.17767,-53.3203 -13.48293,-64.8208 L -141.2954,2926.8396 1.1563173,2814.0608 C 79.504771,2752.0325 146.43035,2700.6894 149.87979,2699.965 c 5.84856,-1.2282 378.28081,220.3272 387.58373,230.5688 7.24909,7.9806 37.53454,98.4819 49.84423,148.9483 8.51745,34.9188 11.80231,73.8679 11.99176,142.1875 0.2849,102.6798 -7.97143,149.1886 -41.30647,232.6835 l -18.13316,45.4185 -340.95327,1.0837 -340.9533,1.0838 z m 548.42749,-135.4217 v -140.611 l -29.2641,-25.8361 c -54.96594,-48.5273 -105.42071,-70.8941 -159.92204,-70.8941 -53.6879,0 -104.09246,20.8501 -166.407506,68.8355 l -36.054833,27.7637 v 140.6765 140.6765 H 214.59252 410.41671 Z"
       style="opacity:0.98000004;fill:#007c00;fill-opacity:1;fill-rule:nonzero;stroke:none;stroke-width:199.13656616;stroke-miterlimit:4;stroke-dasharray:none;stroke-opacity:0.78155338"
       inkscape:export-filename="/Users/jayantha/house_night.png"
       inkscape:export-xdpi="96"
       inkscape:export-ydpi="96" />
    <rect
       style="opacity:0.98000004;fill:#005d00;fill-opacity:1;fill-rule:nonzero;stroke:none;stroke-width:10;stroke-miterlimit:4;stroke-dasharray:none;stroke-opacity:0.78155338"
       id="rect3176"
       width="1838.8143"
       height="162.49986"
       x="-256.57874"
       y="3427.2605"
       inkscape:export-filename="/Users/jayantha/house_night.png"
       inkscape:export-xdpi="96"
       inkscape:export-ydpi="96" />
    <path
       style="opacity:0.98000004;fill:#ffff00;fill-opacity:1;fill-rule:nonzero;stroke:none;stroke-width:8.04018974;stroke-miterlimit:4;stroke-dasharray:none;stroke-opacity:0.78155338"
       d="m 94.078873,3209.3836 c 79.824497,-51.6022 159.648997,-51.6022 239.473497,0 v 49.7593 H 94.078873 Z"
       id="rect3178"
       inkscape:connector-curvature="0"
       sodipodi:nodetypes="ccccc"
       inkscape:export-filename="/Users/jayantha/house_night.png"
       inkscape:export-xdpi="96"
       inkscape:export-ydpi="96" />
    <rect
       style="opacity:0.98000004;fill:#008000;fill-opacity:1;fill-rule:nonzero;stroke:none;stroke-width:10;stroke-miterlimit:4;stroke-dasharray:none;stroke-opacity:0.78155338"
       id="rect3181"
       width="547.36798"
       height="68.420998"
       x="-1546.2795"
       y="1933.9932"
       transform="rotate(-47.037332)"
       inkscape:export-filename="/Users/jayantha/house_night.png"
       inkscape:export-xdpi="96"
       inkscape:export-ydpi="96" />
    <rect
       transform="rotate(41.019181)"
       y="795.14764"
       x="2297.4197"
       height="68.420998"
       width="547.36798"
       id="rect3183"
       style="opacity:0.98000004;fill:#008000;fill-opacity:1;fill-rule:nonzero;stroke:none;stroke-width:10;stroke-miterlimit:4;stroke-dasharray:none;stroke-opacity:0.78155338"
       inkscape:transform-center-x="-146.871"
       inkscape:transform-center-y="-15.060832"
       inkscape:export-filename="/Users/jayantha/house_night.png"
       inkscape:export-xdpi="96"
       inkscape:export-ydpi="96" />
    <path
       style="opacity:0.98000004;fill:#008000;fill-opacity:1;fill-rule:nonzero;stroke:none;stroke-width:610.8638916;stroke-miterlimit:4;stroke-dasharray:none;stroke-opacity:0.78155338"
       d="m -453.19951,12897.335 c 46.23496,-248.315 62.66355,-438.052 62.62513,-723.27 -0.0455,-337.97 -22.94786,-560.885 -92.92652,-904.481 -32.86398,-161.363 -36.91997,-204.838 -20.53823,-220.146 26.90584,-25.142 667.31762,-529.184 890.55549,-700.921 l 175.15756,-134.748 52.52507,25.048 c 76.03241,36.257 932.38401,541.735 1191.30711,703.191 157.5972,98.273 227.6541,151.73 246.0259,187.732 24.0855,47.198 25.157,31.197 17.1938,-256.751 -10.2557,-370.841 -33.7759,-798.636 -55.9823,-1018.2339 -18.7919,-185.8302 -94.5083,-749.5278 -104.8044,-780.2528 -6.244,-18.6329 -77.7942,51.0998 -291.4095,284.0075 l -63.6882,69.4404 -85.9084,-87.1798 -85.9082,-87.1797 360.6697,-386.6203 c 422.8154,-453.2373 1041.3937,-1122.5411 1365.1365,-1477.0821 125.7682,-137.7328 254.4121,-275.0479 285.8754,-305.1448 l 57.206,-54.7216 109.7536,87.0465 c 408.107,323.6729 1708.4435,1429.5896 1936.8109,1647.2285 80.0041,76.2455 252.7402,231.8391 383.858,345.7633 131.1178,113.9243 238.396,210.9324 238.396,215.5735 0,4.641 -33.3619,47.4888 -74.1376,95.2173 l -74.1376,86.779 -154.2434,-132.6893 c -93.041,-80.0394 -150.5845,-120.1942 -145.0223,-101.1988 5.0713,17.3197 31.1203,133.3136 57.8864,257.7644 120.2323,559.0267 146.8458,835.5607 146.9922,1527.3507 0.1455,710.945 -36.701,1061.961 -163.7434,1559.675 -36.3043,142.23 -69.6592,274.964 -74.1218,294.965 l -8.114,36.366 h -386.0145 -386.0144 l -0.3895,-989.95 -0.3895,-989.949 -115.7123,-145.462 c -157.0683,-197.451 -358.4978,-391.338 -483.2864,-465.189 -162.308,-96.056 -294.6138,-129.97 -472.0024,-120.991 -282.3436,14.293 -464.3661,121.901 -823.2669,486.7 l -238.396,242.314 v 991.263 991.264 h -581.8478 -581.8479 v -402.769 -402.768 l -92.934,-83.182 c -209.6694,-187.67 -382.7473,-272.341 -585.8877,-286.622 -217.66192,-15.302 -426.68711,66.006 -695.24168,270.439 l -129.0428,98.232 v 403.335 403.335 h -260.39778 -260.39779 z"
       id="path3185"
       inkscape:connector-curvature="0"
       transform="scale(0.26458333)"
       inkscape:export-filename="/Users/jayantha/house_night.png"
       inkscape:export-xdpi="96"
       inkscape:export-ydpi="96" />
    <path
       style="opacity:0.98000004;fill:#008000;fill-opacity:1;fill-rule:nonzero;stroke:none;stroke-width:610.8638916;stroke-miterlimit:4;stroke-dasharray:none;stroke-opacity:0.78155338"
       d="m -452.35062,12897.745 c 43.38815,-265.452 59.18089,-458.874 59.08786,-723.68 -0.12188,-346.949 -17.63611,-529.14 -83.0877,-864.319 -37.40861,-191.571 -43.09769,-245.986 -27.27236,-260.855 28.94601,-27.198 614.3159,-487.975 859.25397,-676.366 l 208.92211,-160.69 114.32671,62.295 c 444.19273,242.037 1347.58913,797.783 1359.90153,836.576 5.0559,15.93 15.9992,28.963 24.3182,28.963 25.9589,0 -14.7384,-935.265 -58.3736,-1341.4824 -36.7497,-342.117 -93.0008,-727.3098 -106.2118,-727.3098 -6.6104,0 -86.8183,80.0478 -178.2394,177.8839 l -166.2202,177.8842 -84.7655,-83.7127 c -82.8477,-81.8185 -84.1414,-84.5243 -57.1753,-119.588 15.1747,-19.7315 263.5973,-289.3929 552.05,-599.2477 662.8815,-712.0645 839.988,-903.3001 1142.9336,-1234.1136 134.3183,-146.6741 266.6628,-287.8593 294.0992,-313.7449 l 49.8841,-47.0646 206.4947,167.2784 c 649.169,525.8819 1465.8401,1229.8462 2411.5432,2078.7318 l 56.5533,50.7636 -77.5248,90.7437 -77.5247,90.7437 -52.9807,-44.5327 c -29.1394,-24.493 -94.1792,-80.1148 -144.5328,-123.6042 -50.3534,-43.4892 -93.8014,-76.2182 -96.5511,-72.731 -2.7496,3.4874 22.7243,133.6198 56.6087,289.1833 116.0692,532.874 142.802,814.026 142.92,1503.107 0.1293,720.002 -35.7051,1054.491 -170.3221,1590.097 -39.9526,158.962 -76.5417,295.332 -81.309,303.046 -4.7675,7.714 -179.1566,14.025 -387.5315,14.025 h -378.8635 v -995.785 -995.785 l -111.377,-139.627 c -156.67,-196.407 -395.0359,-421.979 -519.4138,-491.535 -241.189,-134.881 -502.7681,-144.309 -751.5674,-27.089 -146.5563,69.049 -294.6253,189.101 -534.3901,433.274 l -216.5044,220.486 -0.095,998.03 -0.095,998.031 H 2142.77 1560.9221 v -411.362 -411.362 l -125.2589,-106.356 c -412.9077,-350.598 -773.50581,-347.978 -1245.23941,9.047 l -108.365009,82.014 -8.08122,414.969 -8.08122,414.969 -264.771001,4.451 -264.77102,4.451 z"
       id="path3187"
       inkscape:connector-curvature="0"
       transform="scale(0.26458333)"
       inkscape:export-filename="/Users/jayantha/house_night.png"
       inkscape:export-xdpi="96"
       inkscape:export-ydpi="96" />
    <path
       style="opacity:0.98000004;fill:#008000;fill-opacity:1;fill-rule:nonzero;stroke:none;stroke-width:610.8638916;stroke-miterlimit:4;stroke-dasharray:none;stroke-opacity:0.78155338"
       d="m -453.9419,12905.416 c 52.69302,-333.649 62.18978,-479.764 54.36224,-836.407 -8.06716,-367.56 -20.43791,-478.92 -92.74805,-834.904 -17.43749,-85.845 -31.70453,-159.937 -31.70453,-164.648 0,-7.255 835.18704,-668.363 1024.06922,-810.621 l 62.40401,-47.001 101.54694,52.65 c 110.82546,57.46 1143.75227,672.778 1280.62507,762.873 46.5769,30.658 89.4735,70.289 95.3256,88.067 9.439,28.676 11.7386,29.217 20.3705,4.789 15.7905,-44.686 -9.8599,-804.161 -38.0996,-1128.0781 -25.3778,-291.0896 -97.6477,-856.413 -115.7058,-905.0967 -6.3345,-17.0772 -59.9345,29.7531 -181.3275,158.426 l -172.3348,182.6697 -86.6532,-88.0262 -86.6529,-88.0263 434.1637,-466.3795 c 489.2825,-525.5883 912.644,-982.7465 1285.0537,-1387.6388 320.2228,-348.1535 346.3294,-372.8667 372.7941,-352.8976 79.9308,60.3121 638.5446,523.0489 974.6638,807.3786 606.2424,512.8322 1672.5203,1453.5464 1672.5203,1475.5661 0,6.2541 -34.5472,49.1086 -76.7716,95.2327 l -76.7716,83.8617 L 5831.4,9391.8509 c -73.5832,-63.4451 -138.1924,-110.95 -143.5758,-105.5666 -5.3835,5.3834 16.3535,131.9881 48.3042,281.3438 115.9081,541.8189 140.0345,797.3469 140.0345,1483.1479 0,726.936 -37.2465,1076.224 -171.2047,1605.515 -39.0029,154.107 -75.022,286.841 -80.0426,294.964 -5.0915,8.239 -176.6689,14.77 -387.9916,14.77 h -378.8635 v -995.556 -995.556 l -135.0582,-164.099 c -239.34,-290.804 -441.2733,-459.184 -637.963,-531.958 -141.9069,-52.505 -396.1529,-48.981 -532.5612,7.38 -189.0572,78.114 -282.2723,147.696 -556.4337,415.359 l -271.4261,264.991 v 999.72 999.719 h -581.8478 -581.8479 v -411.185 -411.185 l -113.6018,-93.891 c -241.7136,-199.776 -402.5523,-269.02 -620.34971,-267.074 -202.12381,1.807 -370.32552,71.03 -623.0214,256.405 l -128.90612,94.564 -0.532746,416.183 -0.532763,416.183 H -194.7679 -463.51387 Z"
       id="path3189"
       inkscape:connector-curvature="0"
       transform="scale(0.26458333)"
       inkscape:export-filename="/Users/jayantha/house_night.png"
       inkscape:export-xdpi="96"
       inkscape:export-ydpi="96" />
    <path
       style="opacity:0.98000004;fill:#008000;fill-opacity:1;fill-rule:nonzero;stroke:none;stroke-width:10;stroke-miterlimit:4;stroke-dasharray:none;stroke-opacity:0.78155338"
       d="M -227.89121,2996.7643 39.818391,2776.9653 69.667669,2813.321 -198.04193,3033.12 Z"
       id="rect3191"
       inkscape:connector-curvature="0"
       inkscape:export-filename="/Users/jayantha/house_night.png"
       inkscape:export-xdpi="96"
       inkscape:export-ydpi="96" />
    <ellipse
       style="opacity:0.98000004;fill:#ffffc1;fill-opacity:0.84343433;fill-rule:nonzero;stroke:none;stroke-width:11.48542118;stroke-miterlimit:4;stroke-dasharray:none;stroke-opacity:0.78155338"
       id="path3200"
       cx="-483.80954"
       cy="1963.119"
       rx="187.4762"
       ry="184.45239"
       inkscape:export-filename="/Users/jayantha/house_night.png"
       inkscape:export-xdpi="96"
       inkscape:export-ydpi="96" />
    <path
       style="opacity:0.98000004;fill:#808080;fill-opacity:0.84343435;fill-rule:nonzero;stroke:none;stroke-width:10;stroke-miterlimit:4;stroke-dasharray:none;stroke-opacity:0.78155338"
       id="path3224"
       d="m -836.96113,1873.2262 c 18.01371,0.5757 36.04191,0.3994 54.06197,0.5968 31.93539,-0.7603 62.4791,8.5465 92.82755,17.3489 45.7345,13.2869 90.98743,28.073 136.78709,41.1457 49.18792,14.5684 99.00484,26.471 149.5375,35.2482 41.98954,5.1877 85.55919,10.6277 127.95046,9.6202 8.81867,-0.2096 17.59087,-1.3462 26.3863,-2.0193 53.71174,-4.2695 105.44508,-20.2915 156.84556,-35.4771 23.30338,-6.6826 45.350363,-16.4716 67.200056,-26.7868 0,0 -66.526694,52.83 -66.526694,52.83 v 0 c -21.995102,9.6984 -44.159372,18.9469 -67.381362,25.4009 -51.63931,15.1175 -103.85623,30.0435 -157.78788,33.8425 -52.00684,2.6371 -104.31623,-0.8418 -155.74107,-9.0661 -50.64821,-9.1465 -100.5786,-21.3967 -149.92686,-36.0353 -46.05965,-13.1914 -91.78443,-27.452 -137.9565,-40.2413 -30.5911,-7.9729 -61.28909,-15.7186 -93.22438,-14.2185 -18.56782,0.1975 -37.14287,0.033 -55.70497,0.5969 0,0 72.65323,-52.7857 72.65323,-52.7857 z"
       inkscape:connector-curvature="0"
       inkscape:export-filename="/Users/jayantha/house_night.png"
       inkscape:export-xdpi="96"
       inkscape:export-ydpi="96" />
    <path
       style="opacity:0.98000004;fill:#808080;fill-opacity:0.84343435;fill-rule:nonzero;stroke:none;stroke-width:10;stroke-miterlimit:4;stroke-dasharray:none;stroke-opacity:0.78155338"
       id="path3226"
       d="m -812.12088,1909.5654 c 13.14936,1.1016 26.47143,-0.3944 39.60643,0.609 10.08573,0.7706 19.3652,2.9951 29.25765,5.0034 37.39814,11.4888 71.29317,30.4975 104.82799,50.1755 40.35989,21.4188 79.97582,44.2636 120.52567,65.3264 51.73761,27.0669 106.83653,46.3211 162.46137,63.5531 69.53239,23.0104 142.07059,29.8326 214.73152,33.6672 47.01902,0.4966 24.0935,0.9108 68.779687,-1.0552 0,0 -66.644897,48.7364 -66.644897,48.7364 v 0 c -44.18748,0.7841 -21.40665,0.7829 -68.34233,-0.1517 -73.24214,-4.4774 -146.29193,-11.9787 -216.47435,-34.8452 -56.57379,-17.0836 -112.63874,-36.4149 -165.33641,-63.4758 -40.65751,-21.2755 -80.83293,-43.5036 -121.20123,-65.3182 -33.28585,-18.8736 -67.04645,-37.4782 -104.4816,-46.8239 -23.33141,-3.6439 -46.64025,-3.9383 -70.2155,-2.7223 0,0 72.506,-52.6787 72.506,-52.6787 z"
       inkscape:connector-curvature="0"
       inkscape:export-filename="/Users/jayantha/house_night.png"
       inkscape:export-xdpi="96"
       inkscape:export-ydpi="96" />
  </g>
</svg>
