<?xml version="1.0" encoding="UTF-8" standalone="no"?>
<!-- Created with Inkscape (http://www.inkscape.org/) -->

<svg
   xmlns:dc="http://purl.org/dc/elements/1.1/"
   xmlns:cc="http://creativecommons.org/ns#"
   xmlns:rdf="http://www.w3.org/1999/02/22-rdf-syntax-ns#"
   xmlns:svg="http://www.w3.org/2000/svg"
   xmlns="http://www.w3.org/2000/svg"
   xmlns:sodipodi="http://sodipodi.sourceforge.net/DTD/sodipodi-0.dtd"
   xmlns:inkscape="http://www.inkscape.org/namespaces/inkscape"
   width="210mm"
   height="297mm"
   viewBox="0 0 210 297"
   version="1.1"
   id="svg8"
   inkscape:version="0.92.2 5c3e80d, 2017-08-06"
   sodipodi:docname="background.svg">
  <defs
     id="defs2" />
  <sodipodi:namedview
     id="base"
     pagecolor="#ffffff"
     bordercolor="#666666"
     borderopacity="1.0"
     inkscape:pageopacity="0.0"
     inkscape:pageshadow="2"
     inkscape:zoom="0.11313708"
     inkscape:cx="1626.2413"
     inkscape:cy="-566.68055"
     inkscape:document-units="mm"
     inkscape:current-layer="layer1"
     showgrid="false"
     showborder="false"
     inkscape:window-width="1440"
     inkscape:window-height="782"
     inkscape:window-x="0"
     inkscape:window-y="1"
     inkscape:window-maximized="1"
     inkscape:snap-grids="false"
     inkscape:snap-to-guides="false"
     inkscape:object-nodes="false"
     inkscape:snap-page="false" />
  <metadata
     id="metadata5">
    <rdf:RDF>
      <cc:Work
         rdf:about="">
        <dc:format>image/svg+xml</dc:format>
        <dc:type
           rdf:resource="http://purl.org/dc/dcmitype/StillImage" />
        <dc:title />
      </cc:Work>
    </rdf:RDF>
  </metadata>
  <g
     inkscape:label="Layer 1"
     inkscape:groupmode="layer"
     id="layer1">
    <path
       style="fill:#25fdff;fill-opacity:0.45497628;stroke:none;stroke-width:16.21282959;stroke-miterlimit:4;stroke-dasharray:none;stroke-opacity:1"
       d="M -480.87936,411.94104 V -163.55898 H 543.12066 1567.1206 V 411.94104 987.44102 H 543.12066 -480.87936 Z"
       id="path869"
       inkscape:connector-curvature="0" />
    <path
       style="fill:#00c400;fill-opacity:0.42180098;stroke:none;stroke-width:0.26458332px;stroke-linecap:butt;stroke-linejoin:miter;stroke-opacity:1"
       d="m -199.57128,554.02355 c -125.00262,94.32103 -345.65821,137.89483 -281.28195,343.33001 -45.59601,131.22644 90.97431,80.94599 167.59319,90.08743 626.79345,0 1253.58689,0 1880.38034,0 -14.8163,-36.21405 34.389,-326.26638 -21.7866,-186.80515 C 1087.9268,795.57243 619.08855,850.36341 173.30999,718.94237 74.120981,598.64352 -43.254579,543.41422 -199.57128,554.02355 Z"
       id="path4592"
       inkscape:connector-curvature="0" />
    <path
       style="fill:#00ed00;fill-opacity:0.34597156;stroke:none;stroke-width:0.26458332px;stroke-linecap:butt;stroke-linejoin:miter;stroke-opacity:1"
       d="M 946.4523,411.90457 C 872.5895,407.49279 811.7493,435.89652 770.07821,496.66048 709.67143,557.09104 656.00466,627.31002 577.56216,665.34215 486.77622,720.96956 397.63135,781.48448 294.74755,812.65945 224.72059,839.33637 154.69363,866.0133 84.666666,892.69021 -73.328477,864.65622 -232.63695,846.00746 -392.8433,837.13867 c -48.44971,-5.95984 -106.11235,-21.88655 -88.03587,44.124 0,35.39278 0,70.78555 0,106.17832 682.66649,0 1365.33298,0 2047.99947,0 0,-62.17122 0,-124.34243 0,-186.51365 -59.8671,-33.50788 -128.0019,-53.09834 -192.8307,-76.29427 -60.837,-4.47643 -119.8158,-19.17213 -176.8093,-41.42339 -74.4568,-50.74337 -107.396,-155.17027 -185.7072,-209.17072 -21.77361,-20.71147 -43.5472,-41.42294 -65.3208,-62.13439 z"
       id="path4587"
       inkscape:connector-curvature="0" />
    <rect
       style="fill:#00ff00;fill-opacity:0;stroke:#cb5555;stroke-width:1;stroke-miterlimit:4;stroke-dasharray:none;stroke-opacity:1"
       id="rect867"
       width="2048"
       height="1151"
       x="-481.54166"
       y="-161.10715" />
    <path
       style="fill:#00c900;fill-opacity:0.82464456;stroke:none;stroke-width:0.99999994px;stroke-linecap:butt;stroke-linejoin:miter;stroke-opacity:1"
       d="m 5990.7193,2711.649 v 0 c 0,0 -557.857,-342.9695 -737.9263,-166.8345 -283.4352,277.2424 -434.4636,433.0995 -808.1211,565.685 -323.119,114.6528 -678.2481,205.9025 -1018.2344,161.6255 -365.7867,-47.637 -730.4116,-115.9881 -1099.0469,-129.3008 -479.657,-17.3221 -958.5578,72.878 -1438.45701,64.6504 -340.42806,-5.8364 -681.64589,-29.4819 -1018.23242,-80.8125 -360.47398,-54.9735 -736.74821,-87.2568 -1066.72267,-242.4355 -236.5099,-111.2247 -653.7995,39.1395 -653.7995,39.1395 l 32.3249,808.6944 h 3870.2363 3870.2344 z"
       transform="scale(0.26458333)"
       id="path892"
       inkscape:connector-curvature="0"
       sodipodi:nodetypes="ccsssssssccccc" />
    <path
       style="fill:#ffffff;fill-opacity:0.83886252;stroke:none;stroke-width:0.26458332px;stroke-linecap:butt;stroke-linejoin:miter;stroke-opacity:1"
       d="m 843.64284,430.04761 c -24.52155,22.20429 -49.04309,44.40858 -73.56464,66.61287 18.44083,-14.09091 38.5193,-28.56441 62.31847,-30.95919 10.86603,1.91589 13.17819,14.64004 11.1742,23.75952 -2.33234,14.60681 -7.82877,28.36119 -13.09159,42.09237 -0.0853,5.52774 8.63555,-7.11552 12.01488,-8.90731 14.494,-13.73118 28.988,-27.46235 43.48201,-41.19351 15.11905,33.26191 30.2381,66.52382 45.35715,99.78573 6.04762,-35.27778 12.09523,-70.55555 18.14285,-105.83333 28.22221,25.19841 56.44443,50.39682 84.66663,75.59524 -7.7102,-25.76763 -14.6096,-51.7773 -22.8243,-77.39345 -21.62206,-20.56734 -43.24413,-41.13465 -64.8662,-61.70198 -34.24295,6.20022 -68.85721,10.38224 -102.80946,18.14304 z"
       id="path4604"
       inkscape:connector-curvature="0" />
    <path
       style="fill:#ffffff;fill-opacity:0.58767772;stroke:none;stroke-width:0.26458332px;stroke-linecap:butt;stroke-linejoin:miter;stroke-opacity:1"
       d="m -320.52381,626.59521 120.95253,-72.57166 87.69033,3.02405 105.833331,18.14285 69.547618,42.33334 57.452381,66.52381 -148.166665,-66.52381 45.357142,93.73809 -72.571429,-45.35713 -42.333333,45.35713 -60.476185,-48.38094 -45.35714,-30.23809 -48.38096,21.16666 -75.59523,57.45237 z"
       id="path4610"
       inkscape:connector-curvature="0" />
    <g
       id="g4698"
       transform="translate(-2527.6752,-94.938611)">
      <g
         id="g4710"
         transform="matrix(0.45312509,0,0,0.38145166,1305.2859,516.51643)">
        <g
           transform="translate(1.8871863,-8.6404224)"
           id="g4703">
          <path
             style="fill:#098a09;fill-opacity:0.66350708;stroke:none;stroke-width:3.77952766;stroke-miterlimit:4;stroke-dasharray:none;stroke-opacity:1"
             d="m 6840,1202.5195 a 394.28571,588.57139 0 0 0 -394.2852,588.5723 394.28571,588.57139 0 0 0 30.8575,226.8262 348.57145,571.42857 0 0 0 -179.4297,498.8867 348.57145,571.42857 0 0 0 348.5722,571.4297 348.57145,571.42857 0 0 0 137.6231,-47.1367 382.85716,171.42857 0 0 0 308.0898,69.9941 382.85716,171.42857 0 0 0 382.8575,-171.4297 382.85716,171.42857 0 0 0 -9.379,-36.7363 A 491.42855,434.28566 0 0 0 7760,2505.377 a 491.42855,434.28566 0 0 0 -491.4277,-434.2852 491.42855,434.28566 0 0 0 -84.3203,6.4766 394.28571,588.57139 0 0 0 50.0332,-286.4766 A 394.28571,588.57139 0 0 0 6840,1202.5195 Z"
             id="path4612"
             inkscape:connector-curvature="0"
             transform="scale(0.26458333)" />
          <path
             inkscape:connector-curvature="0"
             id="path4674"
             transform="scale(0.26458333)"
             d="m 6945.3711,3102.9043 c -1.7425,0.028 -2.7982,0.1595 -3.043,0.4043 -1.3054,1.3055 4.2782,17.4136 12.4082,35.7969 8.13,18.3834 22.5675,63.0595 32.084,99.2812 21.6064,82.2386 26.4028,164.0684 17.5508,299.4883 -3.516,53.7886 -9.0795,141.5128 -12.3633,194.9414 -10.972,178.5202 -14.6186,203.6237 -36.2598,249.7031 -10.7781,22.9493 -26.9879,51.0293 -36.0234,62.4004 -25.6439,32.2729 -134.3664,166.67 -144.4883,178.6094 -8.6283,10.1777 -8.2262,10.5461 8.0586,7.3418 9.4286,-1.8552 104.5726,-15.1961 211.4297,-29.6465 106.8571,-14.4503 197.7436,-27.4101 201.9707,-28.7988 5.9039,-1.9396 4.8094,-6.8226 -4.7226,-21.0664 -6.8248,-10.1984 -26.258,-46.829 -43.1856,-81.4004 -46.6668,-95.3087 -68.4771,-190.328 -67.8809,-297.4258 57.0361,-32.4951 114.0732,-64.9894 171.1094,-97.4844 62.1139,-85.6864 125.0611,-171.1345 191.7422,-255.3398 -38.1577,41.3049 -76.3169,82.6111 -114.4746,123.916 l 123.0606,-208.4023 c -83.9815,105.9157 -152.6701,217.8256 -257.6094,315.998 -27.9519,22.3169 -72.4982,30.0099 -104.9375,48.709 -1.9084,0.7631 -3.976,1.6372 -6.1035,2.5293 3.3096,-72.624 2.623,-147.3199 -2.3086,-306.7852 -4.8773,-157.7134 -11.4308,-227.4129 -24.4375,-259.9199 l -8.6153,-21.5293 -51.8144,-6.6445 c -23.1551,-2.9695 -43.5955,-4.7957 -51.1465,-4.6758 z"
             style="fill:#8e2222;fill-opacity:0.80094784;stroke:none;stroke-width:0.40564764px;stroke-linecap:butt;stroke-linejoin:miter;stroke-opacity:1" />
        </g>
        <g
           id="g4667">
          <path
             inkscape:connector-curvature="0"
             id="path4657"
             transform="scale(0.26458333)"
             d="m 6594.2852,1939.6621 c 0,0 -123.0749,137.8119 -32.5235,254.7422 29.9169,38.6321 79.9885,57.6535 133.627,65.8184 -25.6793,64.109 -60.5092,193.3811 13.1816,308.0117 102.8572,160 371.4297,74.2851 371.4297,74.2851 0,0 -354.2854,5.7149 -337.1426,-154.2851 17.1428,-160 34.2852,-205.7149 34.2852,-205.7149 l -17.166,-17.166 c 87.755,1.48 167.5019,-16.6601 167.5019,-16.6601 0,0 -109.52,1.2777 -201.8008,-17.6387 l -11.3925,-11.3926 c 0,0 -1.6139,2.8134 -4.2247,7.9473 -66.7485,-15.8116 -120.0094,-43.4279 -107.8593,-91.6719 29.4485,-116.9303 50.1074,-150.3379 50.1074,-150.3379 z m 771.4941,487.3359 c 0,0 312.0262,176.3933 117.2207,247.6231 -194.8052,71.2298 -261.0273,85.3848 -261.0273,85.3848 l -16.502,63.1933 c 0,0 305.8146,-39.2413 397.1113,-171.1836 91.2972,-131.9422 -236.8027,-225.0176 -236.8027,-225.0176 z"
             style="fill:#000000;fill-opacity:0.42180098;stroke:none;stroke-width:0.99999994px;stroke-linecap:butt;stroke-linejoin:miter;stroke-opacity:1" />
        </g>
      </g>
    </g>
    <g
       transform="matrix(0.49157093,0,0,0.28320778,-764.62036,559.48125)"
       id="g4724">
      <g
         transform="matrix(0.45312509,0,0,0.38145166,1305.2859,516.51643)"
         id="g4722">
        <g
           id="g4716"
           transform="translate(1.8871863,-8.6404224)">
          <path
             transform="scale(0.26458333)"
             inkscape:connector-curvature="0"
             id="path4712"
             d="m 6840,1202.5195 a 394.28571,588.57139 0 0 0 -394.2852,588.5723 394.28571,588.57139 0 0 0 30.8575,226.8262 348.57145,571.42857 0 0 0 -179.4297,498.8867 348.57145,571.42857 0 0 0 348.5722,571.4297 348.57145,571.42857 0 0 0 137.6231,-47.1367 382.85716,171.42857 0 0 0 308.0898,69.9941 382.85716,171.42857 0 0 0 382.8575,-171.4297 382.85716,171.42857 0 0 0 -9.379,-36.7363 A 491.42855,434.28566 0 0 0 7760,2505.377 a 491.42855,434.28566 0 0 0 -491.4277,-434.2852 491.42855,434.28566 0 0 0 -84.3203,6.4766 394.28571,588.57139 0 0 0 50.0332,-286.4766 A 394.28571,588.57139 0 0 0 6840,1202.5195 Z"
             style="fill:#098a09;fill-opacity:0.66350708;stroke:none;stroke-width:3.77952766;stroke-miterlimit:4;stroke-dasharray:none;stroke-opacity:1" />
          <path
             style="fill:#8e2222;fill-opacity:0.80094784;stroke:none;stroke-width:0.40564764px;stroke-linecap:butt;stroke-linejoin:miter;stroke-opacity:1"
             d="m 6945.3711,3102.9043 c -1.7425,0.028 -2.7982,0.1595 -3.043,0.4043 -1.3054,1.3055 4.2782,17.4136 12.4082,35.7969 8.13,18.3834 22.5675,63.0595 32.084,99.2812 21.6064,82.2386 26.4028,164.0684 17.5508,299.4883 -3.516,53.7886 -9.0795,141.5128 -12.3633,194.9414 -10.972,178.5202 -14.6186,203.6237 -36.2598,249.7031 -10.7781,22.9493 -26.9879,51.0293 -36.0234,62.4004 -25.6439,32.2729 -134.3664,166.67 -144.4883,178.6094 -8.6283,10.1777 -8.2262,10.5461 8.0586,7.3418 9.4286,-1.8552 104.5726,-15.1961 211.4297,-29.6465 106.8571,-14.4503 197.7436,-27.4101 201.9707,-28.7988 5.9039,-1.9396 4.8094,-6.8226 -4.7226,-21.0664 -6.8248,-10.1984 -26.258,-46.829 -43.1856,-81.4004 -46.6668,-95.3087 -68.4771,-190.328 -67.8809,-297.4258 57.0361,-32.4951 114.0732,-64.9894 171.1094,-97.4844 62.1139,-85.6864 125.0611,-171.1345 191.7422,-255.3398 -38.1577,41.3049 -76.3169,82.6111 -114.4746,123.916 l 123.0606,-208.4023 c -83.9815,105.9157 -152.6701,217.8256 -257.6094,315.998 -27.9519,22.3169 -72.4982,30.0099 -104.9375,48.709 -1.9084,0.7631 -3.976,1.6372 -6.1035,2.5293 3.3096,-72.624 2.623,-147.3199 -2.3086,-306.7852 -4.8773,-157.7134 -11.4308,-227.4129 -24.4375,-259.9199 l -8.6153,-21.5293 -51.8144,-6.6445 c -23.1551,-2.9695 -43.5955,-4.7957 -51.1465,-4.6758 z"
             transform="scale(0.26458333)"
             id="path4714"
             inkscape:connector-curvature="0" />
        </g>
        <g
           id="g4720">
          <path
             style="fill:#000000;fill-opacity:0.42180098;stroke:none;stroke-width:0.99999994px;stroke-linecap:butt;stroke-linejoin:miter;stroke-opacity:1"
             d="m 6594.2852,1939.6621 c 0,0 -123.0749,137.8119 -32.5235,254.7422 29.9169,38.6321 79.9885,57.6535 133.627,65.8184 -25.6793,64.109 -60.5092,193.3811 13.1816,308.0117 102.8572,160 371.4297,74.2851 371.4297,74.2851 0,0 -354.2854,5.7149 -337.1426,-154.2851 17.1428,-160 34.2852,-205.7149 34.2852,-205.7149 l -17.166,-17.166 c 87.755,1.48 167.5019,-16.6601 167.5019,-16.6601 0,0 -109.52,1.2777 -201.8008,-17.6387 l -11.3925,-11.3926 c 0,0 -1.6139,2.8134 -4.2247,7.9473 -66.7485,-15.8116 -120.0094,-43.4279 -107.8593,-91.6719 29.4485,-116.9303 50.1074,-150.3379 50.1074,-150.3379 z m 771.4941,487.3359 c 0,0 312.0262,176.3933 117.2207,247.6231 -194.8052,71.2298 -261.0273,85.3848 -261.0273,85.3848 l -16.502,63.1933 c 0,0 305.8146,-39.2413 397.1113,-171.1836 91.2972,-131.9422 -236.8027,-225.0176 -236.8027,-225.0176 z"
             transform="scale(0.26458333)"
             id="path4718"
             inkscape:connector-curvature="0" />
        </g>
      </g>
    </g>
    <g
       id="g4738"
       transform="matrix(-0.30153223,0,0,0.31781433,1349.3194,511.81805)">
      <g
         id="g4736"
         transform="matrix(0.45312509,0,0,0.38145166,1305.2859,516.51643)">
        <g
           transform="translate(1.8871863,-8.6404224)"
           id="g4730">
          <path
             style="fill:#098a09;fill-opacity:0.66350708;stroke:none;stroke-width:3.77952766;stroke-miterlimit:4;stroke-dasharray:none;stroke-opacity:1"
             d="m 6840,1202.5195 a 394.28571,588.57139 0 0 0 -394.2852,588.5723 394.28571,588.57139 0 0 0 30.8575,226.8262 348.57145,571.42857 0 0 0 -179.4297,498.8867 348.57145,571.42857 0 0 0 348.5722,571.4297 348.57145,571.42857 0 0 0 137.6231,-47.1367 382.85716,171.42857 0 0 0 308.0898,69.9941 382.85716,171.42857 0 0 0 382.8575,-171.4297 382.85716,171.42857 0 0 0 -9.379,-36.7363 A 491.42855,434.28566 0 0 0 7760,2505.377 a 491.42855,434.28566 0 0 0 -491.4277,-434.2852 491.42855,434.28566 0 0 0 -84.3203,6.4766 394.28571,588.57139 0 0 0 50.0332,-286.4766 A 394.28571,588.57139 0 0 0 6840,1202.5195 Z"
             id="path4726"
             inkscape:connector-curvature="0"
             transform="scale(0.26458333)" />
          <path
             inkscape:connector-curvature="0"
             id="path4728"
             transform="scale(0.26458333)"
             d="m 6945.3711,3102.9043 c -1.7425,0.028 -2.7982,0.1595 -3.043,0.4043 -1.3054,1.3055 4.2782,17.4136 12.4082,35.7969 8.13,18.3834 22.5675,63.0595 32.084,99.2812 21.6064,82.2386 26.4028,164.0684 17.5508,299.4883 -3.516,53.7886 -9.0795,141.5128 -12.3633,194.9414 -10.972,178.5202 -14.6186,203.6237 -36.2598,249.7031 -10.7781,22.9493 -26.9879,51.0293 -36.0234,62.4004 -25.6439,32.2729 -134.3664,166.67 -144.4883,178.6094 -8.6283,10.1777 -8.2262,10.5461 8.0586,7.3418 9.4286,-1.8552 104.5726,-15.1961 211.4297,-29.6465 106.8571,-14.4503 197.7436,-27.4101 201.9707,-28.7988 5.9039,-1.9396 4.8094,-6.8226 -4.7226,-21.0664 -6.8248,-10.1984 -26.258,-46.829 -43.1856,-81.4004 -46.6668,-95.3087 -68.4771,-190.328 -67.8809,-297.4258 57.0361,-32.4951 114.0732,-64.9894 171.1094,-97.4844 62.1139,-85.6864 125.0611,-171.1345 191.7422,-255.3398 -38.1577,41.3049 -76.3169,82.6111 -114.4746,123.916 l 123.0606,-208.4023 c -83.9815,105.9157 -152.6701,217.8256 -257.6094,315.998 -27.9519,22.3169 -72.4982,30.0099 -104.9375,48.709 -1.9084,0.7631 -3.976,1.6372 -6.1035,2.5293 3.3096,-72.624 2.623,-147.3199 -2.3086,-306.7852 -4.8773,-157.7134 -11.4308,-227.4129 -24.4375,-259.9199 l -8.6153,-21.5293 -51.8144,-6.6445 c -23.1551,-2.9695 -43.5955,-4.7957 -51.1465,-4.6758 z"
             style="fill:#8e2222;fill-opacity:0.80094784;stroke:none;stroke-width:0.40564764px;stroke-linecap:butt;stroke-linejoin:miter;stroke-opacity:1" />
        </g>
        <g
           id="g4734">
          <path
             inkscape:connector-curvature="0"
             id="path4732"
             transform="scale(0.26458333)"
             d="m 6594.2852,1939.6621 c 0,0 -123.0749,137.8119 -32.5235,254.7422 29.9169,38.6321 79.9885,57.6535 133.627,65.8184 -25.6793,64.109 -60.5092,193.3811 13.1816,308.0117 102.8572,160 371.4297,74.2851 371.4297,74.2851 0,0 -354.2854,5.7149 -337.1426,-154.2851 17.1428,-160 34.2852,-205.7149 34.2852,-205.7149 l -17.166,-17.166 c 87.755,1.48 167.5019,-16.6601 167.5019,-16.6601 0,0 -109.52,1.2777 -201.8008,-17.6387 l -11.3925,-11.3926 c 0,0 -1.6139,2.8134 -4.2247,7.9473 -66.7485,-15.8116 -120.0094,-43.4279 -107.8593,-91.6719 29.4485,-116.9303 50.1074,-150.3379 50.1074,-150.3379 z m 771.4941,487.3359 c 0,0 312.0262,176.3933 117.2207,247.6231 -194.8052,71.2298 -261.0273,85.3848 -261.0273,85.3848 l -16.502,63.1933 c 0,0 305.8146,-39.2413 397.1113,-171.1836 91.2972,-131.9422 -236.8027,-225.0176 -236.8027,-225.0176 z"
             style="fill:#000000;fill-opacity:0.42180098;stroke:none;stroke-width:0.99999994px;stroke-linecap:butt;stroke-linejoin:miter;stroke-opacity:1" />
        </g>
      </g>
    </g>
    <g
       transform="matrix(2.2499996,0,0,1.8157259,-3578.193,-739.20604)"
       id="g4752">
      <g
         transform="matrix(0.45312509,0,0,0.38145166,1305.2859,516.51643)"
         id="g4750">
        <g
           id="g4744"
           transform="translate(1.8871863,-8.6404224)">
          <path
             transform="scale(0.26458333)"
             inkscape:connector-curvature="0"
             id="path4740"
             d="m 6840,1202.5195 a 394.28571,588.57139 0 0 0 -394.2852,588.5723 394.28571,588.57139 0 0 0 30.8575,226.8262 348.57145,571.42857 0 0 0 -179.4297,498.8867 348.57145,571.42857 0 0 0 348.5722,571.4297 348.57145,571.42857 0 0 0 137.6231,-47.1367 382.85716,171.42857 0 0 0 308.0898,69.9941 382.85716,171.42857 0 0 0 382.8575,-171.4297 382.85716,171.42857 0 0 0 -9.379,-36.7363 A 491.42855,434.28566 0 0 0 7760,2505.377 a 491.42855,434.28566 0 0 0 -491.4277,-434.2852 491.42855,434.28566 0 0 0 -84.3203,6.4766 394.28571,588.57139 0 0 0 50.0332,-286.4766 A 394.28571,588.57139 0 0 0 6840,1202.5195 Z"
             style="fill:#098a09;fill-opacity:0.66350708;stroke:none;stroke-width:3.77952766;stroke-miterlimit:4;stroke-dasharray:none;stroke-opacity:1" />
          <path
             style="fill:#8e2222;fill-opacity:0.80094784;stroke:none;stroke-width:0.40564764px;stroke-linecap:butt;stroke-linejoin:miter;stroke-opacity:1"
             d="m 6945.3711,3102.9043 c -1.7425,0.028 -2.7982,0.1595 -3.043,0.4043 -1.3054,1.3055 4.2782,17.4136 12.4082,35.7969 8.13,18.3834 22.5675,63.0595 32.084,99.2812 21.6064,82.2386 26.4028,164.0684 17.5508,299.4883 -3.516,53.7886 -9.0795,141.5128 -12.3633,194.9414 -10.972,178.5202 -14.6186,203.6237 -36.2598,249.7031 -10.7781,22.9493 -26.9879,51.0293 -36.0234,62.4004 -25.6439,32.2729 -134.3664,166.67 -144.4883,178.6094 -8.6283,10.1777 -8.2262,10.5461 8.0586,7.3418 9.4286,-1.8552 104.5726,-15.1961 211.4297,-29.6465 106.8571,-14.4503 197.7436,-27.4101 201.9707,-28.7988 5.9039,-1.9396 4.8094,-6.8226 -4.7226,-21.0664 -6.8248,-10.1984 -26.258,-46.829 -43.1856,-81.4004 -46.6668,-95.3087 -68.4771,-190.328 -67.8809,-297.4258 57.0361,-32.4951 114.0732,-64.9894 171.1094,-97.4844 62.1139,-85.6864 125.0611,-171.1345 191.7422,-255.3398 -38.1577,41.3049 -76.3169,82.6111 -114.4746,123.916 l 123.0606,-208.4023 c -83.9815,105.9157 -152.6701,217.8256 -257.6094,315.998 -27.9519,22.3169 -72.4982,30.0099 -104.9375,48.709 -1.9084,0.7631 -3.976,1.6372 -6.1035,2.5293 3.3096,-72.624 2.623,-147.3199 -2.3086,-306.7852 -4.8773,-157.7134 -11.4308,-227.4129 -24.4375,-259.9199 l -8.6153,-21.5293 -51.8144,-6.6445 c -23.1551,-2.9695 -43.5955,-4.7957 -51.1465,-4.6758 z"
             transform="scale(0.26458333)"
             id="path4742"
             inkscape:connector-curvature="0" />
        </g>
        <g
           id="g4748">
          <path
             style="fill:#000000;fill-opacity:0.42180098;stroke:none;stroke-width:0.99999994px;stroke-linecap:butt;stroke-linejoin:miter;stroke-opacity:1"
             d="m 6594.2852,1939.6621 c 0,0 -123.0749,137.8119 -32.5235,254.7422 29.9169,38.6321 79.9885,57.6535 133.627,65.8184 -25.6793,64.109 -60.5092,193.3811 13.1816,308.0117 102.8572,160 371.4297,74.2851 371.4297,74.2851 0,0 -354.2854,5.7149 -337.1426,-154.2851 17.1428,-160 34.2852,-205.7149 34.2852,-205.7149 l -17.166,-17.166 c 87.755,1.48 167.5019,-16.6601 167.5019,-16.6601 0,0 -109.52,1.2777 -201.8008,-17.6387 l -11.3925,-11.3926 c 0,0 -1.6139,2.8134 -4.2247,7.9473 -66.7485,-15.8116 -120.0094,-43.4279 -107.8593,-91.6719 29.4485,-116.9303 50.1074,-150.3379 50.1074,-150.3379 z m 771.4941,487.3359 c 0,0 312.0262,176.3933 117.2207,247.6231 -194.8052,71.2298 -261.0273,85.3848 -261.0273,85.3848 l -16.502,63.1933 c 0,0 305.8146,-39.2413 397.1113,-171.1836 91.2972,-131.9422 -236.8027,-225.0176 -236.8027,-225.0176 z"
             transform="scale(0.26458333)"
             id="path4746"
             inkscape:connector-curvature="0" />
        </g>
      </g>
    </g>
    <path
       style="fill:#ffffff;fill-opacity:0.8862559;stroke:none;stroke-width:0.64368701;stroke-miterlimit:4;stroke-dasharray:none;stroke-opacity:1"
       d="m -297.56535,182.09533 a 111.99293,64.483365 0 0 0 -110.52844,54.59866 128.11992,72.940198 0 0 0 -27.44684,-1.74369 128.11992,72.940198 0 0 0 -128.11987,72.94045 128.11992,72.940198 0 0 0 2.80783,14.79151 180.98059,53.912317 0 0 0 -52.98066,38.0638 180.98059,53.912317 0 0 0 180.98048,53.91217 180.98059,53.912317 0 0 0 17.9837,-0.3223 70.779527,28.541817 0 0 0 70.71479,27.80716 70.779527,28.541817 0 0 0 68.36998,-21.29447 152.31038,77.168608 0 0 0 5.99323,0.15212 152.31038,77.168608 0 0 0 144.74758,-53.30876 121.84831,58.140736 0 0 0 93.070852,-29.8905 29.566133,25.370502 0 0 0 17.52557,4.97349 29.566133,25.370502 0 0 0 29.56596,-25.37044 29.566133,25.370502 0 0 0 -29.56596,-25.37046 29.566133,25.370502 0 0 0 -8.12552,0.98641 121.84831,58.140736 0 0 0 -116.410522,-41.15631 121.84831,58.140736 0 0 0 -48.10515,4.79536 111.99293,64.483365 0 0 0 1.51582,-10.08105 111.99293,64.483365 0 0 0 -111.99283,-64.48315 z"
       id="path4754"
       inkscape:connector-curvature="0" />
    <path
       style="fill:#ffffff;fill-opacity:1;stroke:none;stroke-width:0.2475041;stroke-miterlimit:4;stroke-dasharray:none;stroke-opacity:1"
       d="m 1322.1155,-8.4047392 a 58.163319,32.505925 0 0 0 -58.1633,32.5058702 58.163319,32.505925 0 0 0 58.1633,32.50601 58.163319,32.505925 0 0 0 30.2724,-4.78343 57.051917,23.812482 0 0 0 7.1463,2.53459 64.090787,30.994024 0 0 0 64.0893,30.97496 64.090787,30.994024 0 0 0 64.0908,-30.99407 64.090787,30.994024 0 0 0 -43.1052,-29.24858 57.051917,23.812482 0 0 0 -51.7343,-13.84062 57.051917,23.812482 0 0 0 -16.5675,1.0489 58.163319,32.505925 0 0 0 -54.1918,-20.7036302 z"
       id="path4769"
       inkscape:connector-curvature="0" />
    <path
       style="fill:#ffffff;fill-opacity:0.8341232;stroke:none;stroke-width:0.64368701;stroke-miterlimit:4;stroke-dasharray:none;stroke-opacity:1"
       d="m 573.70475,-255.31266 a 111.99293,64.483365 0 0 0 -110.52812,54.59873 128.11992,72.940197 0 0 0 -27.44693,-1.74356 128.11992,72.940197 0 0 0 -128.11982,72.94025 128.11992,72.940197 0 0 0 2.80758,14.79186 180.98059,53.912317 0 0 0 -52.98074,38.063831 180.98059,53.912317 0 0 0 180.98067,53.91195 180.98059,53.912317 0 0 0 17.98342,-0.32246 70.779525,28.541816 0 0 0 70.71505,27.8076104 70.779525,28.541816 0 0 0 68.37,-21.2948304 152.31038,77.168607 0 0 0 5.99342,0.15244 152.31038,77.168607 0 0 0 68.55809,-8.37984 64.090787,30.994024 0 0 0 55.20386,15.3132704 64.090787,30.994024 0 0 0 64.09068,-30.9939704 64.090787,30.994024 0 0 0 -43.10539,-29.24834 121.84831,58.140734 0 0 0 93.07084,-29.890689 29.566131,25.370502 0 0 0 17.5255,4.97334 29.566131,25.370502 0 0 0 29.56618,-25.370022 29.566131,25.370502 0 0 0 -29.56618,-25.37055 29.566131,25.370502 0 0 0 -8.1256,0.9865 121.84831,58.140734 0 0 0 -116.41047,-41.15666 121.84831,58.140734 0 0 0 -48.10506,4.79558 111.99293,64.483365 0 0 0 1.5162,-10.08104 111.99293,64.483365 0 0 0 -111.99318,-64.4834 z"
       id="path4776"
       inkscape:connector-curvature="0" />
    <path
       inkscape:connector-curvature="0"
       id="path4781"
       d="m 1622.8215,-86.228629 a 111.99293,64.483365 0 0 0 -110.5284,54.59866 128.11992,72.940198 0 0 0 -27.4469,-1.74369 128.11992,72.940198 0 0 0 -128.1198,72.94045 128.11992,72.940198 0 0 0 2.8078,14.79151 180.98059,53.912317 0 0 0 -52.9807,38.0638 180.98059,53.912317 0 0 0 180.9805,53.912169 180.98059,53.912317 0 0 0 17.9837,-0.3223 70.779527,28.541817 0 0 0 70.7148,27.80716 70.779527,28.541817 0 0 0 68.37,-21.29447 152.31038,77.168608 0 0 0 5.9932,0.15212 152.31038,77.168608 0 0 0 144.7476,-53.308759 121.84831,58.140736 0 0 0 93.0709,-29.8905 29.566133,25.370502 0 0 0 17.5255,4.97349 29.566133,25.370502 0 0 0 29.566,-25.37044 29.566133,25.370502 0 0 0 -29.566,-25.37046 29.566133,25.370502 0 0 0 -8.1255,0.98641 121.84831,58.140736 0 0 0 -116.4105,-41.15631 121.84831,58.140736 0 0 0 -48.1052,4.79536 111.99293,64.483365 0 0 0 1.5159,-10.08105 111.99293,64.483365 0 0 0 -111.9929,-64.48315 z"
       style="fill:#ffffff;fill-opacity:0.8862559;stroke:none;stroke-width:0.64368701;stroke-miterlimit:4;stroke-dasharray:none;stroke-opacity:1" />
    <path
       inkscape:connector-curvature="0"
       id="path4783"
       d="m 587.32979,200.23812 a 58.163319,32.505925 0 0 0 -58.1633,32.50587 58.163319,32.505925 0 0 0 58.1633,32.50601 58.163319,32.505925 0 0 0 30.2724,-4.78343 57.051917,23.812482 0 0 0 7.1463,2.53459 64.090787,30.994024 0 0 0 64.0893,30.97496 64.090787,30.994024 0 0 0 64.0908,-30.99407 64.090787,30.994024 0 0 0 -43.1052,-29.24858 57.051917,23.812482 0 0 0 -51.7343,-13.84062 57.051917,23.812482 0 0 0 -16.5675,1.0489 58.163319,32.505925 0 0 0 -54.1918,-20.70363 z"
       style="fill:#ffffff;fill-opacity:1;stroke:none;stroke-width:0.2475041;stroke-miterlimit:4;stroke-dasharray:none;stroke-opacity:1" />
    <path
       style="fill:#ffffff;fill-opacity:1;stroke:none;stroke-width:0.2475041;stroke-miterlimit:4;stroke-dasharray:none;stroke-opacity:1"
       d="m 495.10859,226.97122 a 58.163319,32.505925 0 0 0 -58.1633,32.50587 58.163319,32.505925 0 0 0 58.1633,32.50601 58.163319,32.505925 0 0 0 30.2724,-4.78343 57.051917,23.812482 0 0 0 7.1463,2.53459 64.090787,30.994024 0 0 0 64.0893,30.97496 64.090787,30.994024 0 0 0 64.0908,-30.99407 64.090787,30.994024 0 0 0 -43.1052,-29.24858 57.051917,23.812482 0 0 0 -51.7343,-13.84062 57.051917,23.812482 0 0 0 -16.5675,1.0489 58.163319,32.505925 0 0 0 -54.1918,-20.70363 z"
       id="path4785"
       inkscape:connector-curvature="0" />
    <g
       id="g8808"
       transform="matrix(0.58090345,0,0,0.58514704,142.29362,-925.16302)">
      <path
         d="m -674.30951,1645.619 c 5.30632,5.1547 -4.33049,9.696 -8.56746,8.8195 -11.48192,-2.3753 -13.53425,-17.0084 -9.07143,-25.9544 7.98295,-16.0023 29.28372,-18.1721 43.34127,-9.3234 20.63002,12.9858 22.94456,41.7246 9.5754,60.7282 -17.81898,25.3288 -54.22402,27.7741 -78.11508,9.8273 -30.06447,-22.5842 -32.63333,-66.7513 -10.07937,-95.5019 27.31587,-34.8209 79.29443,-37.5096 112.88889,-10.3314 39.58992,32.0286 42.39657,91.8473 10.58334,130.2758 -36.72963,44.3672 -104.40667,47.2907 -147.6627,10.8353 -49.15026,-41.4229 -52.18987,-116.9706 -11.08731,-165.0496 46.11087,-53.9373 129.53798,-57.0926 182.43652,-11.3393 58.7274,50.7949 61.99817,142.1078 11.59127,199.8234"
         sodipodi:t0="0"
         sodipodi:argument="-18.07865"
         sodipodi:radius="147.54828"
         sodipodi:revolution="3"
         sodipodi:expansion="1"
         sodipodi:cy="1645.619"
         sodipodi:cx="-674.30951"
         id="path4791"
         style="fill:none;fill-rule:evenodd;stroke:#f3ff1c;stroke-width:20;stroke-miterlimit:4;stroke-dasharray:none;stroke-opacity:0.95734594"
         sodipodi:type="spiral" />
      <path
         inkscape:connector-curvature="0"
         d="m -485.02448,1565.9134 c 7.26697,0.2068 14.53978,0.1949 21.8094,0.1817 7.81846,0.043 15.63658,-0.011 23.45523,-0.046 6.2697,-0.1461 12.66179,1.3757 17.54304,5.3707 5.29635,2.6645 9.43795,6.6392 13.79045,10.5818 4.32948,3.3792 8.80724,6.5389 13.50452,9.3773 4.752,2.3258 9.66729,4.1954 14.73076,5.8777 4.56578,1.519 9.4207,1.7863 14.19494,1.9562 -1.62636,3.661 12.28889,-5.2993 8.87685,-3.3838 -34.32193,19.2682 -46.59188,28.6647 -33.02415,18.4548 4.92027,-4.8479 9.39676,-10.1371 13.96823,-15.3153 3.32965,-4.0286 5.51174,-8.8572 8.67873,-12.9824 0.63423,-0.8596 1.20475,-1.7622 1.76808,-2.6688 0,0 41.2075,-18.4135 41.2075,-18.4135 v 0 c -0.57026,1.1146 -1.18171,2.2062 -1.87492,3.2506 -1.5771,2.3716 -0.65672,1.2647 -2.78585,3.2999 -2.31833,3.0798 -3.8722,6.9118 -6.1119,10.0525 -2.1146,2.892 -4.63767,4.9279 -6.96322,7.5723 -2.34085,2.6618 -4.05593,5.964 -6.73595,8.3735 -12.75406,13.9767 -2.45602,3.1788 -42.91431,26.3103 -3.10462,1.7751 -6.95629,1.6671 -10.37129,1.4998 -5.0491,-0.3818 -10.09891,-1.1798 -14.8458,-3.0131 -5.29791,-1.913 -10.48348,-3.9987 -15.40182,-6.7806 -4.6025,-3.3207 -9.56691,-6.1108 -13.73531,-10.0117 -4.25098,-3.8133 -8.62878,-7.2447 -13.58543,-10.1177 -4.8205,-2.7773 -10.33349,-3.3587 -15.82732,-3.1973 -7.77603,-0.036 -15.55155,-0.09 -23.32744,-0.046 -7.43635,-0.014 -14.87546,-0.02 -22.30943,0.1816 0,0 36.28641,-26.3636 36.28641,-26.3636 z"
         id="path8781"
         style="fill:#ffff00;fill-opacity:0.8862559;stroke:none;stroke-width:20;stroke-miterlimit:4;stroke-dasharray:none;stroke-opacity:0.95734594" />
      <path
         inkscape:connector-curvature="0"
         d="m -627.29588,1513.9522 c 4.48744,-5.6911 10.32624,-10.0778 16.04184,-14.4502 18.25972,-13.644 38.28675,-24.1402 58.03173,-35.6333 -76.3012,43.8256 -6.15323,2.8861 19.67381,-11.1858 15.84724,-7.7358 49.22898,-27.5721 -17.35789,10.7465 13.72233,-7.8574 27.44462,-15.7148 41.16695,-23.5722 0.96258,-0.4775 3.81822,-1.9698 2.88774,-1.4324 -11.77597,6.8001 -23.57792,13.5559 -35.42924,20.2239 -0.74994,0.4219 1.37091,-1.048 2.11494,-1.4802 39.80241,-23.1219 25.75256,-18.0377 42.26732,-23.8584 -12.35787,7.0376 -49.50367,28.0222 -37.07363,21.1128 16.69484,-9.2799 90.62376,-52.879 5.99678,-2.5743 2.78885,-4.8375 3.9115,-10.5199 5.08109,-15.9293 1.72556,-7.4654 3.42156,-14.9169 5.56929,-22.2729 0.84582,-2.7295 1.69535,-5.4068 2.07928,-8.2396 0.51483,-0.7238 -0.23606,-3.5899 0.60788,-1.5707 0,0 38.8307,-23.1197 38.8307,-23.1197 v 0 c 1.14012,1.8958 1.12578,2.6838 1.1238,4.8254 -0.56195,3.1184 -0.9701,6.2322 -2.34596,9.127 -2.52476,7.203 -4.41534,14.474 -6.05549,21.9262 -0.9988,5.6818 -2.11646,11.3698 -3.80992,16.8838 -12.89844,8.1653 -25.77952,16.3581 -38.69534,24.4958 -0.55279,0.3483 -1.17967,0.5624 -1.77575,0.83 -0.46823,0.2102 -1.85338,0.8771 -1.4102,0.6182 25.00013,-14.6053 76.01709,-43.7623 -3.27867,1.6725 -13.96897,7.2374 -3.42508,1.8088 34.45566,-20.1484 0.77978,-0.4521 -1.52961,0.9542 -2.3064,1.4113 -13.54598,7.9718 -27.08365,15.9579 -40.66157,23.8751 -0.8819,0.5142 -3.59634,1.9325 -2.71483,1.4175 11.54811,-6.7461 23.14495,-13.4084 34.71743,-20.1126 -19.43632,11.2097 -38.53518,22.9072 -58.58832,32.9453 -3.03988,1.5473 -3.14696,1.5759 -6.13241,3.1981 -1.0631,0.5776 -4.22233,2.3643 -3.1777,1.7539 11.52017,-6.7311 23.05076,-13.4446 34.6052,-20.1168 1.1621,-0.6711 -2.28455,1.4085 -3.42683,2.1127 -13.77466,8.0526 -27.54935,16.1052 -41.324,24.1578 11.3267,-6.6769 22.50302,-13.6157 33.98012,-20.0307 1.22115,-0.6825 -1.99798,1.9753 -3.13497,2.7903 -1.13311,0.8122 -2.45407,1.3274 -3.63749,2.0644 -3.03147,1.8878 -3.69002,2.6053 -6.53008,4.6515 -1.02846,0.7409 -2.08243,1.4459 -3.12364,2.1688 -5.733,3.7974 -11.13184,8.1679 -16.05069,12.9682 0,0 -41.19054,17.7505 -41.19054,17.7505 z"
         id="path8783"
         style="fill:#ffff00;fill-opacity:0.8862559;stroke:none;stroke-width:20;stroke-miterlimit:4;stroke-dasharray:none;stroke-opacity:0.95734594" />
      <path
         inkscape:connector-curvature="0"
         d="m -700.33906,1475.5871 c 0.24633,-5.6317 0.11944,-11.2685 0.11359,-16.9028 0.007,-5.7252 0.0222,-11.4504 0.0296,-17.1756 0.11332,-6.8515 0.0648,-13.7044 0.0434,-20.5564 -0.11774,-5.9203 0.49818,-11.846 -0.95806,-17.6295 -1.56688,-5.108 -4.01177,-10.0018 -7.11133,-14.3579 -2.30154,-3.3203 -5.23394,-6.2122 -7.29581,-9.6522 -0.96494,-1.401 -0.40854,-0.9287 -1.48979,-1.6045 0,0 38.31632,-23.5866 38.31632,-23.5866 v 0 c 1.52162,1.7485 0.89644,0.8519 1.93286,2.649 2.17962,3.3148 4.82135,6.34 7.13775,9.5681 3.09409,4.8981 5.73082,10.1425 7.57147,15.6422 2.04402,6.1384 1.5476,12.3918 1.48731,18.7989 -0.0214,6.8373 -0.0704,13.6755 0.0434,20.5122 0.007,5.7151 0.0222,11.4303 0.0296,17.1454 -0.006,5.5958 -0.13477,11.1942 0.11356,16.7871 0,0 -39.96383,20.3626 -39.96383,20.3626 z"
         id="path8785"
         style="fill:#ffff00;fill-opacity:0.8862559;stroke:none;stroke-width:20;stroke-miterlimit:4;stroke-dasharray:none;stroke-opacity:0.95734594" />
      <path
         inkscape:connector-curvature="0"
         d="m -836.70112,1543.8664 c -5.64092,-0.3381 -11.43755,1.1039 -16.41155,-2.0419 -5.44304,-3.9355 -6.9296,-10.8613 -8.71514,-16.9864 -2.60051,-7.1178 -3.56333,-14.5619 -4.7634,-21.9839 -2.20612,-6.8268 -2.66486,-13.9706 -2.82474,-21.0878 -0.9569,-5.9386 -2.41787,-11.7414 -2.97305,-17.7744 -0.005,-3.7522 -1.23028,-7.2341 -2.3255,-10.7661 0.16724,0.6614 -0.79846,-2.6024 -0.67874,-1.9308 0.0918,0.5152 0.82677,1.7515 0.35277,1.5298 -1.01332,-0.474 -1.24941,-1.8599 -1.95627,-2.727 -0.17807,0.1055 -0.35989,0.4281 -0.5342,0.3165 -0.63941,-0.4094 -0.99488,-1.1528 -1.56146,-1.6582 -1.49365,-1.3321 -3.38016,-2.5428 -4.99991,-3.7409 -0.33142,-0.2383 -0.60944,-0.5787 -0.99423,-0.715 -0.31739,-0.1124 -0.67587,0.046 -1.0101,0.01 -1.76067,-0.2155 -2.71489,-1.0378 -4.10966,-2.0692 -0.36788,-0.4964 -0.59246,-1.1422 -1.10361,-1.4893 -0.0692,-0.047 -3.52586,0.1022 -4.00505,0.1931 0,0 36.54653,-26.3157 36.54653,-26.3157 v 0 c 2.47533,0.4776 4.59348,1.5324 6.47864,3.269 2.03443,1.0889 4.61579,1.251 6.21855,3.2154 2.5014,2.1228 5.3113,3.8398 7.83675,5.9232 0.89392,1.2395 3.06803,2.3663 3.03845,4.7326 0.89437,3.8711 2.50055,7.6562 2.42557,11.6778 0.32284,6.1855 1.53558,12.0807 2.76484,18.1113 0.21227,6.8804 0.26538,13.9214 2.63154,20.4735 1.3099,7.2815 1.52596,14.725 4.52104,21.6412 1.17177,4.7735 2.54514,10.9805 7.14987,13.4902 4.90744,1.2345 10.20799,0.099 15.20679,0.4035 0,0 -36.20473,26.3043 -36.20473,26.3043 z"
         id="path8787"
         style="fill:#ffff00;fill-opacity:0.8862559;stroke:none;stroke-width:20;stroke-miterlimit:4;stroke-dasharray:none;stroke-opacity:0.95734594" />
      <path
         inkscape:connector-curvature="0"
         d="m -839.40406,1646.7056 c -5.05121,-0.1339 -10.10621,-0.105 -15.15789,-0.01 -0.39339,0.2777 -1.60071,1.0678 -1.18015,0.8332 12.57763,-7.0149 25.08549,-14.1543 37.65814,-21.1781 0.26001,-0.1453 -0.45667,0.3868 -0.713,0.5384 -13.07197,7.7338 -26.11008,15.5264 -39.26699,23.1148 -0.28514,0.1645 -1.26662,0.2659 -0.98253,0.1 12.43909,-7.2842 25.01537,-14.3316 37.52307,-21.4974 -4.24032,3.2212 -6.06229,9.0499 -8.00724,13.787 -4.66844,9.7422 -10.03639,19.1183 -14.75827,28.8368 -3.70568,5.7861 -6.02729,12.5613 -9.91246,18.2164 -2.11143,1.8339 -2.13826,4.5243 -3.46636,6.7548 -2.09696,3.9631 -4.31361,7.8427 -6.77889,11.6348 -3.00466,4.9016 -6.59828,9.3884 -9.92767,14.0648 -16.09751,17.0673 19.75546,-8.778 -43.69519,27.7537 0,0 35.29009,-28.0194 35.29009,-28.0194 v 0 c -12.54053,7.2977 -25.06742,14.6189 -37.6216,21.8931 -0.30385,0.1761 0.52533,-0.5201 0.86794,-0.5972 0.4554,-0.1025 1.0061,0.3413 1.39771,0.087 0.95239,-0.6178 0.56393,-4.0751 2.46909,-4.0249 2.55291,-1.7353 3.02316,-3.7664 4.92564,-6.0716 0.60794,-0.7367 1.52131,-1.1873 2.10712,-1.9417 6.60942,-8.5112 -3.51115,2.6409 3.53983,-4.8872 1.08905,-2.4969 2.65782,-3.9553 3.71459,-6.2517 0.33687,-0.7321 0.27967,-1.6391 0.73729,-2.3023 2.574,-3.7305 0.80987,2.9774 1.88653,-3.275 0.29501,-0.4212 0.51054,-0.9111 0.88501,-1.2635 0.19603,-0.1845 0.62762,-0.045 0.75684,-0.2816 0.76245,-1.3932 0.21672,-4.4195 1.67672,-5.6716 1.00869,-1.0819 2.3854,-1.851 3.17061,-3.1045 0.60965,-0.9734 0.74609,-2.1764 1.22295,-3.2212 1.87333,-4.1046 5.05362,-7.2371 6.8298,-11.4051 4.77716,-9.5171 9.36913,-19.1332 14.73729,-28.335 1.78115,-5.3088 3.51816,-10.6062 6.30912,-15.4036 20.38821,-12.0215 83.82654,-48.9375 2.61406,-1.684 -0.30491,0.1774 0.43857,-0.5755 0.74321,-0.7534 13.2107,-7.7129 26.36115,-15.5379 39.77048,-22.9001 0.50913,-0.2796 1.15935,0.073 1.73905,0.1098 5.05984,0.1016 10.12293,0.119 15.18245,-0.01 0,0 -36.28639,26.3636 -36.28639,26.3636 z"
         id="path8789"
         style="fill:#ffff00;fill-opacity:0.8862559;stroke:none;stroke-width:20;stroke-miterlimit:4;stroke-dasharray:none;stroke-opacity:0.95734594" />
      <path
         inkscape:connector-curvature="0"
         d="m -714.8038,1770.2938 c -0.25778,6.189 -0.17026,12.3897 -0.16616,18.5835 0.523,6.178 -0.34687,11.7332 -3.37087,17.1508 -5.53519,6.8516 -10.06007,14.4025 -15.55694,21.2788 -6.52437,7.8467 -12.75678,15.9402 -18.9638,24.039 -3.47861,5.3302 -8.33938,9.6758 -11.3324,15.318 -1.12109,1.4336 -1.43621,3.0516 -1.94365,4.7302 -0.26398,2.916 -0.43231,5.9522 1.30341,8.4324 0.69668,3.2783 3.46988,5.2786 5.03965,7.9959 4.50562,7.799 -1.22433,-1.0956 1.83214,3.5731 0.25479,0.2927 0.50959,0.5855 0.76435,0.8782 0,0 -38.65761,22.9716 -38.65761,22.9716 v 0 c -0.30752,-0.448 -0.61505,-0.8961 -0.92255,-1.3441 -2.18384,-3.8494 -4.5593,-7.5232 -6.64461,-11.4474 -2.19826,-3.3463 -3.11243,-6.7182 -3.03723,-10.7201 -0.23696,-2.2277 0.30512,-4.9501 1.33784,-6.8346 1.59091,-2.5863 0.77724,-1.1374 2.36738,-4.3871 2.57445,-4.3367 6.75003,-7.4947 9.51278,-11.7047 5.86314,-8.4035 12.69243,-16.194 18.95597,-24.2953 5.54561,-6.6247 9.7201,-14.0509 15.24537,-20.6468 4.17721,-5.3249 4.60803,-8.0554 4.43928,-14.7946 0.004,-6.1373 0.0941,-12.282 -0.16616,-18.4142 0,0 39.96381,-20.3626 39.96381,-20.3626 z"
         id="path8791"
         style="fill:#ffff00;fill-opacity:0.8862559;stroke:none;stroke-width:20;stroke-miterlimit:4;stroke-dasharray:none;stroke-opacity:0.95734594" />
      <path
         inkscape:connector-curvature="0"
         d="m -596.62202,1787.1466 c 2.04734,4.9977 4.59166,9.7913 6.45718,14.8511 2.71412,6.4778 4.992,13.0995 8.72517,19.0818 3.7683,7.1413 9.62578,12.5235 15.80761,17.5533 5.73561,5.3432 12.89039,9.5931 20.19263,12.4846 4.55959,2.6213 9.50343,4.1753 14.6768,4.9359 3.07573,0.2346 6.16109,0.2928 9.24166,0.1408 0.2241,-0.017 0.44821,-0.034 0.67231,-0.051 0,0 -36.52348,26.5848 -36.52348,26.5848 v 0 c -0.21278,-0.013 -0.42556,-0.026 -0.63831,-0.04 -3.19275,-0.186 -6.38104,-0.3728 -9.52238,-1.0341 -5.20668,-1.3528 -10.13537,-3.4294 -14.87625,-5.9737 -7.40034,-3.6315 -14.61537,-8.0851 -20.71733,-13.6385 -6.30967,-5.5344 -12.67092,-11.0962 -16.60064,-18.6644 -3.95571,-6.2505 -6.35828,-13.1127 -9.35069,-19.8327 -1.69413,-4.8907 -4.41526,-9.4648 -6.5677,-14.1787 0,0 39.02342,-22.2193 39.02342,-22.2193 z"
         id="path8793"
         style="fill:#ffff00;fill-opacity:0.8862559;stroke:none;stroke-width:20;stroke-miterlimit:4;stroke-dasharray:none;stroke-opacity:0.95734594" />
      <path
         inkscape:connector-curvature="0"
         d="m -475.95305,1720.1277 c 5.89814,1.4856 11.29194,4.3478 16.48783,7.4538 4.08638,2.7518 8.22719,5.5263 12.20964,8.4586 2.98426,2.5283 6.21303,4.557 9.67735,6.3568 3.10126,1.6712 6.5537,2.8899 9.25682,5.0996 2.6166,1.8516 5.16019,2.4435 8.23256,2.8346 2.04317,0.2102 4.10128,0 6.15029,0.023 0.88755,-0.3873 2.44854,0.4486 3.24933,-0.013 0.51469,-0.2963 0.60483,-1.0706 1.09579,-1.4048 1.60983,-1.0956 3.60363,-1.4778 5.39012,-2.2527 -9.66224,5.9692 19.31342,-10.3329 9.46454,-4.6058 -61.50025,35.7619 -43.68485,25.1091 -30.61803,17.3796 13.33199,-7.6978 26.66275,-15.3977 39.99595,-23.0933 0.98468,-0.5684 4.00011,-2.1621 3.01678,-1.5914 -12.35043,7.1675 -24.7432,14.2618 -37.1148,21.3927 0,0 41.83589,-16.3865 41.83589,-16.3865 v 0 c -13.21747,7.6992 -26.43433,15.3995 -39.65241,23.0976 -2.69259,1.5682 -4.31424,2.4812 -2.90685,1.6674 12.16555,-7.0345 24.33574,-14.061 36.50361,-21.0914 -18.36078,10.4161 -35.91097,22.4274 -55.33659,30.7732 -3.98474,1.7365 -6.954,3.1355 -11.36439,2.5966 -2.20369,0.013 -4.42616,-0.2558 -6.57317,-0.7478 -3.41406,-0.8563 -6.32074,-2.5527 -9.24291,-4.4819 -2.94364,-1.6003 -5.95151,-3.0557 -8.87542,-4.6905 -3.58372,-1.9965 -6.77045,-4.3939 -10.0113,-6.8945 -3.81966,-2.8218 -7.67739,-5.6451 -11.69326,-8.1743 -4.80171,-2.6204 -9.81885,-5.4882 -15.46376,-5.3425 0,0 36.28639,-26.3636 36.28639,-26.3636 z"
         id="path8795"
         style="opacity:0.98999999;fill:#ffff00;fill-opacity:0.8862559;stroke:none;stroke-width:20;stroke-miterlimit:4;stroke-dasharray:none;stroke-opacity:0.95734594" />
    </g>
    <path
       inkscape:connector-curvature="0"
       id="path9274"
       d=""
       style="opacity:0.98000004;fill:#000000;fill-opacity:0.91153846;fill-rule:nonzero;stroke:none;stroke-width:22.09708595;stroke-miterlimit:4;stroke-dasharray:none;stroke-opacity:1" />
    <g
       id="2"
       inkscape:label="#g10450"
       transform="translate(41.907862,-490.92067)">
      <g
         id="g10144"
         transform="translate(0.61860001,353.12986)">
        <ellipse
           style="opacity:0.98000004;fill:#ffffff;fill-opacity:1;fill-rule:nonzero;stroke:#181616;stroke-width:5;stroke-miterlimit:4;stroke-dasharray:none;stroke-opacity:1"
           id="ellipse10136"
           cx="84.189903"
           cy="1432.3943"
           rx="72.496857"
           ry="73.666168" />
        <path
           style="opacity:0.98000004;fill:#5b8de7;fill-opacity:0.81153846;fill-rule:nonzero;stroke:none;stroke-width:5;stroke-miterlimit:4;stroke-dasharray:none;stroke-opacity:1"
           d="m 29.968584,1480.2581 a 73.666167,72.496856 31.925811 0 0 14.928782,12.3576 73.666167,72.496856 31.925811 0 0 100.860904,-22.5742 73.666167,72.496856 31.925811 0 0 -19.93018,-97.5361 73.666167,72.496856 31.925811 0 1 9.25786,88.1307 73.666167,72.496856 31.925811 0 1 -100.860913,22.5743 73.666167,72.496856 31.925811 0 1 -4.256453,-2.9523 z"
           id="path10138"
           inkscape:connector-curvature="0" />
        <ellipse
           style="opacity:0.98000004;fill:#000000;fill-opacity:0.81153846;fill-rule:nonzero;stroke:none;stroke-width:5;stroke-miterlimit:4;stroke-dasharray:none;stroke-opacity:1"
           id="ellipse10140"
           cx="83.020592"
           cy="1426.5479"
           rx="29.232607"
           ry="30.401907" />
        <circle
           style="opacity:0.98000004;fill:#ffffff;fill-opacity:0.91153846;fill-rule:nonzero;stroke:none;stroke-width:5;stroke-miterlimit:4;stroke-dasharray:none;stroke-opacity:1"
           id="circle10142"
           cx="81.851295"
           cy="1406.6697"
           r="7.0158248" />
      </g>
      <g
         transform="translate(103.51737,328.57447)"
         id="g10154">
        <ellipse
           ry="73.666168"
           rx="72.496857"
           cy="1432.3943"
           cx="84.189903"
           id="ellipse10146"
           style="opacity:0.98000004;fill:#ffffff;fill-opacity:1;fill-rule:nonzero;stroke:#181616;stroke-width:5;stroke-miterlimit:4;stroke-dasharray:none;stroke-opacity:1" />
        <path
           inkscape:connector-curvature="0"
           id="path10148"
           d="m 29.968584,1480.2581 a 73.666167,72.496856 31.925811 0 0 14.928782,12.3576 73.666167,72.496856 31.925811 0 0 100.860904,-22.5742 73.666167,72.496856 31.925811 0 0 -19.93018,-97.5361 73.666167,72.496856 31.925811 0 1 9.25786,88.1307 73.666167,72.496856 31.925811 0 1 -100.860913,22.5743 73.666167,72.496856 31.925811 0 1 -4.256453,-2.9523 z"
           style="opacity:0.98000004;fill:#5b8de7;fill-opacity:0.81153846;fill-rule:nonzero;stroke:none;stroke-width:5;stroke-miterlimit:4;stroke-dasharray:none;stroke-opacity:1" />
        <ellipse
           ry="30.401907"
           rx="29.232607"
           cy="1426.5479"
           cx="83.020592"
           id="ellipse10150"
           style="opacity:0.98000004;fill:#000000;fill-opacity:0.81153846;fill-rule:nonzero;stroke:none;stroke-width:5;stroke-miterlimit:4;stroke-dasharray:none;stroke-opacity:1" />
        <circle
           r="7.0158248"
           cy="1406.6697"
           cx="81.851295"
           id="circle10152"
           style="opacity:0.98000004;fill:#ffffff;fill-opacity:0.91153846;fill-rule:nonzero;stroke:none;stroke-width:5;stroke-miterlimit:4;stroke-dasharray:none;stroke-opacity:1" />
      </g>
      <path
         inkscape:connector-curvature="0"
         id="path10156"
         d="m 266.31639,1614.1444 a 62.154173,85.924488 49.474118 0 0 -104.96576,5.7208 62.154173,85.924488 49.474118 0 0 -36.39084,56.1135 62.154173,85.924488 49.474118 0 1 31.87844,-42.0343 62.154173,85.924488 49.474118 0 1 104.96621,-5.7212 62.154173,85.924488 49.474118 0 1 8.53741,47.1637 62.154173,85.924488 49.474118 0 0 -4.02546,-61.2425 z"
         style="opacity:0.98000004;fill:#000000;fill-opacity:1;fill-rule:nonzero;stroke:none;stroke-width:5;stroke-miterlimit:4;stroke-dasharray:none;stroke-opacity:1" />
      <path
         style="opacity:0.98000004;fill:#000000;fill-opacity:1;fill-rule:nonzero;stroke:none;stroke-width:5;stroke-miterlimit:4;stroke-dasharray:none;stroke-opacity:1"
         d="m -39.671927,1623.3295 a 85.924488,62.154173 40.525882 0 1 104.965757,5.7208 85.924488,62.154173 40.525882 0 1 36.39084,56.1135 85.924488,62.154173 40.525882 0 0 -31.87844,-42.0343 85.924488,62.154173 40.525882 0 0 -104.966207,-5.7212 85.924488,62.154173 40.525882 0 0 -8.53741,47.1637 85.924488,62.154173 40.525882 0 1 4.02546,-61.2425 z"
         id="path10158"
         inkscape:connector-curvature="0" />
    </g>
    <text
       xml:space="preserve"
       style="font-style:normal;font-weight:normal;font-size:25.39999962px;line-height:1.25;font-family:sans-serif;letter-spacing:0px;word-spacing:0px;fill:#000000;fill-opacity:1;stroke:none;stroke-width:0.26458332"
       x="880.53333"
       y="1406.1333"
       id="text10596"><tspan
         sodipodi:role="line"
         id="tspan10594"
         x="880.53333"
         y="1428.6063"
         style="stroke-width:0.26458332" /></text>
  </g>
</svg>
