<?xml version="1.0" encoding="UTF-8" standalone="no"?>
<!-- Created with Inkscape (http://www.inkscape.org/) -->

<svg
   xmlns:dc="http://purl.org/dc/elements/1.1/"
   xmlns:cc="http://creativecommons.org/ns#"
   xmlns:rdf="http://www.w3.org/1999/02/22-rdf-syntax-ns#"
   xmlns:svg="http://www.w3.org/2000/svg"
   xmlns="http://www.w3.org/2000/svg"
   xmlns:sodipodi="http://sodipodi.sourceforge.net/DTD/sodipodi-0.dtd"
   xmlns:inkscape="http://www.inkscape.org/namespaces/inkscape"
   width="210mm"
   height="297mm"
   viewBox="0 0 210 297"
   version="1.1"
   id="svg937"
   inkscape:version="0.92.2 5c3e80d, 2017-08-06"
   sodipodi:docname="chick.svg"
   inkscape:export-filename="/Users/jayantha/Desktop/Personal/Youtube_Channel/Art-works/Components/chick.png"
   inkscape:export-xdpi="96"
   inkscape:export-ydpi="96">
  <defs
     id="defs931" />
  <sodipodi:namedview
     id="base"
     pagecolor="#ffffff"
     bordercolor="#666666"
     borderopacity="1.0"
     inkscape:pageopacity="0.0"
     inkscape:pageshadow="2"
     inkscape:zoom="0.24748737"
     inkscape:cx="-20.860837"
     inkscape:cy="662.01554"
     inkscape:document-units="mm"
     inkscape:current-layer="g1272"
     showgrid="false"
     inkscape:window-width="1440"
     inkscape:window-height="782"
     inkscape:window-x="0"
     inkscape:window-y="1"
     inkscape:window-maximized="1" />
  <metadata
     id="metadata934">
    <rdf:RDF>
      <cc:Work
         rdf:about="">
        <dc:format>image/svg+xml</dc:format>
        <dc:type
           rdf:resource="http://purl.org/dc/dcmitype/StillImage" />
        <dc:title></dc:title>
      </cc:Work>
    </rdf:RDF>
  </metadata>
  <g
     inkscape:label="Layer 1"
     inkscape:groupmode="layer"
     id="layer1">
    <g
       id="g1132"
       transform="translate(25.616681,-10.852127)"
       style="stroke-width:5;stroke-miterlimit:4;stroke-dasharray:none" />
    <g
       id="g1272"
       transform="translate(329.27606,9.621703)">
      <path
         inkscape:connector-curvature="0"
         id="path1026"
         d="m -259.65992,55.616939 c -2.62437,-1.28016 -5.00868,-3.324762 -6.3189,-5.598105 -0.33196,-1.43803 -0.88015,-2.483931 -1.41513,-2.987322 1.12799,-2.72551 -0.72863,-5.848721 1.42453,-8.367951 2.01911,-2.439938 5.86492,-3.393732 9.10491,-2.178389 2.50878,0.685645 2.60754,3.973751 3.69172,4.822789 1.05464,-1.977551 2.60467,-4.268807 4.11324,-5.557544 -0.88177,0.188428 2.09506,-1.67569 1.23788,-1.429926 2.3246,-1.063837 6.63566,-1.410568 7.56702,1.242353 0.5369,2.62014 0.26516,5.333142 -0.0557,7.986585 -0.55047,1.74698 -1.06908,3.784667 -1.87707,4.259624 -0.27995,1.134211 -0.39658,0.768935 -1.02396,1.931763 -0.78918,1.375203 -1.37549,2.606002 -3.48595,4.780919 -2.25499,1.549256 -4.83015,3.177606 -8.08045,2.775157 -2.03784,0.233137 -4.42143,0.520471 -4.88211,-1.679953 z"
         style="fill:#9c303f;fill-opacity:1;stroke:#000000;stroke-width:2;stroke-linecap:butt;stroke-linejoin:miter;stroke-opacity:1;stroke-miterlimit:4;stroke-dasharray:none" />
      <path
         inkscape:connector-curvature="0"
         id="path1228"
         d="m -195.34088,186.48721 c -29.57064,-10.70517 -51.16114,-38.37632 -51.14418,-65.54816 0.004,-6.3233 0.43709,-7.98116 3.15577,-12.0792 12.35202,-18.618896 25.90577,-23.013945 49.81567,-16.153636 24.33173,6.981339 39.64046,17.596476 47.07706,32.643406 8.50511,17.20893 5.27572,37.0799 -8.37124,51.50956 -7.40416,7.82881 -14.84943,11.3115 -25.25074,11.81156 -6.6228,0.3184 -9.51135,-0.0943 -15.28234,-2.18353 z"
         style="opacity:1;fill:#ffff00;fill-opacity:1;fill-rule:nonzero;stroke:#120f0f;stroke-width:3;stroke-miterlimit:4;stroke-dasharray:none;stroke-opacity:1" />
      <path
         inkscape:connector-curvature="0"
         id="path1224"
         d="m -257.7418,116.10228 c -7.56615,-1.96926 -23.16665,-9.76485 -24.02673,-12.00618 -1.7621,-4.591997 -1.83875,-18.100584 -0.14076,-24.809595 2.53532,-10.017471 6.23811,-14.76221 15.01754,-19.243405 6.66638,-3.402663 8.11564,-3.734054 15.99117,-3.656597 24.57847,0.241732 41.51594,19.616462 35.43503,40.534055 -2.31333,7.957592 -10.35845,16.404442 -18.15424,19.060732 -6.32864,2.15638 -16.11321,2.20546 -24.12201,0.12099 z"
         style="opacity:1;fill:#ffff00;fill-opacity:1;fill-rule:nonzero;stroke:#120f0f;stroke-width:3;stroke-miterlimit:4;stroke-dasharray:none;stroke-opacity:1" />
      <path
         inkscape:connector-curvature="0"
         id="path1167"
         d="m -279.55246,88.686209 c -0.52128,2.379878 -2.60465,4.434688 -4.62683,5.780045 -2.39758,1.697597 -5.06975,3.037219 -7.07436,5.445406 -3.76794,2.13674 -6.61029,5.99888 -10.01809,8.81998 -0.50823,0.39915 -1.2782,0.77543 -0.28659,0.56951 4.45642,-0.52083 9.21069,-4.12237 13.56882,-3.98964 4.10102,0.0531 8.4825,-1.01467 12.70007,-1.42153 0.66799,-1.76416 -0.0143,-3.20027 -0.46083,-4.519378 -0.92721,-2.476389 -2.42236,-4.586788 -2.81789,-7.410887 0.17013,-1.313549 -0.60924,-2.07449 -0.94396,-3.096781 z"
         style="fill:#ff001c;fill-opacity:1;stroke:#130909;stroke-width:2;stroke-linecap:butt;stroke-linejoin:miter;stroke-miterlimit:4;stroke-dasharray:none;stroke-opacity:1" />
      <g
         transform="translate(-131.17785,-41.69231)"
         id="g1222">
        <path
           style="opacity:1;fill:#f4ff00;fill-opacity:1;fill-rule:nonzero;stroke:#120f0f;stroke-width:5;stroke-miterlimit:4;stroke-dasharray:none;stroke-opacity:1"
           id="path1190"
           d="m -65.811322,220.42552 c -0.007,2.17479 -0.0043,4.3496 -0.0021,6.52441 1.59e-4,1.18586 0.0028,2.37171 0.004,3.55757 0.0021,0.85592 -0.0011,1.71185 -0.0021,2.56778 -0.459224,1.62417 -0.699109,3.31937 -1.128379,4.95395 -0.325959,1.00808 -0.875498,1.84392 -1.030518,2.91011 -0.04892,0.58697 -0.0096,1.17645 0.0013,1.76423 0.01439,0.76205 0.01929,1.52425 0.02069,2.28642 0.0038,0.53579 0.0021,1.0716 0.0021,1.60739 0.142132,0.95836 -0.439412,1.65 -0.812779,2.46127 -0.228745,0.62604 -0.278966,1.29478 -0.294327,1.95538 0,0 -0.94886,0.48094 -0.94886,0.48094 v 0 c 0.01288,-0.67243 0.06021,-1.35312 0.279215,-1.99444 0.339677,-0.80868 0.981742,-1.46638 0.828691,-2.4201 1.8e-5,-0.53596 -0.0011,-1.07191 -5.29e-4,-1.60786 -0.0029,-0.76156 -0.0052,-1.52314 -0.02027,-2.28458 -0.01289,-0.59281 -0.04937,-1.18681 -0.01037,-1.7793 0.158139,-1.07773 0.665546,-1.92126 1.032256,-2.92483 0.446802,-1.62091 0.646337,-3.32052 1.139574,-4.92849 -0.0011,-0.85518 -0.0044,-1.71036 -0.0021,-2.56554 0.0013,-1.18721 0.0038,-2.37441 0.004,-3.56162 0.0021,-2.17406 0.0048,-4.34813 -0.0021,-6.52219 0,0 0.943039,-0.4805 0.943039,-0.4805 z"
           inkscape:connector-curvature="0" />
        <path
           style="opacity:1;fill:#f4ff00;fill-opacity:1;fill-rule:nonzero;stroke:#120f0f;stroke-width:5;stroke-miterlimit:4;stroke-dasharray:none;stroke-opacity:1"
           id="path1192"
           d="m -47.637945,203.44863 c -0.0069,2.25012 -0.0016,4.50025 -0.0016,6.75038 -0.137832,1.75155 0.10568,3.42307 0.479973,5.12516 0.393848,1.54116 0.477792,3.13972 0.554654,4.7222 0.267398,1.50597 0.706821,2.96726 0.915252,4.48502 0.153006,1.43696 0.184864,2.88192 0.195596,4.32566 0.301828,1.11926 0.161686,2.29126 0.100589,3.43302 -0.05887,0.96491 -0.0835,1.93153 -0.09724,2.89801 -0.0091,1.03904 -0.01011,2.07815 -0.0074,3.11723 -0.0013,0.98584 7.94e-4,1.97169 -6.6e-5,2.95753 0.0011,0.90173 0.0011,1.80345 7.94e-4,2.70517 -5.29e-4,0.90605 7.94e-4,1.81209 -5.29e-4,2.71813 0.0026,0.67928 7.93e-4,1.35855 0.0011,2.03783 -0.0011,0.76248 5.29e-4,1.52495 -7.94e-4,2.28743 0.0029,0.56546 -2.4e-5,1.1309 0.0021,1.69636 0,0 -0.949751,0.48392 -0.949751,0.48392 v 0 c 0.0021,-0.56614 -7.94e-4,-1.13227 0.0021,-1.69841 -0.0013,-0.76218 1.13e-4,-1.52436 -7.94e-4,-2.28654 2.64e-4,-0.67968 -0.0013,-1.35936 0.0013,-2.03904 -0.0013,-0.90589 1.93e-4,-1.81178 -5.29e-4,-2.71767 -2.65e-4,-0.90196 -8e-5,-1.80392 5.29e-4,-2.70588 -0.0013,-0.98547 5.5e-5,-1.97093 -0.0021,-2.9564 0.0021,-1.0397 1.72e-4,-2.0794 0.008,-3.11909 0.0113,-0.96805 0.03793,-1.93639 0.0975,-2.90272 0.05644,-1.13996 0.214683,-2.31221 -0.09625,-3.42814 -0.01278,-1.43961 -0.03674,-2.88085 -0.188968,-4.31391 -0.206631,-1.52105 -0.640241,-2.98643 -0.919858,-4.4932 -0.07183,-1.57754 -0.154726,-3.17051 -0.544592,-4.70731 -0.375073,-1.71056 -0.633868,-3.3855 -0.488294,-5.14651 -1.14e-4,-2.24956 0.0053,-4.49914 -0.0016,-6.7487 0,0 0.941138,-0.47953 0.941138,-0.47953 z"
           inkscape:connector-curvature="0" />
        <path
           style="opacity:1;fill:#f4ff00;fill-opacity:1;fill-rule:nonzero;stroke:#120f0f;stroke-width:5;stroke-miterlimit:4;stroke-dasharray:none;stroke-opacity:1"
           id="path1194"
           d="m -73.764843,252.40976 c -2.719504,0.64088 -5.417584,1.36852 -8.121578,2.09079 -2.345315,0.54698 -4.70168,1.18951 -6.918481,2.13867 -1.852885,0.52833 -3.492588,1.4034 -5.357813,1.90483 -0.824627,0.12183 -1.823836,1.04274 -3.34309,1.3188 -0.587165,0.0469 -0.3171,0.0282 -0.810019,0.0587 0,0 0.856425,-0.63056 0.856425,-0.63056 v 0 c 0.487725,-0.0318 0.220633,-0.0104 0.800849,-0.0693 0.272978,-0.0582 1.048173,-0.43487 1.27214,-0.39865 0.107849,0.0174 -0.320651,0.28995 -0.223742,0.2395 2.476635,-1.28913 0.599217,-0.60882 2.285706,-1.16189 1.8542,-0.50018 3.497942,-1.38995 5.343327,-1.91163 2.229715,-0.92311 4.572177,-1.58823 6.923037,-2.12392 2.711497,-0.72148 5.413025,-1.47071 8.149502,-2.07746 0,0 -0.856263,0.62211 -0.856263,0.62211 z"
           inkscape:connector-curvature="0" />
        <path
           style="opacity:1;fill:#f4ff00;fill-opacity:1;fill-rule:nonzero;stroke:#120f0f;stroke-width:5;stroke-miterlimit:4;stroke-dasharray:none;stroke-opacity:1"
           id="path1196"
           d="m -71.777896,253.48277 c -2.251827,1.86478 -4.54469,3.73282 -6.40324,6.00107 -0.800391,1.01081 -1.910177,1.86247 -2.607106,2.94469 -0.39167,1.03642 -0.892249,0.9304 -1.781609,1.64756 -0.213039,0.17179 0.476335,-0.33952 0.749954,-0.33412 0.134443,0.003 -0.139618,0.22986 -0.209426,0.34478 -0.492958,0.62242 -0.117242,0.21189 -1.418214,0.96817 -0.653717,0.38 -0.0063,-0.14316 0.384924,0.0462 0.135636,0.0657 -0.217311,0.20881 -0.325964,0.31319 -0.369094,0.24164 -0.540782,0.45418 -0.7376,0.84119 0,0 -0.969124,0.43701 -0.969124,0.43701 v 0 c 0.214132,-0.40947 0.302088,-0.63561 0.723188,-0.87849 0.893945,-0.70819 -0.321818,0.26622 1.437616,-1.25201 0.301617,-0.26027 0.862203,-0.19156 -0.27728,0.19775 -0.101357,0.0346 0.141046,-0.16124 0.211571,-0.24184 0.464381,-0.80936 -0.05444,-0.0193 1.261004,-1.10679 0.193757,-0.16019 -0.405942,0.30433 -0.636484,0.40459 -0.347681,0.15121 0.991841,-1.00758 0.616222,-0.95603 0.608849,-1.11659 1.854756,-1.94007 2.614483,-2.96489 1.84005,-2.28356 4.146344,-4.1426 6.387611,-6.01893 0,0 0.979474,-0.39307 0.979474,-0.39307 z"
           inkscape:connector-curvature="0" />
        <path
           style="opacity:1;fill:#f4ff00;fill-opacity:1;fill-rule:nonzero;stroke:#120f0f;stroke-width:5;stroke-miterlimit:4;stroke-dasharray:none;stroke-opacity:1"
           id="path1198"
           d="m -68.422543,251.78765 c 1.870485,0.15274 3.594642,0.77117 5.349272,1.3749 0.991407,0.33112 1.92804,0.68858 2.818609,1.23967 0.685559,0.34275 1.294513,0.41015 1.740659,1.09405 0,0 -0.9193,0.5374 -0.9193,0.5374 v 0 c -0.429419,-0.65936 -1.065707,-0.69581 -1.713804,-1.05563 -0.883209,-0.54411 -1.822196,-0.8852 -2.799601,-1.22425 -1.745428,-0.60501 -3.467738,-1.21323 -5.332098,-1.34403 0,0 0.856263,-0.62211 0.856263,-0.62211 z"
           inkscape:connector-curvature="0" />
        <path
           style="opacity:1;fill:#f4ff00;fill-opacity:1;fill-rule:nonzero;stroke:#120f0f;stroke-width:5;stroke-miterlimit:4;stroke-dasharray:none;stroke-opacity:1"
           id="path1200"
           d="m -47.149469,253.88085 c -2.365928,0.93612 -4.532699,2.24194 -6.624024,3.66488 -1.262914,0.83065 -2.590093,1.63603 -3.698697,2.67313 -0.521555,0.55603 -1.107808,1.06768 -1.726962,1.51631 -0.582041,0.55237 -1.273831,1.04885 -1.784496,1.67502 -0.313941,0.53616 -0.808958,0.89364 -1.156602,1.40917 0,0 -0.973648,0.42675 -0.973648,0.42675 v 0 c 0.341942,-0.5334 0.827553,-0.8833 1.154009,-1.41669 0.477266,-0.65577 1.215358,-1.12494 1.772193,-1.70336 0.62239,-0.44501 1.215144,-0.94411 1.73488,-1.50308 1.077733,-1.07147 2.450452,-1.84998 3.703122,-2.69412 2.658867,-1.81607 5.463148,-3.43366 8.423886,-4.70686 0,0 -0.823661,0.65885 -0.823661,0.65885 z"
           inkscape:connector-curvature="0" />
        <path
           style="opacity:1;fill:#f4ff00;fill-opacity:1;fill-rule:nonzero;stroke:#120f0f;stroke-width:5;stroke-miterlimit:4;stroke-dasharray:none;stroke-opacity:1"
           id="path1202"
           d="m -47.636993,254.63601 c -0.0075,2.33742 -0.0046,4.67485 -0.0032,7.01227 0.0024,1.18337 0.0026,2.36675 0.0056,3.55013 0.0013,0.54361 1.3e-4,1.0872 -2e-6,1.63081 7.93e-4,0.54705 -2.09e-4,1.09408 7.93e-4,1.6411 0,0 -0.949251,0.48366 -0.949251,0.48366 v 0 c 0.0011,-0.54726 -2.6e-5,-1.09455 7.94e-4,-1.64184 -1.32e-4,-0.54359 -0.0013,-1.0872 -5e-6,-1.63082 0.003,-1.18525 0.0031,-2.37051 0.0056,-3.55578 0.0013,-2.33634 0.0043,-4.67269 -0.0032,-7.00902 0,0 0.943041,-0.48051 0.943041,-0.48051 z"
           inkscape:connector-curvature="0" />
        <path
           style="opacity:1;fill:#f4ff00;fill-opacity:1;fill-rule:nonzero;stroke:#120f0f;stroke-width:5;stroke-miterlimit:4;stroke-dasharray:none;stroke-opacity:1"
           id="path1204"
           d="m -43.833748,254.99489 c 1.883397,0.004 3.766796,0.001 5.650196,7.9e-4 0.842666,-0.001 1.685335,-0.001 2.528001,-0.002 0,0 -0.859941,0.62479 -0.859941,0.62479 v 0 c -0.840782,-0.001 -1.681565,-8e-4 -2.522347,-0.002 -1.884056,-7.9e-4 -3.768116,-0.003 -5.652172,7.9e-4 0,0 0.856263,-0.62211 0.856263,-0.62211 z"
           inkscape:connector-curvature="0" />
      </g>
      <path
         inkscape:connector-curvature="0"
         id="path1226"
         d="m -176.7706,135.6556 c -12.32077,-4.28474 -23.65314,-15.09201 -28.10162,-26.79948 -4.24416,-11.169702 -1.94357,-18.904544 7.22591,-24.294351 4.68193,-2.752033 6.06853,-3.024293 15.4025,-3.024293 10.08174,0 10.43171,0.08655 20.43779,5.054172 12.15445,6.034209 20.97011,14.041202 23.89686,21.704782 1.72261,4.5106 1.76132,5.34698 0.36281,7.83861 -2.43981,4.34681 -5.94141,5.64074 -13.15183,4.85992 l -6.3055,-0.68282 0.78827,3.59785 c 1.5131,6.90607 1.60031,6.78054 -4.94919,7.12373 -5.71438,0.29943 -6.10125,0.49231 -6.41447,3.19809 -0.41945,3.62345 -2.11238,3.88568 -9.19153,1.42379 z"
         style="opacity:1;fill:#ffff00;fill-opacity:1;fill-rule:nonzero;stroke:#120f0f;stroke-width:3;stroke-miterlimit:4;stroke-dasharray:none;stroke-opacity:1" />
      <ellipse
         ry="6.4144688"
         rx="4.2763124"
         cy="79.977135"
         cx="-255.50966"
         id="path1230"
         style="opacity:1;fill:#000000;fill-opacity:1;fill-rule:nonzero;stroke:#130909;stroke-width:2;stroke-miterlimit:4;stroke-dasharray:none;stroke-opacity:1" />
      <path
         inkscape:connector-curvature="0"
         d="m -183.89327,113.01557 c 2.43048,0.61702 4.34461,2.18109 6.3701,3.55613 0.90599,0.88245 2.24597,1.46685 2.6805,2.71363 0.22841,0.36627 0.10502,0.19817 0.3655,0.50769 0,0 -0.91229,0.54768 -0.91229,0.54768 v 0 c -0.27155,-0.32954 -0.14174,-0.15021 -0.3839,-0.54196 -0.40801,-1.22387 -1.76301,-1.79269 -2.63529,-2.66132 -2.01824,-1.379 -3.93434,-2.92527 -6.36325,-3.53322 0,0 0.87863,-0.58863 0.87863,-0.58863 z"
         id="path1232"
         style="opacity:1;fill:#000000;fill-opacity:1;fill-rule:nonzero;stroke:#130909;stroke-width:2;stroke-miterlimit:4;stroke-dasharray:none;stroke-opacity:1" />
      <path
         inkscape:connector-curvature="0"
         id="path1234"
         d="m -186.43147,98.720674 c 5.6054,3.085776 12.32495,4.934356 16.27871,10.323516 2.28851,0.81093 6.264,7.31473 1.87435,3.14241 -3.97564,-4.84456 -9.03329,-8.7011 -14.93888,-10.8482 -1.16686,-0.62149 -3.05095,-1.06242 -3.21418,-2.617726 z"
         style="opacity:1;fill:#000000;fill-opacity:1;fill-rule:nonzero;stroke:#130909;stroke-width:2;stroke-miterlimit:4;stroke-dasharray:none;stroke-opacity:1" />
      <path
         inkscape:connector-curvature="0"
         id="path1236"
         d="m -171.62019,92.60998 c 10.11242,3.790495 18.75103,10.72093 26.51292,18.03486 -0.47347,1.77749 -5.2952,-3.63442 -7.08843,-4.93626 -5.85639,-5.18587 -12.62101,-9.411245 -19.80352,-12.376324 l 0.006,-0.284406 z"
         style="opacity:1;fill:#000000;fill-opacity:1;fill-rule:nonzero;stroke:#130909;stroke-width:2;stroke-miterlimit:4;stroke-dasharray:none;stroke-opacity:1" />
    </g>
  </g>
</svg>
