<?xml version="1.0" encoding="UTF-8" standalone="no"?>
<!-- Created with Inkscape (http://www.inkscape.org/) -->

<svg
   xmlns:dc="http://purl.org/dc/elements/1.1/"
   xmlns:cc="http://creativecommons.org/ns#"
   xmlns:rdf="http://www.w3.org/1999/02/22-rdf-syntax-ns#"
   xmlns:svg="http://www.w3.org/2000/svg"
   xmlns="http://www.w3.org/2000/svg"
   xmlns:sodipodi="http://sodipodi.sourceforge.net/DTD/sodipodi-0.dtd"
   xmlns:inkscape="http://www.inkscape.org/namespaces/inkscape"
   width="210mm"
   height="297mm"
   viewBox="0 0 210 297"
   version="1.1"
   id="svg8"
   inkscape:version="0.92.2 5c3e80d, 2017-08-06"
   sodipodi:docname="cupcake.svg"
   inkscape:export-filename="/Users/jayantha/Desktop/Personal/Youtube_Channel/Art-works/Components/cupcake.png"
   inkscape:export-xdpi="96"
   inkscape:export-ydpi="96">
  <defs
     id="defs2" />
  <sodipodi:namedview
     id="base"
     pagecolor="#ffffff"
     bordercolor="#666666"
     borderopacity="1.0"
     inkscape:pageopacity="0.0"
     inkscape:pageshadow="2"
     inkscape:zoom="0.7"
     inkscape:cx="256.73088"
     inkscape:cy="524.73838"
     inkscape:document-units="mm"
     inkscape:current-layer="layer1"
     showgrid="false"
     inkscape:window-width="1440"
     inkscape:window-height="782"
     inkscape:window-x="0"
     inkscape:window-y="1"
     inkscape:window-maximized="1" />
  <metadata
     id="metadata5">
    <rdf:RDF>
      <cc:Work
         rdf:about="">
        <dc:format>image/svg+xml</dc:format>
        <dc:type
           rdf:resource="http://purl.org/dc/dcmitype/StillImage" />
        <dc:title></dc:title>
      </cc:Work>
    </rdf:RDF>
  </metadata>
  <g
     inkscape:label="Layer 1"
     inkscape:groupmode="layer"
     id="layer1">
    <g
       id="g910">
      <path
         sodipodi:nodetypes="ccccc"
         inkscape:connector-curvature="0"
         id="rect815"
         d="m 38.55357,168.48809 h 108.1012 l -24.19048,70.5212 -54.428577,0.53833 z"
         style="opacity:1;fill:#673177;fill-opacity:1;fill-rule:nonzero;stroke:none;stroke-width:4.21936369;stroke-miterlimit:4;stroke-dasharray:none;stroke-opacity:1" />
      <rect
         transform="matrix(1,0,0.25881905,0.96592583,0,0)"
         ry="3.2283053"
         y="184.60577"
         x="13.571849"
         height="51.652885"
         width="9.0714283"
         id="rect818"
         style="opacity:1;fill:#fdf7ff;fill-opacity:1;fill-rule:nonzero;stroke:none;stroke-width:4.21827078;stroke-miterlimit:4;stroke-dasharray:none;stroke-opacity:1" />
      <rect
         style="opacity:1;fill:#fdf7ff;fill-opacity:1;fill-rule:nonzero;stroke:none;stroke-width:4.21827078;stroke-miterlimit:4;stroke-dasharray:none;stroke-opacity:1"
         id="rect820"
         width="9.0714283"
         height="51.652885"
         x="-175.26503"
         y="184.60577"
         ry="3.2283053"
         transform="matrix(-1,0,-0.25881905,0.96592583,0,0)" />
      <rect
         transform="scale(-1,1)"
         ry="3.1183035"
         y="178.31549"
         x="-99.547318"
         height="49.892857"
         width="9.0714283"
         id="rect822"
         style="opacity:1;fill:#fdf7ff;fill-opacity:1;fill-rule:nonzero;stroke:none;stroke-width:4.14578104;stroke-miterlimit:4;stroke-dasharray:none;stroke-opacity:1" />
      <path
         inkscape:connector-curvature="0"
         id="path824"
         d="m 89.427061,82.777066 a 12.320811,11.757759 0 0 0 -12.286713,11.104157 19.660869,17.862747 0 0 0 -10.614051,10.786047 23.068753,18.541082 0 0 0 -3.051787,-0.18362 23.068753,18.541082 0 0 0 -23.068856,18.54104 23.068753,18.541082 0 0 0 0.08709,1.50332 23.593042,23.515519 0 0 0 -14.242865,21.56006 23.593042,23.515519 0 0 0 6.325424,15.99407 22.544462,12.436091 0 0 0 -1.606713,4.58201 22.544462,12.436091 0 0 0 22.544513,12.43591 22.544462,12.436091 0 0 0 7.838237,-0.78458 22.806606,17.410528 0 0 0 14.443928,3.95013 22.806606,17.410528 0 0 0 8.686211,-1.32712 22.544462,14.018866 0 0 0 10.974609,1.77939 22.544462,14.018866 0 0 0 7.565852,-0.82787 23.855187,21.028301 0 0 0 10.5223,2.18467 23.855187,21.028301 0 0 0 16.58968,-5.91995 20.447303,11.079427 0 0 0 18.79994,-11.03831 20.447303,11.079427 0 0 0 -0.26665,-1.74631 26.476639,17.410528 0 0 0 7.08236,-11.82043 26.476639,17.410528 0 0 0 -2.707,-7.64245 22.020172,20.123857 0 0 0 3.23135,-10.44632 22.020172,20.123857 0 0 0 -19.33073,-19.95564 24.117333,23.063296 0 0 0 -22.61261,-15.0917 24.117333,23.063296 0 0 0 -5.20184,0.57252 9.9615059,8.3660977 0 0 0 -7.84935,-3.28333 12.320811,11.757759 0 0 0 0.46843,-3.168024 12.320811,11.757759 0 0 0 -12.320759,-11.75767 z"
         style="opacity:1;fill:#f9faca;fill-opacity:1;fill-rule:nonzero;stroke:#ffdfdf;stroke-width:3.22060084;stroke-miterlimit:4;stroke-dasharray:none;stroke-opacity:1" />
      <rect
         transform="rotate(20.156132)"
         rx="2.293874"
         ry="2.1031578"
         y="88.116058"
         x="91.978622"
         height="5.2578812"
         width="21.166569"
         id="rect855"
         style="opacity:1;fill:#cacdfa;fill-opacity:1;fill-rule:nonzero;stroke:none;stroke-width:2.00178766;stroke-miterlimit:4;stroke-dasharray:none;stroke-opacity:1" />
      <rect
         transform="rotate(-41.432581)"
         style="opacity:1;fill:#cacdfa;fill-opacity:1;fill-rule:nonzero;stroke:none;stroke-width:2.00178766;stroke-miterlimit:4;stroke-dasharray:none;stroke-opacity:1"
         id="rect857"
         width="21.166569"
         height="5.2578812"
         x="-53.952854"
         y="147.17624"
         ry="2.1031578"
         rx="2.293874" />
      <rect
         transform="rotate(17.58594)"
         rx="2.293874"
         ry="2.1031578"
         y="131.73793"
         x="92.515411"
         height="5.2578812"
         width="21.166569"
         id="rect859"
         style="opacity:1;fill:#cacdfa;fill-opacity:1;fill-rule:nonzero;stroke:none;stroke-width:2.00178766;stroke-miterlimit:4;stroke-dasharray:none;stroke-opacity:1" />
      <rect
         transform="rotate(34.85794)"
         style="opacity:1;fill:#cacdfa;fill-opacity:1;fill-rule:nonzero;stroke:none;stroke-width:2.00178766;stroke-miterlimit:4;stroke-dasharray:none;stroke-opacity:1"
         id="rect861"
         width="21.166569"
         height="5.2578812"
         x="143.16959"
         y="35.878811"
         ry="2.1031578"
         rx="2.293874" />
      <rect
         transform="rotate(-19.674286)"
         rx="2.293874"
         ry="2.1031578"
         y="165.48164"
         x="50.985497"
         height="5.2578812"
         width="21.166569"
         id="rect863"
         style="opacity:1;fill:#cacdfa;fill-opacity:1;fill-rule:nonzero;stroke:none;stroke-width:2.00178766;stroke-miterlimit:4;stroke-dasharray:none;stroke-opacity:1" />
      <rect
         transform="rotate(39.791195)"
         style="opacity:1;fill:#cacdfa;fill-opacity:1;fill-rule:nonzero;stroke:none;stroke-width:2.00178766;stroke-miterlimit:4;stroke-dasharray:none;stroke-opacity:1"
         id="rect865"
         width="21.166569"
         height="5.2578812"
         x="180.18214"
         y="42.068653"
         ry="2.1031578"
         rx="2.293874" />
      <rect
         style="opacity:1;fill:#cacdfa;fill-opacity:1;fill-rule:nonzero;stroke:none;stroke-width:2.00178766;stroke-miterlimit:4;stroke-dasharray:none;stroke-opacity:1"
         id="rect867"
         width="21.166569"
         height="5.2578812"
         x="123.35133"
         y="110.54178"
         ry="2.1031578"
         rx="2.293874"
         transform="rotate(20.156132)" />
      <rect
         style="opacity:1;fill:#cacdfa;fill-opacity:1;fill-rule:nonzero;stroke:none;stroke-width:2.00178766;stroke-miterlimit:4;stroke-dasharray:none;stroke-opacity:1"
         id="rect869"
         width="21.166569"
         height="5.2578812"
         x="165.37672"
         y="74.149284"
         ry="2.1031578"
         rx="2.293874"
         transform="rotate(20.156132)" />
      <path
         transform="scale(0.26458333)"
         inkscape:connector-curvature="0"
         id="path871"
         d="m 444.01659,602.28909 c -30.70481,-25.70489 -30.71428,-25.71423 -30.71428,-30.29341 0,-4.60003 5.18837,-10.21438 9.43939,-10.21438 1.55466,0 14.85252,10.01575 29.55078,22.25721 22.78665,18.97789 26.72411,22.83512 26.72411,26.17956 0,4.82445 -5.34331,10.15737 -10.09207,10.07243 -2.31137,-0.0413 -10.67269,-6.08422 -24.90793,-18.00141 z"
         style="opacity:1;fill:#0000ff;fill-opacity:1;fill-rule:nonzero;stroke:none;stroke-width:26.9966259;stroke-miterlimit:4;stroke-dasharray:none;stroke-opacity:1" />
      <path
         transform="scale(0.26458333)"
         inkscape:connector-curvature="0"
         id="path873"
         d="m 399.49769,538.2432 c -3.35933,-2.35297 -5.31373,-8.20247 -4.06018,-12.15207 0.92387,-2.91084 5.46797,-4.8635 39.86229,-17.12936 29.68204,-10.58534 31.88972,-10.74348 35.02063,-2.50854 1.30285,3.42674 0.079,11.04236 -1.77453,11.04236 -0.29778,0 -14.87168,5.14286 -32.38645,11.42857 -17.51477,6.28571 -32.25115,11.42857 -32.74751,11.42857 -0.49636,0 -2.25777,-0.94929 -3.91425,-2.10953 z"
         style="opacity:1;fill:#ff0011;fill-opacity:1;fill-rule:nonzero;stroke:none;stroke-width:26.9966259;stroke-miterlimit:4;stroke-dasharray:none;stroke-opacity:1" />
      <path
         transform="scale(0.26458333)"
         inkscape:connector-curvature="0"
         id="path875"
         d="m 520.82043,510.48713 c -16.68646,-6.15067 -31.37433,-12.04228 -32.63971,-13.09245 -1.63384,-1.35597 -2.0732,-3.31129 -1.51583,-6.74601 1.02857,-6.33832 3.28258,-8.87009 7.88377,-8.8553 3.43545,0.011 57.78559,19.2688 64.45515,22.83823 5.9446,3.18145 2.07714,17.21452 -4.71108,17.09414 -1.7233,-0.0306 -16.78584,-5.08794 -33.4723,-11.23861 z"
         style="opacity:1;fill:#00ff00;fill-opacity:1;fill-rule:nonzero;stroke:none;stroke-width:26.9966259;stroke-miterlimit:4;stroke-dasharray:none;stroke-opacity:1" />
      <path
         transform="scale(0.26458333)"
         inkscape:connector-curvature="0"
         id="path877"
         d="m 406.74702,472.25186 c -41.9421,-28.71841 -47.01245,-32.63948 -47.48253,-36.7198 -0.57151,-4.96082 4.4801,-10.89361 9.27563,-10.89361 4.17092,0 58.60267,37.77524 59.7809,41.48751 1.46765,4.62416 -4.43405,12.7982 -9.24037,12.7982 -1.42395,0 -6.97409,-3.00253 -12.33363,-6.6723 z"
         style="opacity:1;fill:#ffbe00;fill-opacity:1;fill-rule:nonzero;stroke:none;stroke-width:26.9966259;stroke-miterlimit:4;stroke-dasharray:none;stroke-opacity:1" />
      <path
         transform="scale(0.26458333)"
         inkscape:connector-curvature="0"
         id="path881"
         d="m 241.38912,464.16134 c -19.63303,-7.3411 -31.71887,-12.61276 -32.60152,-14.22032 -2.04502,-3.72456 -0.0333,-10.77915 3.78787,-13.28286 3.10373,-2.03364 5.15843,-1.49539 32.88421,8.61436 38.62204,14.0829 37.03389,13.25212 37.56687,19.65183 0.48367,5.80771 -3.42803,11.23914 -7.93853,11.0227 -1.375,-0.066 -16.5395,-5.36955 -33.6989,-11.78571 z"
         style="opacity:1;fill:#008aff;fill-opacity:1;fill-rule:nonzero;stroke:none;stroke-width:26.9966259;stroke-miterlimit:4;stroke-dasharray:none;stroke-opacity:1" />
      <path
         transform="scale(0.26458333)"
         inkscape:connector-curvature="0"
         id="path883"
         d="m 222.51981,559.42984 c -6.52054,-7.03578 -5.56272,-8.4491 22.56821,-33.30098 22.41452,-19.80178 26.65276,-22.97438 30.2159,-22.61857 5.75318,0.57451 10.46588,7.00224 8.63232,11.77376 -1.85934,4.83859 -51.29995,47.92582 -54.99268,47.92582 -1.60629,0 -4.49698,-1.70101 -6.42375,-3.78003 z"
         style="opacity:1;fill:#0004ff;fill-opacity:1;fill-rule:nonzero;stroke:none;stroke-width:26.9966259;stroke-miterlimit:4;stroke-dasharray:none;stroke-opacity:1" />
      <path
         transform="scale(0.26458333)"
         inkscape:connector-curvature="0"
         id="path885"
         d="m 242.58802,619.61008 c -0.78571,-0.28439 -14.76109,-4.76326 -31.05639,-9.95303 -32.54375,-10.36462 -33.9704,-11.2802 -31.10507,-19.96223 1.56101,-4.72991 3.78497,-6.48495 8.21762,-6.48495 4.20008,0 62.49984,18.94812 65.01527,21.13074 5.45825,4.73607 1.3133,16.10771 -5.79529,15.89934 -2.11616,-0.062 -4.49042,-0.34547 -5.27614,-0.62987 z"
         style="opacity:1;fill:#ff00cc;fill-opacity:1;fill-rule:nonzero;stroke:none;stroke-width:26.9966259;stroke-miterlimit:4;stroke-dasharray:none;stroke-opacity:1" />
      <path
         transform="scale(0.26458333)"
         inkscape:connector-curvature="0"
         id="path887"
         d="m 323.40617,584.59602 c -16.83573,-6.2267 -31.24644,-11.9573 -32.0238,-12.73466 -2.30429,-2.30429 -1.61227,-9.82343 1.18897,-12.91876 1.4313,-1.58157 4.06278,-2.87558 5.84773,-2.87558 4.25485,0 62.00115,21.26705 65.24038,24.02701 2.89155,2.46371 3.19609,6.26694 0.85757,10.70976 -2.06142,3.91637 -4.01051,5.23386 -7.64328,5.16649 -1.57143,-0.0291 -16.63183,-5.14756 -33.46757,-11.37426 z"
         style="opacity:1;fill:#f4ff00;fill-opacity:1;fill-rule:nonzero;stroke:none;stroke-width:26.9966259;stroke-miterlimit:4;stroke-dasharray:none;stroke-opacity:1" />
    </g>
  </g>
</svg>
