<?xml version="1.0" encoding="UTF-8" standalone="no"?>
<!-- Created with Inkscape (http://www.inkscape.org/) -->

<svg
   xmlns:dc="http://purl.org/dc/elements/1.1/"
   xmlns:cc="http://creativecommons.org/ns#"
   xmlns:rdf="http://www.w3.org/1999/02/22-rdf-syntax-ns#"
   xmlns:svg="http://www.w3.org/2000/svg"
   xmlns="http://www.w3.org/2000/svg"
   xmlns:sodipodi="http://sodipodi.sourceforge.net/DTD/sodipodi-0.dtd"
   xmlns:inkscape="http://www.inkscape.org/namespaces/inkscape"
   width="210mm"
   height="297mm"
   viewBox="0 0 210 297"
   version="1.1"
   id="svg1299"
   inkscape:version="0.92.2 5c3e80d, 2017-08-06"
   sodipodi:docname="flower.svg">
  <defs
     id="defs1293" />
  <sodipodi:namedview
     id="base"
     pagecolor="#ffffff"
     bordercolor="#666666"
     borderopacity="1.0"
     inkscape:pageopacity="0.0"
     inkscape:pageshadow="2"
     inkscape:zoom="0.98994949"
     inkscape:cx="418.87617"
     inkscape:cy="552.5353"
     inkscape:document-units="mm"
     inkscape:current-layer="layer1"
     showgrid="false"
     inkscape:window-width="1440"
     inkscape:window-height="782"
     inkscape:window-x="0"
     inkscape:window-y="1"
     inkscape:window-maximized="1" />
  <metadata
     id="metadata1296">
    <rdf:RDF>
      <cc:Work
         rdf:about="">
        <dc:format>image/svg+xml</dc:format>
        <dc:type
           rdf:resource="http://purl.org/dc/dcmitype/StillImage" />
        <dc:title></dc:title>
      </cc:Work>
    </rdf:RDF>
  </metadata>
  <g
     inkscape:label="Layer 1"
     inkscape:groupmode="layer"
     id="layer1">
    <g
       id="g1327">
      <path
         sodipodi:nodetypes="caaac"
         inkscape:connector-curvature="0"
         id="rect1304"
         d="m 100.63615,152.24047 c 0,0 22.4297,25.59604 18.42098,39.58764 -2.01818,7.04402 -11.10577,12.41855 -18.42098,11.99539 -6.250153,-0.36155 -12.818587,-5.95169 -14.452226,-11.99539 -3.66561,-13.56105 14.452226,-39.58764 14.452226,-39.58764 z"
         style="opacity:1;fill:#9c303f;fill-opacity:1;fill-rule:nonzero;stroke:none;stroke-width:2;stroke-miterlimit:4;stroke-dasharray:none;stroke-opacity:1" />
      <path
         inkscape:connector-curvature="0"
         d="m 99.86906,166.1018 c -0.0019,0.61299 -0.0019,1.22598 -0.0019,1.83897 1.54e-4,0.73089 -5.29e-4,1.46178 3.2e-5,2.19267 0.0016,0.78848 -0.193225,1.54835 -0.353558,2.31375 -0.106121,0.74768 -0.296949,1.47454 -0.481478,2.20523 -0.156546,0.64193 -0.325487,1.28136 -0.523531,1.91196 -0.143224,0.60968 -0.359563,1.19598 -0.56651,1.78652 -0.210709,0.56223 -0.437467,1.11862 -0.640842,1.68347 -0.178744,0.48394 -0.407458,0.94405 -0.633163,1.40709 -0.221846,0.432 -0.425408,0.87278 -0.639768,1.30873 -0.191739,0.30387 -0.317066,0.6425 -0.483529,0.95878 -0.0364,0.0842 -0.08987,0.15794 -0.134887,0.23726 0,0 -0.1714,0.0766 -0.1714,0.0766 v 0 c 0.04406,-0.0804 0.100272,-0.15192 0.135742,-0.23732 0.171685,-0.31341 0.28952,-0.65746 0.485733,-0.95905 0.214899,-0.43579 0.417142,-0.8772 0.640005,-1.30876 0.225219,-0.46294 0.454962,-0.92214 0.634432,-1.40547 0.202305,-0.56522 0.430604,-1.12112 0.641093,-1.68345 0.207732,-0.59022 0.424299,-1.17636 0.566994,-1.78607 0.19871,-0.63033 0.367734,-1.2696 0.524698,-1.91134 0.184258,-0.73068 0.377386,-1.45674 0.482039,-2.20469 0.160385,-0.76424 0.356576,-1.5227 0.354759,-2.31012 5.29e-4,-0.7309 -1.19e-4,-1.4618 3.4e-5,-2.1927 1.43e-4,-0.61238 1.32e-4,-1.22476 -0.0019,-1.83714 0,0 0.166693,-0.0849 0.166693,-0.0849 z"
         id="path1317"
         style="opacity:1;fill:#ffff00;fill-opacity:1;fill-rule:nonzero;stroke:none;stroke-width:2;stroke-miterlimit:4;stroke-dasharray:none;stroke-opacity:1" />
      <path
         inkscape:connector-curvature="0"
         d="m 101.56995,169.88157 c -0.002,0.71428 -0.002,1.42857 -0.003,2.14286 -5.3e-4,1.1746 -8e-4,2.3492 -5.3e-4,3.52379 -2e-4,1.17179 1e-4,2.34357 6e-5,3.51536 -8e-5,1.11422 7e-5,2.22845 5.2e-4,3.34267 -10e-5,0.97217 5.3e-4,1.94434 5.3e-4,2.91651 1.3e-4,0.72701 10e-4,1.45403 10e-4,2.18104 -0.008,0.58412 -0.007,1.16486 0.0534,1.74613 0.0612,0.52331 0.10228,1.04893 0.12381,1.57532 0.0108,0.30467 0.0135,0.6095 0.0148,0.91432 -0.004,0.10354 -0.0126,0.19352 0.0505,0.27957 0,0 -0.16193,0.0957 -0.16193,0.0957 v 0 c -0.0643,-0.0907 -0.0625,-0.18125 -0.0556,-0.2901 5.3e-4,-0.30495 -0.002,-0.60992 -0.0124,-0.91472 -0.0209,-0.52624 -0.0604,-1.0518 -0.1221,-1.57491 -0.0604,-0.58183 -0.0641,-1.16311 -0.0542,-1.74787 6e-5,-0.72739 0.001,-1.45478 0.001,-2.18217 0,-0.97232 5.3e-4,-1.94463 5.3e-4,-2.91695 5.2e-4,-1.11439 5.2e-4,-2.22877 5.2e-4,-3.34316 -4e-5,-1.17181 2.6e-4,-2.34361 6e-5,-3.51542 2.7e-4,-1.17441 8e-5,-2.34883 -5.3e-4,-3.52324 -5.3e-4,-0.71326 -0.001,-1.42652 -0.003,-2.13978 0,0 0.16669,-0.0849 0.16669,-0.0849 z"
         id="path1319"
         style="opacity:1;fill:#ffff00;fill-opacity:1;fill-rule:nonzero;stroke:none;stroke-width:2;stroke-miterlimit:4;stroke-dasharray:none;stroke-opacity:1" />
      <path
         inkscape:connector-curvature="0"
         d="m 103.64831,161.82315 c -7.9e-4,0.60263 -0.002,1.20525 -10e-4,1.80787 -2.6e-4,0.67466 -5e-5,1.34932 -1.1e-4,2.02398 -0.0397,0.79481 0.13282,1.55811 0.38236,2.30645 0.24046,0.88819 0.55012,1.75611 0.90353,2.60567 0.36545,0.91202 0.82608,1.77993 1.27388,2.65298 0.40654,0.82393 0.94035,1.5754 1.46568,2.32622 0.49419,0.63254 0.92823,1.30822 1.41212,1.94822 0.27386,0.46101 0.6251,0.8665 0.8898,1.3313 0.0652,0.14388 0.19617,0.23191 0.26928,0.36892 0,0 -0.1629,0.0933 -0.1629,0.0933 v 0 c -0.0721,-0.13693 -0.20392,-0.22513 -0.26707,-0.36956 -0.26408,-0.46411 -0.6129,-0.8704 -0.88604,-1.33073 -0.48406,-0.6401 -0.9175,-1.31647 -1.41176,-1.94922 -0.52484,-0.75213 -1.06006,-1.50372 -1.46595,-2.32893 -0.44688,-0.874 -0.91011,-1.74116 -1.27515,-2.65391 -0.35329,-0.85006 -0.66393,-1.71807 -0.9044,-2.60668 -0.25002,-0.74989 -0.42681,-1.51402 -0.38671,-2.3108 -7e-5,-0.67461 1.8e-4,-1.34923 -1.2e-4,-2.02385 5.3e-4,-0.60226 -2.6e-4,-1.20453 -0.001,-1.80679 0,0 0.16567,-0.0844 0.16567,-0.0844 z"
         id="path1321"
         style="opacity:1;fill:#ffff00;fill-opacity:1;fill-rule:nonzero;stroke:none;stroke-width:2;stroke-miterlimit:4;stroke-dasharray:none;stroke-opacity:1" />
    </g>
    <g
       id="g1337"
       transform="rotate(90,100.63615,152.24047)">
      <path
         style="opacity:1;fill:#9c303f;fill-opacity:1;fill-rule:nonzero;stroke:none;stroke-width:2;stroke-miterlimit:4;stroke-dasharray:none;stroke-opacity:1"
         d="m 100.63615,152.24047 c 0,0 22.4297,25.59604 18.42098,39.58764 -2.01818,7.04402 -11.10577,12.41855 -18.42098,11.99539 -6.250153,-0.36155 -12.818587,-5.95169 -14.452226,-11.99539 -3.66561,-13.56105 14.452226,-39.58764 14.452226,-39.58764 z"
         id="path1329"
         inkscape:connector-curvature="0"
         sodipodi:nodetypes="caaac" />
      <path
         style="opacity:1;fill:#ffff00;fill-opacity:1;fill-rule:nonzero;stroke:none;stroke-width:2;stroke-miterlimit:4;stroke-dasharray:none;stroke-opacity:1"
         id="path1331"
         d="m 99.86906,166.1018 c -0.0019,0.61299 -0.0019,1.22598 -0.0019,1.83897 1.54e-4,0.73089 -5.29e-4,1.46178 3.2e-5,2.19267 0.0016,0.78848 -0.193225,1.54835 -0.353558,2.31375 -0.106121,0.74768 -0.296949,1.47454 -0.481478,2.20523 -0.156546,0.64193 -0.325487,1.28136 -0.523531,1.91196 -0.143224,0.60968 -0.359563,1.19598 -0.56651,1.78652 -0.210709,0.56223 -0.437467,1.11862 -0.640842,1.68347 -0.178744,0.48394 -0.407458,0.94405 -0.633163,1.40709 -0.221846,0.432 -0.425408,0.87278 -0.639768,1.30873 -0.191739,0.30387 -0.317066,0.6425 -0.483529,0.95878 -0.0364,0.0842 -0.08987,0.15794 -0.134887,0.23726 0,0 -0.1714,0.0766 -0.1714,0.0766 v 0 c 0.04406,-0.0804 0.100272,-0.15192 0.135742,-0.23732 0.171685,-0.31341 0.28952,-0.65746 0.485733,-0.95905 0.214899,-0.43579 0.417142,-0.8772 0.640005,-1.30876 0.225219,-0.46294 0.454962,-0.92214 0.634432,-1.40547 0.202305,-0.56522 0.430604,-1.12112 0.641093,-1.68345 0.207732,-0.59022 0.424299,-1.17636 0.566994,-1.78607 0.19871,-0.63033 0.367734,-1.2696 0.524698,-1.91134 0.184258,-0.73068 0.377386,-1.45674 0.482039,-2.20469 0.160385,-0.76424 0.356576,-1.5227 0.354759,-2.31012 5.29e-4,-0.7309 -1.19e-4,-1.4618 3.4e-5,-2.1927 1.43e-4,-0.61238 1.32e-4,-1.22476 -0.0019,-1.83714 0,0 0.166693,-0.0849 0.166693,-0.0849 z"
         inkscape:connector-curvature="0" />
      <path
         style="opacity:1;fill:#ffff00;fill-opacity:1;fill-rule:nonzero;stroke:none;stroke-width:2;stroke-miterlimit:4;stroke-dasharray:none;stroke-opacity:1"
         id="path1333"
         d="m 101.56995,169.88157 c -0.002,0.71428 -0.002,1.42857 -0.003,2.14286 -5.3e-4,1.1746 -8e-4,2.3492 -5.3e-4,3.52379 -2e-4,1.17179 1e-4,2.34357 6e-5,3.51536 -8e-5,1.11422 7e-5,2.22845 5.2e-4,3.34267 -10e-5,0.97217 5.3e-4,1.94434 5.3e-4,2.91651 1.3e-4,0.72701 10e-4,1.45403 10e-4,2.18104 -0.008,0.58412 -0.007,1.16486 0.0534,1.74613 0.0612,0.52331 0.10228,1.04893 0.12381,1.57532 0.0108,0.30467 0.0135,0.6095 0.0148,0.91432 -0.004,0.10354 -0.0126,0.19352 0.0505,0.27957 0,0 -0.16193,0.0957 -0.16193,0.0957 v 0 c -0.0643,-0.0907 -0.0625,-0.18125 -0.0556,-0.2901 5.3e-4,-0.30495 -0.002,-0.60992 -0.0124,-0.91472 -0.0209,-0.52624 -0.0604,-1.0518 -0.1221,-1.57491 -0.0604,-0.58183 -0.0641,-1.16311 -0.0542,-1.74787 6e-5,-0.72739 0.001,-1.45478 0.001,-2.18217 0,-0.97232 5.3e-4,-1.94463 5.3e-4,-2.91695 5.2e-4,-1.11439 5.2e-4,-2.22877 5.2e-4,-3.34316 -4e-5,-1.17181 2.6e-4,-2.34361 6e-5,-3.51542 2.7e-4,-1.17441 8e-5,-2.34883 -5.3e-4,-3.52324 -5.3e-4,-0.71326 -0.001,-1.42652 -0.003,-2.13978 0,0 0.16669,-0.0849 0.16669,-0.0849 z"
         inkscape:connector-curvature="0" />
      <path
         style="opacity:1;fill:#ffff00;fill-opacity:1;fill-rule:nonzero;stroke:none;stroke-width:2;stroke-miterlimit:4;stroke-dasharray:none;stroke-opacity:1"
         id="path1335"
         d="m 103.64831,161.82315 c -7.9e-4,0.60263 -0.002,1.20525 -10e-4,1.80787 -2.6e-4,0.67466 -5e-5,1.34932 -1.1e-4,2.02398 -0.0397,0.79481 0.13282,1.55811 0.38236,2.30645 0.24046,0.88819 0.55012,1.75611 0.90353,2.60567 0.36545,0.91202 0.82608,1.77993 1.27388,2.65298 0.40654,0.82393 0.94035,1.5754 1.46568,2.32622 0.49419,0.63254 0.92823,1.30822 1.41212,1.94822 0.27386,0.46101 0.6251,0.8665 0.8898,1.3313 0.0652,0.14388 0.19617,0.23191 0.26928,0.36892 0,0 -0.1629,0.0933 -0.1629,0.0933 v 0 c -0.0721,-0.13693 -0.20392,-0.22513 -0.26707,-0.36956 -0.26408,-0.46411 -0.6129,-0.8704 -0.88604,-1.33073 -0.48406,-0.6401 -0.9175,-1.31647 -1.41176,-1.94922 -0.52484,-0.75213 -1.06006,-1.50372 -1.46595,-2.32893 -0.44688,-0.874 -0.91011,-1.74116 -1.27515,-2.65391 -0.35329,-0.85006 -0.66393,-1.71807 -0.9044,-2.60668 -0.25002,-0.74989 -0.42681,-1.51402 -0.38671,-2.3108 -7e-5,-0.67461 1.8e-4,-1.34923 -1.2e-4,-2.02385 5.3e-4,-0.60226 -2.6e-4,-1.20453 -0.001,-1.80679 0,0 0.16567,-0.0844 0.16567,-0.0844 z"
         inkscape:connector-curvature="0" />
    </g>
    <g
       id="g1347"
       transform="rotate(-180,100.63615,152.24047)">
      <path
         style="opacity:1;fill:#9c303f;fill-opacity:1;fill-rule:nonzero;stroke:none;stroke-width:2;stroke-miterlimit:4;stroke-dasharray:none;stroke-opacity:1"
         d="m 100.63615,152.24047 c 0,0 22.4297,25.59604 18.42098,39.58764 -2.01818,7.04402 -11.10577,12.41855 -18.42098,11.99539 -6.250153,-0.36155 -12.818587,-5.95169 -14.452226,-11.99539 -3.66561,-13.56105 14.452226,-39.58764 14.452226,-39.58764 z"
         id="path1339"
         inkscape:connector-curvature="0"
         sodipodi:nodetypes="caaac" />
      <path
         style="opacity:1;fill:#ffff00;fill-opacity:1;fill-rule:nonzero;stroke:none;stroke-width:2;stroke-miterlimit:4;stroke-dasharray:none;stroke-opacity:1"
         id="path1341"
         d="m 99.86906,166.1018 c -0.0019,0.61299 -0.0019,1.22598 -0.0019,1.83897 1.54e-4,0.73089 -5.29e-4,1.46178 3.2e-5,2.19267 0.0016,0.78848 -0.193225,1.54835 -0.353558,2.31375 -0.106121,0.74768 -0.296949,1.47454 -0.481478,2.20523 -0.156546,0.64193 -0.325487,1.28136 -0.523531,1.91196 -0.143224,0.60968 -0.359563,1.19598 -0.56651,1.78652 -0.210709,0.56223 -0.437467,1.11862 -0.640842,1.68347 -0.178744,0.48394 -0.407458,0.94405 -0.633163,1.40709 -0.221846,0.432 -0.425408,0.87278 -0.639768,1.30873 -0.191739,0.30387 -0.317066,0.6425 -0.483529,0.95878 -0.0364,0.0842 -0.08987,0.15794 -0.134887,0.23726 0,0 -0.1714,0.0766 -0.1714,0.0766 v 0 c 0.04406,-0.0804 0.100272,-0.15192 0.135742,-0.23732 0.171685,-0.31341 0.28952,-0.65746 0.485733,-0.95905 0.214899,-0.43579 0.417142,-0.8772 0.640005,-1.30876 0.225219,-0.46294 0.454962,-0.92214 0.634432,-1.40547 0.202305,-0.56522 0.430604,-1.12112 0.641093,-1.68345 0.207732,-0.59022 0.424299,-1.17636 0.566994,-1.78607 0.19871,-0.63033 0.367734,-1.2696 0.524698,-1.91134 0.184258,-0.73068 0.377386,-1.45674 0.482039,-2.20469 0.160385,-0.76424 0.356576,-1.5227 0.354759,-2.31012 5.29e-4,-0.7309 -1.19e-4,-1.4618 3.4e-5,-2.1927 1.43e-4,-0.61238 1.32e-4,-1.22476 -0.0019,-1.83714 0,0 0.166693,-0.0849 0.166693,-0.0849 z"
         inkscape:connector-curvature="0" />
      <path
         style="opacity:1;fill:#ffff00;fill-opacity:1;fill-rule:nonzero;stroke:none;stroke-width:2;stroke-miterlimit:4;stroke-dasharray:none;stroke-opacity:1"
         id="path1343"
         d="m 101.56995,169.88157 c -0.002,0.71428 -0.002,1.42857 -0.003,2.14286 -5.3e-4,1.1746 -8e-4,2.3492 -5.3e-4,3.52379 -2e-4,1.17179 1e-4,2.34357 6e-5,3.51536 -8e-5,1.11422 7e-5,2.22845 5.2e-4,3.34267 -10e-5,0.97217 5.3e-4,1.94434 5.3e-4,2.91651 1.3e-4,0.72701 10e-4,1.45403 10e-4,2.18104 -0.008,0.58412 -0.007,1.16486 0.0534,1.74613 0.0612,0.52331 0.10228,1.04893 0.12381,1.57532 0.0108,0.30467 0.0135,0.6095 0.0148,0.91432 -0.004,0.10354 -0.0126,0.19352 0.0505,0.27957 0,0 -0.16193,0.0957 -0.16193,0.0957 v 0 c -0.0643,-0.0907 -0.0625,-0.18125 -0.0556,-0.2901 5.3e-4,-0.30495 -0.002,-0.60992 -0.0124,-0.91472 -0.0209,-0.52624 -0.0604,-1.0518 -0.1221,-1.57491 -0.0604,-0.58183 -0.0641,-1.16311 -0.0542,-1.74787 6e-5,-0.72739 0.001,-1.45478 0.001,-2.18217 0,-0.97232 5.3e-4,-1.94463 5.3e-4,-2.91695 5.2e-4,-1.11439 5.2e-4,-2.22877 5.2e-4,-3.34316 -4e-5,-1.17181 2.6e-4,-2.34361 6e-5,-3.51542 2.7e-4,-1.17441 8e-5,-2.34883 -5.3e-4,-3.52324 -5.3e-4,-0.71326 -0.001,-1.42652 -0.003,-2.13978 0,0 0.16669,-0.0849 0.16669,-0.0849 z"
         inkscape:connector-curvature="0" />
      <path
         style="opacity:1;fill:#ffff00;fill-opacity:1;fill-rule:nonzero;stroke:none;stroke-width:2;stroke-miterlimit:4;stroke-dasharray:none;stroke-opacity:1"
         id="path1345"
         d="m 103.64831,161.82315 c -7.9e-4,0.60263 -0.002,1.20525 -10e-4,1.80787 -2.6e-4,0.67466 -5e-5,1.34932 -1.1e-4,2.02398 -0.0397,0.79481 0.13282,1.55811 0.38236,2.30645 0.24046,0.88819 0.55012,1.75611 0.90353,2.60567 0.36545,0.91202 0.82608,1.77993 1.27388,2.65298 0.40654,0.82393 0.94035,1.5754 1.46568,2.32622 0.49419,0.63254 0.92823,1.30822 1.41212,1.94822 0.27386,0.46101 0.6251,0.8665 0.8898,1.3313 0.0652,0.14388 0.19617,0.23191 0.26928,0.36892 0,0 -0.1629,0.0933 -0.1629,0.0933 v 0 c -0.0721,-0.13693 -0.20392,-0.22513 -0.26707,-0.36956 -0.26408,-0.46411 -0.6129,-0.8704 -0.88604,-1.33073 -0.48406,-0.6401 -0.9175,-1.31647 -1.41176,-1.94922 -0.52484,-0.75213 -1.06006,-1.50372 -1.46595,-2.32893 -0.44688,-0.874 -0.91011,-1.74116 -1.27515,-2.65391 -0.35329,-0.85006 -0.66393,-1.71807 -0.9044,-2.60668 -0.25002,-0.74989 -0.42681,-1.51402 -0.38671,-2.3108 -7e-5,-0.67461 1.8e-4,-1.34923 -1.2e-4,-2.02385 5.3e-4,-0.60226 -2.6e-4,-1.20453 -0.001,-1.80679 0,0 0.16567,-0.0844 0.16567,-0.0844 z"
         inkscape:connector-curvature="0" />
    </g>
    <g
       transform="rotate(-90,100.63615,152.24046)"
       id="g1357">
      <path
         sodipodi:nodetypes="caaac"
         inkscape:connector-curvature="0"
         id="path1349"
         d="m 100.63615,152.24047 c 0,0 22.4297,25.59604 18.42098,39.58764 -2.01818,7.04402 -11.10577,12.41855 -18.42098,11.99539 -6.250153,-0.36155 -12.818587,-5.95169 -14.452226,-11.99539 -3.66561,-13.56105 14.452226,-39.58764 14.452226,-39.58764 z"
         style="opacity:1;fill:#9c303f;fill-opacity:1;fill-rule:nonzero;stroke:none;stroke-width:2;stroke-miterlimit:4;stroke-dasharray:none;stroke-opacity:1" />
      <path
         inkscape:connector-curvature="0"
         d="m 99.86906,166.1018 c -0.0019,0.61299 -0.0019,1.22598 -0.0019,1.83897 1.54e-4,0.73089 -5.29e-4,1.46178 3.2e-5,2.19267 0.0016,0.78848 -0.193225,1.54835 -0.353558,2.31375 -0.106121,0.74768 -0.296949,1.47454 -0.481478,2.20523 -0.156546,0.64193 -0.325487,1.28136 -0.523531,1.91196 -0.143224,0.60968 -0.359563,1.19598 -0.56651,1.78652 -0.210709,0.56223 -0.437467,1.11862 -0.640842,1.68347 -0.178744,0.48394 -0.407458,0.94405 -0.633163,1.40709 -0.221846,0.432 -0.425408,0.87278 -0.639768,1.30873 -0.191739,0.30387 -0.317066,0.6425 -0.483529,0.95878 -0.0364,0.0842 -0.08987,0.15794 -0.134887,0.23726 0,0 -0.1714,0.0766 -0.1714,0.0766 v 0 c 0.04406,-0.0804 0.100272,-0.15192 0.135742,-0.23732 0.171685,-0.31341 0.28952,-0.65746 0.485733,-0.95905 0.214899,-0.43579 0.417142,-0.8772 0.640005,-1.30876 0.225219,-0.46294 0.454962,-0.92214 0.634432,-1.40547 0.202305,-0.56522 0.430604,-1.12112 0.641093,-1.68345 0.207732,-0.59022 0.424299,-1.17636 0.566994,-1.78607 0.19871,-0.63033 0.367734,-1.2696 0.524698,-1.91134 0.184258,-0.73068 0.377386,-1.45674 0.482039,-2.20469 0.160385,-0.76424 0.356576,-1.5227 0.354759,-2.31012 5.29e-4,-0.7309 -1.19e-4,-1.4618 3.4e-5,-2.1927 1.43e-4,-0.61238 1.32e-4,-1.22476 -0.0019,-1.83714 0,0 0.166693,-0.0849 0.166693,-0.0849 z"
         id="path1351"
         style="opacity:1;fill:#ffff00;fill-opacity:1;fill-rule:nonzero;stroke:none;stroke-width:2;stroke-miterlimit:4;stroke-dasharray:none;stroke-opacity:1" />
      <path
         inkscape:connector-curvature="0"
         d="m 101.56995,169.88157 c -0.002,0.71428 -0.002,1.42857 -0.003,2.14286 -5.3e-4,1.1746 -8e-4,2.3492 -5.3e-4,3.52379 -2e-4,1.17179 1e-4,2.34357 6e-5,3.51536 -8e-5,1.11422 7e-5,2.22845 5.2e-4,3.34267 -10e-5,0.97217 5.3e-4,1.94434 5.3e-4,2.91651 1.3e-4,0.72701 10e-4,1.45403 10e-4,2.18104 -0.008,0.58412 -0.007,1.16486 0.0534,1.74613 0.0612,0.52331 0.10228,1.04893 0.12381,1.57532 0.0108,0.30467 0.0135,0.6095 0.0148,0.91432 -0.004,0.10354 -0.0126,0.19352 0.0505,0.27957 0,0 -0.16193,0.0957 -0.16193,0.0957 v 0 c -0.0643,-0.0907 -0.0625,-0.18125 -0.0556,-0.2901 5.3e-4,-0.30495 -0.002,-0.60992 -0.0124,-0.91472 -0.0209,-0.52624 -0.0604,-1.0518 -0.1221,-1.57491 -0.0604,-0.58183 -0.0641,-1.16311 -0.0542,-1.74787 6e-5,-0.72739 0.001,-1.45478 0.001,-2.18217 0,-0.97232 5.3e-4,-1.94463 5.3e-4,-2.91695 5.2e-4,-1.11439 5.2e-4,-2.22877 5.2e-4,-3.34316 -4e-5,-1.17181 2.6e-4,-2.34361 6e-5,-3.51542 2.7e-4,-1.17441 8e-5,-2.34883 -5.3e-4,-3.52324 -5.3e-4,-0.71326 -0.001,-1.42652 -0.003,-2.13978 0,0 0.16669,-0.0849 0.16669,-0.0849 z"
         id="path1353"
         style="opacity:1;fill:#ffff00;fill-opacity:1;fill-rule:nonzero;stroke:none;stroke-width:2;stroke-miterlimit:4;stroke-dasharray:none;stroke-opacity:1" />
      <path
         inkscape:connector-curvature="0"
         d="m 103.64831,161.82315 c -7.9e-4,0.60263 -0.002,1.20525 -10e-4,1.80787 -2.6e-4,0.67466 -5e-5,1.34932 -1.1e-4,2.02398 -0.0397,0.79481 0.13282,1.55811 0.38236,2.30645 0.24046,0.88819 0.55012,1.75611 0.90353,2.60567 0.36545,0.91202 0.82608,1.77993 1.27388,2.65298 0.40654,0.82393 0.94035,1.5754 1.46568,2.32622 0.49419,0.63254 0.92823,1.30822 1.41212,1.94822 0.27386,0.46101 0.6251,0.8665 0.8898,1.3313 0.0652,0.14388 0.19617,0.23191 0.26928,0.36892 0,0 -0.1629,0.0933 -0.1629,0.0933 v 0 c -0.0721,-0.13693 -0.20392,-0.22513 -0.26707,-0.36956 -0.26408,-0.46411 -0.6129,-0.8704 -0.88604,-1.33073 -0.48406,-0.6401 -0.9175,-1.31647 -1.41176,-1.94922 -0.52484,-0.75213 -1.06006,-1.50372 -1.46595,-2.32893 -0.44688,-0.874 -0.91011,-1.74116 -1.27515,-2.65391 -0.35329,-0.85006 -0.66393,-1.71807 -0.9044,-2.60668 -0.25002,-0.74989 -0.42681,-1.51402 -0.38671,-2.3108 -7e-5,-0.67461 1.8e-4,-1.34923 -1.2e-4,-2.02385 5.3e-4,-0.60226 -2.6e-4,-1.20453 -0.001,-1.80679 0,0 0.16567,-0.0844 0.16567,-0.0844 z"
         id="path1355"
         style="opacity:1;fill:#ffff00;fill-opacity:1;fill-rule:nonzero;stroke:none;stroke-width:2;stroke-miterlimit:4;stroke-dasharray:none;stroke-opacity:1" />
    </g>
    <ellipse
       style="opacity:1;fill:#ffff00;fill-opacity:1;fill-rule:nonzero;stroke:none;stroke-width:2;stroke-miterlimit:4;stroke-dasharray:none;stroke-opacity:1"
       id="path1359"
       cx="100.44717"
       cy="154.31398"
       rx="15.024553"
       ry="14.174108" />
    <g
       id="g1367">
      <ellipse
         ry="2.4568453"
         rx="1.8898809"
         cy="149.77826"
         cx="93.927086"
         id="path1361"
         style="opacity:1;fill:#000000;fill-opacity:1;fill-rule:nonzero;stroke:none;stroke-width:2;stroke-miterlimit:4;stroke-dasharray:none;stroke-opacity:1" />
      <ellipse
         style="opacity:1;fill:#ffffff;fill-opacity:1;fill-rule:nonzero;stroke:none;stroke-width:0.62013471;stroke-miterlimit:4;stroke-dasharray:none;stroke-opacity:1"
         id="ellipse1363"
         cx="93.793449"
         cy="151.18141"
         rx="0.6203506"
         ry="0.71959335" />
    </g>
    <g
       id="g1373"
       transform="translate(11.893494,-0.13363476)">
      <ellipse
         style="opacity:1;fill:#000000;fill-opacity:1;fill-rule:nonzero;stroke:none;stroke-width:2;stroke-miterlimit:4;stroke-dasharray:none;stroke-opacity:1"
         id="ellipse1369"
         cx="93.927086"
         cy="149.77826"
         rx="1.8898809"
         ry="2.4568453" />
      <ellipse
         ry="0.71959335"
         rx="0.6203506"
         cy="151.18141"
         cx="93.793449"
         id="ellipse1371"
         style="opacity:1;fill:#ffffff;fill-opacity:1;fill-rule:nonzero;stroke:none;stroke-width:0.62013471;stroke-miterlimit:4;stroke-dasharray:none;stroke-opacity:1" />
    </g>
    <path
       style="opacity:1;fill:none;fill-opacity:1;fill-rule:nonzero;stroke:#000000;stroke-width:0.5;stroke-miterlimit:4;stroke-dasharray:none;stroke-opacity:1"
       id="path1382"
       sodipodi:type="arc"
       sodipodi:cx="100.09244"
       sodipodi:cy="156.95078"
       sodipodi:rx="5.9467473"
       sodipodi:ry="5.1449385"
       sodipodi:start="0"
       sodipodi:end="3.1415927"
       d="m 106.03919,156.95078 a 5.9467473,5.1449385 0 0 1 -2.97338,4.45564 5.9467473,5.1449385 0 0 1 -5.946746,0 5.9467473,5.1449385 0 0 1 -2.973374,-4.45565"
       sodipodi:open="true" />
  </g>
</svg>
