<?xml version="1.0" encoding="UTF-8" standalone="no"?>
<!-- Created with Inkscape (http://www.inkscape.org/) -->

<svg
   xmlns:dc="http://purl.org/dc/elements/1.1/"
   xmlns:cc="http://creativecommons.org/ns#"
   xmlns:rdf="http://www.w3.org/1999/02/22-rdf-syntax-ns#"
   xmlns:svg="http://www.w3.org/2000/svg"
   xmlns="http://www.w3.org/2000/svg"
   xmlns:sodipodi="http://sodipodi.sourceforge.net/DTD/sodipodi-0.dtd"
   xmlns:inkscape="http://www.inkscape.org/namespaces/inkscape"
   width="210mm"
   height="297mm"
   viewBox="0 0 210 297"
   version="1.1"
   id="svg8"
   inkscape:version="0.92.2 5c3e80d, 2017-08-06"
   sodipodi:docname="hands.svg">
  <defs
     id="defs2" />
  <sodipodi:namedview
     id="base"
     pagecolor="#ffffff"
     bordercolor="#666666"
     borderopacity="1.0"
     inkscape:pageopacity="0.0"
     inkscape:pageshadow="2"
     inkscape:zoom="0.35"
     inkscape:cx="628.57143"
     inkscape:cy="674.28571"
     inkscape:document-units="mm"
     inkscape:current-layer="layer1"
     showgrid="false"
     inkscape:window-width="1440"
     inkscape:window-height="782"
     inkscape:window-x="0"
     inkscape:window-y="1"
     inkscape:window-maximized="1" />
  <metadata
     id="metadata5">
    <rdf:RDF>
      <cc:Work
         rdf:about="">
        <dc:format>image/svg+xml</dc:format>
        <dc:type
           rdf:resource="http://purl.org/dc/dcmitype/StillImage" />
        <dc:title />
      </cc:Work>
    </rdf:RDF>
  </metadata>
  <g
     inkscape:label="Layer 1"
     inkscape:groupmode="layer"
     id="layer1">
    <path
       style="opacity:1;fill:#ffffff;fill-opacity:1;fill-rule:nonzero;stroke:#000000;stroke-width:1.42857146;stroke-miterlimit:4;stroke-dasharray:none;stroke-opacity:1"
       d="m 44.778982,164.60683 c -0.43041,-0.80421 -0.78255,-2.98048 -0.78255,-4.83616 0,-3.32541 -0.0354,-3.37235 -2.45685,-3.2625 l -2.45685,0.11147 0.0449,-3.77976 c 0.0848,-7.1303 7.51691,-18.52084 12.08457,-18.52084 1.7472,0 1.88811,-0.22591 1.5324,-2.45684 -0.21545,-1.35127 -1.29679,-14.3631 -2.40296,-28.91518 l -2.0112,-26.458331 14.94151,-23.62351 c 8.21783,-12.992931 15.32192,-23.618304 15.78687,-23.611937 3.42751,0.04694 2.9782,1.251047 -9.20305,24.663108 l -12.13766,23.328293 -0.62869,28.726187 c -0.52487,23.98225 -0.45297,29.19434 0.43537,31.56101 0.73691,1.96322 1.52434,2.83482 2.56107,2.83482 2.28375,0 6.49031,2.90778 7.76081,5.36465 1.09961,2.12642 1.07875,2.19488 -0.66879,2.19488 -0.99209,0 -3.05701,-0.85045 -4.5887,-1.88988 -1.53169,-1.03944 -2.90603,-1.88989 -3.05408,-1.88989 -0.14806,0 -0.38809,3.00993 -0.5334,6.68872 -0.30883,7.81857 -1.40827,10.09556 -3.82053,7.9125 -1.24885,-1.1302 -1.54639,-1.15901 -2.14789,-0.20806 -0.38402,0.60712 -0.70343,1.41193 -0.7098,1.78846 -0.006,0.37653 -0.87934,1.82229 -1.93993,3.2128 -2.15966,2.83147 -4.42875,3.26305 -5.60457,1.06599 z"
       id="path909"
       inkscape:connector-curvature="0"
       inkscape:export-xdpi="96"
       inkscape:export-ydpi="96" />
    <path
       inkscape:connector-curvature="0"
       id="path913"
       d="m 177.27596,163.85088 c 0.43041,-0.80421 0.78255,-2.98048 0.78255,-4.83616 0,-3.32541 0.0354,-3.37235 2.45685,-3.2625 l 2.45685,0.11147 -0.0449,-3.77976 c -0.0848,-7.1303 -7.51691,-18.52084 -12.08457,-18.52084 -1.7472,0 -1.88811,-0.22591 -1.5324,-2.45684 0.21545,-1.35127 1.29679,-14.3631 2.40296,-28.91518 l 2.0112,-26.458333 -14.94151,-23.62351 C 150.56516,39.116296 143.46107,28.490923 142.99612,28.49729 c -3.42751,0.04694 -2.9782,1.251047 9.20305,24.663108 l 12.13766,23.328293 0.62869,28.726189 c 0.52487,23.98225 0.45297,29.19434 -0.43537,31.56101 -0.73691,1.96322 -1.52434,2.83482 -2.56107,2.83482 -2.28375,0 -6.49031,2.90778 -7.76081,5.36465 -1.09961,2.12642 -1.07875,2.19488 0.66879,2.19488 0.99209,0 3.05701,-0.85045 4.5887,-1.88988 1.53169,-1.03944 2.90603,-1.88989 3.05408,-1.88989 0.14806,0 0.38809,3.00993 0.5334,6.68872 0.30883,7.81857 1.40827,10.09556 3.82053,7.9125 1.24885,-1.1302 1.54639,-1.15901 2.14789,-0.20806 0.38402,0.60712 0.70343,1.41193 0.7098,1.78846 0.006,0.37653 0.87934,1.82229 1.93993,3.2128 2.15966,2.83147 4.42875,3.26305 5.60457,1.06599 z"
       style="opacity:1;fill:#ffffff;fill-opacity:1;fill-rule:nonzero;stroke:#000000;stroke-width:1.42857146;stroke-miterlimit:4;stroke-dasharray:none;stroke-opacity:1"
       inkscape:export-xdpi="96"
       inkscape:export-ydpi="96" />
  </g>
</svg>
