<?xml version="1.0" encoding="UTF-8" standalone="no"?>
<!-- Created with Inkscape (http://www.inkscape.org/) -->

<svg
   xmlns:dc="http://purl.org/dc/elements/1.1/"
   xmlns:cc="http://creativecommons.org/ns#"
   xmlns:rdf="http://www.w3.org/1999/02/22-rdf-syntax-ns#"
   xmlns:svg="http://www.w3.org/2000/svg"
   xmlns="http://www.w3.org/2000/svg"
   xmlns:sodipodi="http://sodipodi.sourceforge.net/DTD/sodipodi-0.dtd"
   xmlns:inkscape="http://www.inkscape.org/namespaces/inkscape"
   width="210mm"
   height="297mm"
   viewBox="0 0 210 297"
   version="1.1"
   id="svg1825"
   inkscape:version="0.92.2 5c3e80d, 2017-08-06"
   sodipodi:docname="sun.svg">
  <defs
     id="defs1819" />
  <sodipodi:namedview
     id="base"
     pagecolor="#ffffff"
     bordercolor="#666666"
     borderopacity="1.0"
     inkscape:pageopacity="0.0"
     inkscape:pageshadow="2"
     inkscape:zoom="0.35"
     inkscape:cx="400"
     inkscape:cy="560"
     inkscape:document-units="mm"
     inkscape:current-layer="layer1"
     showgrid="false"
     inkscape:window-width="1440"
     inkscape:window-height="782"
     inkscape:window-x="0"
     inkscape:window-y="1"
     inkscape:window-maximized="1" />
  <metadata
     id="metadata1822">
    <rdf:RDF>
      <cc:Work
         rdf:about="">
        <dc:format>image/svg+xml</dc:format>
        <dc:type
           rdf:resource="http://purl.org/dc/dcmitype/StillImage" />
        <dc:title></dc:title>
      </cc:Work>
    </rdf:RDF>
  </metadata>
  <g
     inkscape:label="Layer 1"
     inkscape:groupmode="layer"
     id="layer1">
    <g
       id="g1864"
       transform="matrix(0.35852238,0,0,0.35531817,86.133588,61.838948)"
       inkscape:export-xdpi="96"
       inkscape:export-ydpi="96">
      <path
         d="m 56.69643,134.47023 c 1.819309,1.7814 -1.503715,3.33127 -2.960812,3.02381 -3.948642,-0.83321 -4.635048,-5.87246 -3.08681,-8.94543 2.769436,-5.49683 10.103765,-6.21457 14.930058,-3.14981 7.08278,4.49765 7.840182,14.3922 3.212808,20.91468 -6.167563,8.69343 -18.700898,9.48539 -26.899304,3.2758 -10.316858,-7.81413 -11.140736,-23.01923 -3.338805,-32.88392 9.449184,-11.94747 27.342997,-12.80194 38.86855,-3.40181 13.582465,11.07774 14.466826,31.67015 3.464802,44.85318 -12.702272,15.22032 -35.999555,16.13416 -50.837796,3.5278 -16.860152,-14.32416 -17.803227,-40.33055 -3.590799,-56.82242 15.944195,-18.501385 44.662704,-19.473534 62.807041,-3.6538 20.143657,17.5629 21.144777,48.99573 3.716798,68.79167"
         sodipodi:t0="0"
         sodipodi:argument="-18.074684"
         sodipodi:radius="50.784023"
         sodipodi:revolution="3"
         sodipodi:expansion="1"
         sodipodi:cy="134.47023"
         sodipodi:cx="56.69643"
         id="path1827"
         style="fill:none;fill-opacity:0.90165872;fill-rule:evenodd;stroke:#ffff6a;stroke-width:5;stroke-miterlimit:4;stroke-dasharray:none;stroke-opacity:1"
         sodipodi:type="spiral" />
      <path
         inkscape:connector-curvature="0"
         d="m 76.180579,82.096215 c 0.330255,-1.347348 1.091758,-2.496143 1.684859,-3.728477 1.281705,-1.90043 2.83261,-3.615922 4.285776,-5.390282 1.089454,-1.174078 2.048034,-2.515457 3.300312,-3.527139 0.441137,-0.694774 1.142479,-1.080331 1.74766,-1.595858 1.566183,-0.797772 3.025211,-1.754735 4.553453,-2.608106 1.288425,-0.897181 2.662303,-1.697154 4.093133,-2.346222 1.804153,-0.607015 0.428845,0.0601 1.983873,-0.757068 0.887014,-0.195586 1.736838,-0.499711 2.613485,-0.732785 1.05678,-0.297236 2.03972,-0.789763 3.12733,-1.040167 2.12207,-0.908333 -1.44977,0.498949 1.23022,-0.727393 1.51633,-0.693856 -0.73788,0.607383 0.83296,-0.340984 -0.0606,0.02991 -0.2364,0.12981 -0.18194,0.08974 0.53455,-0.393308 0.95877,-0.476393 1.59889,-0.861949 0.0576,-0.03467 -0.25014,0.05433 -0.20145,0.008 0.44899,-0.427191 1.02226,-0.700934 1.5349,-1.049192 1.69985,-0.876361 2.97981,-2.310204 4.47575,-3.463904 0.76938,-0.734951 1.65234,-1.289216 2.32255,-2.10938 0.47713,-1.276416 0.96306,-2.552096 1.39433,-3.84647 0.74924,-1.61843 1.25749,-3.327318 1.92612,-4.979654 0.35501,-0.980662 0.77176,-1.932763 1.13165,-2.910999 0,0 0.67861,-0.315933 0.67861,-0.315933 v 0 c -0.36608,0.978942 -0.77663,1.935615 -1.13886,2.916875 -0.67325,1.648973 -1.16862,3.359629 -1.92398,4.973224 -0.42832,1.301576 -0.93754,2.57532 -1.37901,3.869585 -0.67623,0.823915 -1.53401,1.394433 -2.32175,2.12771 -1.50613,1.143672 -2.7722,2.597237 -4.4774,3.469039 -1.59764,1.086295 -2.48075,1.702925 -4.01976,2.553835 -0.012,0.0065 -0.74297,0.449837 -0.83724,0.33894 -0.0835,-0.0982 0.42307,-0.294535 0.31896,-0.218554 -0.52387,0.382349 -0.95848,0.719502 -1.55921,0.931656 -1.08095,0.260646 -2.06394,0.752692 -3.123947,1.040609 -0.873287,0.239128 -1.728801,0.526206 -2.608185,0.743222 0.648524,-0.500676 0.0132,0.0062 -0.695187,0.36911 -0.381346,0.195379 -0.931722,0.09863 -1.286626,0.387532 -1.429848,0.662787 -2.738879,1.506064 -4.083868,2.345217 -1.202047,0.538631 -2.3838,1.551001 -3.284196,1.862574 -0.591981,0.531378 -1.328991,0.880491 -1.747409,1.599713 -1.273,0.986936 -2.217679,2.353371 -3.317131,3.516908 -1.453372,1.767639 -2.987485,3.487089 -4.285001,5.370285 -0.579861,1.232405 -1.360718,2.367978 -1.689415,3.710268 0,0 -0.673256,0.326466 -0.673256,0.326466 z"
         id="path1829"
         style="opacity:1;fill:none;fill-opacity:0.90165872;fill-rule:nonzero;stroke:#ffff6a;stroke-width:5;stroke-miterlimit:4;stroke-dasharray:none;stroke-opacity:1" />
      <path
         style="opacity:1;fill:none;fill-opacity:0.90165872;fill-rule:nonzero;stroke:#ffff6a;stroke-width:5;stroke-miterlimit:4;stroke-dasharray:none;stroke-opacity:1"
         id="path1831"
         d="m 103.01495,101.89792 c 0.59296,-1.25412 1.56877,-2.227485 2.39628,-3.316345 1.63578,-1.605812 3.49836,-2.97659 5.27693,-4.424598 1.3022,-0.932556 2.50961,-2.055203 3.93886,-2.796091 0.57114,-0.592549 1.33541,-0.830102 2.03144,-1.214226 1.69407,-0.468535 3.31496,-1.114473 4.98297,-1.645069 1.44178,-0.621472 2.94786,-1.130612 4.47957,-1.480508 1.88909,-0.234051 0.40816,0.144625 2.09519,-0.345143 0.90821,-0.01429 1.80169,-0.142371 2.70723,-0.19547 1.09488,-0.07995 2.15644,-0.366014 3.27216,-0.393915 2.26083,-0.465726 -1.52026,0.199021 1.35081,-0.466748 1.62443,-0.376685 -0.84442,0.447595 0.88431,-0.167565 -0.0653,0.01719 -0.25758,0.07993 -0.19621,0.05155 0.6024,-0.278494 1.03466,-0.275087 1.73894,-0.524878 0.0634,-0.02245 -0.25595,0.0032 -0.19898,-0.03244 0.52533,-0.328799 1.14176,-0.4824 1.71368,-0.721134 1.84074,-0.518815 3.38153,-1.667804 5.07792,-2.499126 0.90079,-0.566289 1.87674,-0.932832 2.69739,-1.602441 0.72269,-1.155252 1.45386,-2.308024 2.13521,-3.49004 1.05769,-1.435957 1.89734,-3.008728 2.88282,-4.494023 0.54391,-0.889885 1.1426,-1.739442 1.6908,-2.625974 0,0 0.72807,-0.173879 0.72807,-0.173879 v 0 c -0.55441,0.885987 -1.14794,1.741263 -1.69904,2.63029 -0.98933,1.481076 -1.81672,3.058154 -2.87943,4.488151 -0.6799,1.189662 -1.4335,2.33588 -2.12482,3.51575 -0.82731,0.672081 -1.78183,1.059583 -2.70027,1.620562 -1.70438,0.819459 -3.2355,1.990549 -5.08057,2.503827 -1.78257,0.744944 -2.77113,1.172563 -4.44919,1.698597 -0.0131,0.004 -0.81791,0.292212 -0.8881,0.164707 -0.0622,-0.112912 0.47341,-0.204004 0.35621,-0.150372 -0.58973,0.269892 -1.08298,0.513346 -1.714,0.601112 -1.11123,0.03927 -2.17275,0.324849 -3.26892,0.395024 -0.90347,0.0597 -1.79911,0.169939 -2.70414,0.206755 0.73554,-0.360905 0.0117,0.0087 -0.75495,0.222668 -0.41271,0.115191 -0.93262,-0.08964 -1.33813,0.12247 -1.53349,0.363534 -2.98469,0.928069 -4.4703,1.481374 -1.28546,0.287431 -2.64576,1.043091 -3.59027,1.168357 -0.68626,0.402294 -1.47819,0.597007 -2.03196,1.218053 -1.44462,0.712497 -2.64342,1.862473 -3.95329,2.782704 -1.77744,1.441379 -3.62436,2.819395 -5.27218,4.40515 -0.81455,1.091594 -1.80668,2.048124 -2.39711,3.297594 0,0 -0.72493,0.18527 -0.72493,0.18527 z"
         inkscape:connector-curvature="0" />
      <path
         inkscape:connector-curvature="0"
         d="m 115.06306,126.50391 c 0.93139,-1.02807 2.14767,-1.67636 3.25556,-2.47821 2.0314,-1.062 4.21163,-1.83326 6.33387,-2.70281 1.5168,-0.51452 2.99804,-1.23846 4.58079,-1.53269 0.71852,-0.4013 1.51884,-0.40684 2.29639,-0.57244 1.75713,0.0433 3.49572,-0.1045 5.24593,-0.12821 1.56009,-0.17631 3.14911,-0.22647 4.71644,-0.1168 1.87572,0.32424 0.34863,0.25685 2.10519,0.27774 0.87327,0.24988 1.76547,0.38661 2.64745,0.59859 1.07095,0.24127 2.16985,0.27554 3.24565,0.57263 2.2987,0.21041 -1.51259,-0.25073 1.42813,-0.0547 1.66384,0.11094 -0.93797,0.18328 0.89489,0.0963 -0.0675,-0.002 -0.26968,0.002 -0.20271,-0.008 0.65729,-0.0917 1.06996,0.037 1.81642,0.002 0.0672,-0.003 -0.24581,-0.0714 -0.18101,-0.0887 0.59814,-0.1622 1.23261,-0.1303 1.8492,-0.19279 1.91209,0.0377 3.72001,-0.6147 5.58465,-0.91794 1.02636,-0.28051 2.06669,-0.34806 3.04634,-0.75069 1.02685,-0.89582 2.06109,-1.78679 3.05614,-2.7202 1.42889,-1.06722 2.68883,-2.32864 4.06294,-3.46403 0.77875,-0.69374 1.59822,-1.333 2.3801,-2.02229 0,0 0.7472,0.0449 0.7472,0.0449 v 0 c -0.78767,0.68697 -1.60386,1.33319 -2.38924,2.02403 -1.37657,1.13024 -2.62602,2.39933 -4.05799,3.45939 -0.99588,0.94115 -2.04969,1.81935 -3.05366,2.74782 -0.98675,0.40307 -2.01264,0.49689 -3.05435,0.76719 -1.86885,0.28958 -3.67393,0.96594 -5.58855,0.92168 -1.92204,0.19558 -2.99216,0.31791 -4.75066,0.33433 -0.0137,3e-5 -0.86751,0.0423 -0.89768,-0.10011 -0.0267,-0.1261 0.51224,-0.0578 0.38452,-0.0405 -0.64267,0.0871 -1.18535,0.17698 -1.81468,0.0778 -1.07481,-0.28487 -2.17352,-0.31966 -3.24288,-0.57062 -0.88192,-0.20505 -1.771,-0.35948 -2.64777,-0.58689 0.80862,-0.13192 0.009,0.012 -0.78708,-0.006 -0.42838,-0.01 -0.86648,-0.3564 -1.31608,-0.27113 -1.573,-0.0971 -3.12558,0.022 -4.70782,0.12032 -1.31356,-0.098 -2.83461,0.2304 -3.77483,0.0762 -0.77347,0.18584 -1.58783,0.14235 -2.29799,0.57595 -1.58923,0.26261 -3.07016,1.0152 -4.59072,1.5157 -2.11924,0.86353 -4.28658,1.64626 -6.32368,2.68557 -1.09628,0.80823 -2.3233,1.43568 -3.25092,2.46003 0,0 -0.7475,-0.0331 -0.7475,-0.0331 z"
         id="path1833"
         style="opacity:1;fill:none;fill-opacity:0.90165872;fill-rule:nonzero;stroke:#ffff6a;stroke-width:5;stroke-miterlimit:4;stroke-dasharray:none;stroke-opacity:1" />
      <path
         style="opacity:1;fill:none;fill-opacity:0.90165872;fill-rule:nonzero;stroke:#ffff6a;stroke-width:5;stroke-miterlimit:4;stroke-dasharray:none;stroke-opacity:1"
         id="path1835"
         d="m 115.43756,143.97857 c 1.37074,-0.21328 2.72404,0.0479 4.08967,0.12147 2.24721,0.45227 4.42719,1.22424 6.62393,1.88329 1.50265,0.5545 3.10961,0.92321 4.52507,1.69012 0.81098,0.14005 1.43661,0.63917 2.14521,0.99957 1.3387,1.139 2.78318,2.11777 4.15864,3.20031 1.32366,0.84433 2.59045,1.80491 3.73985,2.87611 1.25414,1.43198 0.10944,0.41897 1.46177,1.54018 0.52166,0.74358 1.12922,1.41111 1.68149,2.13071 0.68074,0.86125 1.51343,1.57915 2.16282,2.48683 1.65456,1.60958 -1.0181,-1.1464 1.14458,0.85585 1.22361,1.13289 -0.84444,-0.44755 0.63507,0.63781 -0.0512,-0.044 -0.21088,-0.16813 -0.15255,-0.1337 0.56863,0.34218 0.80847,0.70182 1.41075,1.14418 0.0541,0.0399 -0.14617,-0.21013 -0.0849,-0.18282 0.56702,0.25014 1.04014,0.67409 1.55877,1.01339 1.46267,1.23211 3.27847,1.86224 4.91873,2.79947 0.97431,0.42757 1.8255,1.0295 2.84032,1.33276 1.36176,-0.0504 2.7262,-0.0924 4.08688,-0.19208 1.78211,0.0692 3.55503,-0.11878 5.33743,-0.13701 1.04177,-0.0494 2.08093,-0.0308 3.12234,-0.0748 0,0 0.5526,0.50495 0.5526,0.50495 v 0 c -1.04445,0.0385 -2.08543,0.0274 -3.13053,0.0704 -1.78108,0.0127 -3.55068,0.21323 -5.33067,0.13649 -1.36619,0.10516 -2.73782,0.12492 -4.10233,0.21513 -1.02063,-0.30736 -1.87711,-0.8798 -2.85694,-1.32497 -1.63493,-0.95049 -3.46358,-1.56023 -4.9241,-2.79903 -1.61715,-1.05704 -2.52598,-1.6351 -3.90329,-2.72853 -0.0108,-0.008 -0.70098,-0.51284 -0.63484,-0.64251 0.0585,-0.11485 0.43455,0.27729 0.32439,0.21038 -0.55438,-0.33656 -1.03278,-0.60808 -1.45961,-1.08105 -0.65631,-0.89757 -1.48852,-1.61576 -2.16193,-2.48354 -0.55657,-0.71417 -1.15057,-1.3935 -1.68908,-2.12182 0.71157,0.40612 -1.2e-4,0.0151 -0.60808,-0.49977 -0.32671,-0.27726 -0.44937,-0.82212 -0.8525,-1.03866 -1.16171,-1.06498 -2.44355,-1.94906 -3.73537,-2.86794 -0.95946,-0.90249 -2.34844,-1.60402 -2.98233,-2.31534 -0.71818,-0.34208 -1.32387,-0.88818 -2.14868,-0.99785 -1.4006,-0.79557 -3.02525,-1.1421 -4.52209,-1.7096 -2.19062,-0.66184 -4.36781,-1.41675 -6.60515,-1.89029 -1.36063,-0.0613 -2.70917,-0.34543 -4.07463,-0.13267 0,0 -0.56026,-0.49595 -0.56026,-0.49595 z"
         inkscape:connector-curvature="0" />
      <path
         inkscape:connector-curvature="0"
         d="m 92.981883,170.00032 c 1.346646,0.33311 2.493821,1.09704 3.724876,1.69276 1.897718,1.28574 3.609911,2.84029 5.381181,4.29721 1.17154,1.09221 2.5111,2.05339 3.52012,3.30779 0.69383,0.44262 1.07791,1.14478 1.59214,1.75105 0.7944,1.56791 1.74831,3.02893 2.59844,4.55898 0.89444,1.29034 1.6915,2.66591 2.33753,4.09811 0.60318,1.80544 -0.061,0.42871 0.75285,1.98549 0.1937,0.88742 0.49603,1.7379 0.72724,2.61504 0.29494,1.05743 0.78543,2.04139 1.03352,3.12953 0.90383,2.12401 -0.49587,-1.45082 0.72482,1.23174 0.69063,1.5178 -0.60582,-0.73916 0.33919,0.8337 -0.0302,-0.0604 -0.12951,-0.23657 -0.089,-0.18229 0.39218,0.53538 0.47437,0.95977 0.85886,1.60055 0.0344,0.0578 -0.0536,-0.2503 -0.008,-0.20144 0.42627,0.44987 0.69876,1.02374 1.04593,1.53712 0.87276,1.70171 2.30387,2.98471 3.45439,4.4831 0.73333,0.77093 1.28571,1.65508 2.10445,2.32702 1.27541,0.47984 2.55004,0.96848 3.84349,1.4025 1.61684,0.75267 3.32465,1.26455 4.97557,1.93668 0.9799,0.3571 1.93112,0.77586 2.90859,1.13782 0,0 0.31448,0.67929 0.31448,0.67929 v 0 c -0.97816,-0.36816 -1.93396,-0.78074 -2.91445,-1.14505 -1.64754,-0.67674 -3.35714,-1.17575 -4.96913,-1.93453 -1.30066,-0.43108 -2.57332,-0.94301 -3.86665,-1.38722 -0.82249,-0.67798 -1.39117,-1.53697 -2.12277,-2.32626 -1.14048,-1.50856 -2.59135,-2.77771 -3.45953,-4.48476 -1.0829,-1.59994 -1.69766,-2.48436 -2.54529,-4.02517 -0.007,-0.0118 -0.44828,-0.74392 -0.33716,-0.83796 0.0984,-0.0833 0.29359,0.42371 0.21786,0.31942 -0.38121,-0.52469 -0.71748,-0.96 -0.92832,-1.5612 -0.25838,-1.08149 -0.74831,-2.06552 -1.03397,-3.12615 -0.23728,-0.8738 -0.52253,-1.72992 -0.73769,-2.60978 0.4993,0.6496 -0.006,0.0138 -0.36763,-0.69596 -0.19417,-0.38199 -0.0967,-0.93192 -0.3848,-1.28744 -0.65978,-1.43125 -1.50028,-2.74207 -2.33654,-4.08885 -0.53606,-1.2032 -1.54593,-2.38708 -1.85562,-3.28813 -0.53014,-0.59308 -0.87768,-1.33085 -1.59599,-1.7508 -0.98425,-1.2751 -2.34868,-2.22265 -3.50985,-3.32461 -1.76455,-1.45712 -3.480733,-2.99489 -5.361162,-4.2964 -1.23118,-0.58248 -2.365098,-1.36574 -3.706676,-1.6973 0,0 -0.325021,-0.67394 -0.325021,-0.67394 z"
         id="path1837"
         style="opacity:1;fill:none;fill-opacity:0.90165872;fill-rule:nonzero;stroke:#ffff6a;stroke-width:5;stroke-miterlimit:4;stroke-dasharray:none;stroke-opacity:1" />
      <path
         style="opacity:1;fill:none;fill-opacity:0.90165872;fill-rule:nonzero;stroke:#ffff6a;stroke-width:5;stroke-miterlimit:4;stroke-dasharray:none;stroke-opacity:1"
         id="path1839"
         d="M 53.876133,82.527154 C 53.215494,81.30733 53.007668,79.944823 52.618984,78.633587 52.29145,76.36486 52.287558,74.052241 52.171722,71.761689 c 0.01809,-1.601574 -0.173161,-3.239133 0.07464,-4.829823 -0.140065,-0.810984 0.120349,-1.567766 0.222217,-2.356205 0.624015,-1.643159 1.061709,-3.332231 1.620268,-4.99108 0.3515,-1.53017 0.831603,-3.045755 1.455278,-4.487835 0.928441,-1.661762 0.35801,-0.243615 0.960737,-1.89365 0.525576,-0.740829 0.950682,-1.537063 1.44339,-2.298691 0.583016,-0.930175 0.98013,-1.955385 1.617446,-2.871587 0.961459,-2.098534 -0.738565,1.343617 0.422465,-1.365308 0.65691,-1.532697 -0.138438,0.94563 0.387847,-0.812199 -0.02479,0.06287 -0.08788,0.254977 -0.07446,0.188708 0.131669,-0.650459 0.390052,-0.99702 0.605122,-1.712668 0.01937,-0.06438 -0.148767,0.208303 -0.143832,0.141274 0.04553,-0.61807 0.286213,-1.205987 0.431923,-1.808359 0.670216,-1.791175 0.654877,-3.713145 0.987728,-5.572734 0.07606,-1.061279 0.357641,-2.065042 0.302996,-3.122806 -0.504197,-1.265968 -1.001381,-2.537304 -1.55161,-3.785762 -0.532444,-1.70211 -1.304158,-3.309305 -1.919088,-4.982368 -0.395937,-0.964865 -0.726957,-1.950057 -1.11765,-2.916403 0,0 0.290356,-0.689941 0.290356,-0.689941 v 0 c 0.386583,0.971028 0.725266,1.955441 1.116258,2.925599 0.609248,1.673677 1.39169,3.273527 1.916353,4.976168 0.557252,1.25181 1.035886,2.53736 1.578487,3.79259 0.05271,1.064586 -0.199306,2.063469 -0.290088,3.135844 -0.347136,1.859008 -0.308258,3.786253 -0.9855,5.577646 -0.453464,1.877994 -0.693256,2.928049 -1.261444,4.592309 -0.0045,0.01288 -0.248058,0.832361 -0.39239,0.813561 -0.127823,-0.01663 0.115463,-0.502401 0.0894,-0.376176 -0.131122,0.635167 -0.226498,1.176888 -0.528898,1.737638 -0.625501,0.919313 -1.022975,1.9442 -1.614644,2.869643 -0.486152,0.763855 -0.926926,1.551285 -1.432453,2.30286 0.143953,-0.806563 0.01394,-0.0043 -0.266908,0.740467 -0.15118,0.400927 -0.623828,0.699052 -0.692587,1.151482 -0.61373,1.451581 -1.016709,2.955671 -1.449091,4.480866 -0.528423,1.206569 -0.723522,2.750386 -1.181077,3.58611 -0.08144,0.79131 -0.392759,1.545063 -0.21944,2.358891 -0.279771,1.586284 -0.06139,3.233061 -0.09397,4.833546 0.111167,2.285712 0.130156,4.58998 0.4344,6.856565 0.398538,1.302394 0.583146,2.668111 1.24154,3.883142 0,0 -0.279313,0.694145 -0.279313,0.694145 z"
         inkscape:connector-curvature="0" />
      <path
         inkscape:connector-curvature="0"
         d="m 23.043222,91.87774 c -1.204449,-0.68827 -2.099339,-1.736501 -3.120885,-2.64582 -1.474356,-1.755185 -2.696835,-3.718286 -4.002806,-5.603621 -0.82895,-1.370477 -1.854758,-2.661172 -2.482772,-4.143501 -0.546557,-0.615295 -0.724232,-1.395658 -1.053321,-2.119339 -0.335987,-1.725248 -0.854504,-3.391285 -1.254384,-5.095358 -0.507991,-1.485569 -0.899012,-3.026543 -1.1292819,-4.580744 -0.08711,-1.901544 0.1757899,-0.395749 -0.181911,-2.115617 0.05606,-0.906595 -0.0025,-1.807305 0.01469,-2.714247 0.005,-1.097774 -0.197977,-2.1783 -0.139422,-3.292826 -0.289308,-2.290099 0.08073,1.531099 -0.360776,-1.38289 -0.2498,-1.648724 0.380882,0.876533 -0.0986,-0.894634 0.01208,0.06649 0.05974,0.262996 0.03621,0.199609 -0.231024,-0.622142 -0.194164,-1.052848 -0.388685,-1.774353 -0.01748,-0.06492 -0.0166,0.255433 -0.04774,0.195874 -0.287149,-0.549209 -0.392567,-1.175677 -0.58631,-1.764359 -0.374758,-1.875381 -1.401022,-3.500493 -2.098523,-5.256156 -0.494856,-0.941921 -0.784748,-1.943316 -1.388817,-2.813345 -1.095839,-0.809955 -2.188548,-1.628169 -3.314272,-2.398978 -1.34976796,-1.165676 -2.852818,-2.124559 -4.257366,-3.222068 -0.845108,-0.611165 -1.6457689,-1.273826 -2.4872017,-1.889014 0,0 -0.1169942,-0.739349 -0.1169942,-0.739349 v 0 c 0.8404087,0.621333 1.6471705,1.279292 2.4908669,1.897562 1.400043,1.101026 2.90833804,2.048012 4.251774,3.218242 1.133458,0.769954 2.217898,1.610026 3.340709,2.39061 0.606022,0.876847 0.918464,1.858508 1.406659,2.81762 0.685057,1.7627 1.734104,3.379884 2.103007,5.259154 0.604713,1.834888 0.95452,2.853589 1.34907,4.567336 0.003,0.01332 0.228018,0.838072 0.09546,0.898186 -0.117385,0.05326 -0.166742,-0.487786 -0.122346,-0.366786 0.223428,0.608859 0.427968,1.119468 0.46662,1.755387 -0.04687,1.110941 0.1556729,2.191383 0.1407779,3.289697 -0.01042,0.905378 0.03015,1.806867 -0.0032,2.712024 -0.3028819,-0.761268 0.0096,-0.011 0.163555,0.769923 0.0829,0.420388 -0.161571,0.922892 0.01851,1.343594 0.24373,1.557032 0.694228,3.047579 1.130866,4.571561 0.187054,1.30386 0.835141,2.718574 0.886912,3.669947 0.347961,0.715351 0.480782,1.519977 1.057096,2.120158 0.598525,1.495438 1.652247,2.779664 2.46831,4.156855 1.299451,1.883683 2.530357,3.831729 3.983793,5.597373 1.025257,0.89661 1.902111,1.959808 3.102125,2.64519 0,0 0.128594,0.7371 0.128594,0.7371 z"
         id="path1841"
         style="opacity:1;fill:none;fill-opacity:0.90165872;fill-rule:nonzero;stroke:#ffff6a;stroke-width:5;stroke-miterlimit:4;stroke-dasharray:none;stroke-opacity:1" />
      <path
         style="opacity:1;fill:none;fill-opacity:0.90165872;fill-rule:nonzero;stroke:#ffff6a;stroke-width:5;stroke-miterlimit:4;stroke-dasharray:none;stroke-opacity:1"
         id="path1843"
         d="m 5.6663709,118.40212 c -1.386885,0.0311 -2.694048,-0.40591 -4.038143,-0.65855 -2.168125,-0.74408 -4.2275818,-1.79615 -6.3184972,-2.73854 -1.4167652,-0.7471 -2.9610924,-1.32435 -4.2633268,-2.27086 -0.7855144,-0.24553 -1.3400099,-0.82265 -1.9950389,-1.27315 -1.177207,-1.3052 -2.480307,-2.46558 -3.701348,-3.7197 -1.201055,-1.01116 -2.330433,-2.13009 -3.328881,-3.34321 -1.054816,-1.58456 -0.05336,-0.42973 -1.246397,-1.71913 -0.419276,-0.80578 -0.933736,-1.54743 -1.386496,-2.33346 -0.561571,-0.94327 -1.292474,-1.76456 -1.816786,-2.74979 -1.428366,-1.8133 0.858392,1.2704 -1.021979,-0.999061 -1.063907,-1.284053 0.7782,0.554781 -0.545639,-0.7158 0.04462,0.05075 0.186756,0.194571 0.133919,0.152383 -0.518656,-0.414039 -0.709082,-0.802117 -1.247676,-1.320118 -0.04844,-0.04662 0.117441,0.227441 0.06006,0.192456 -0.529157,-0.322612 -0.942409,-0.805103 -1.411872,-1.209686 -1.287817,-1.413869 -3.004916,-2.277453 -4.507587,-3.422373 -0.909571,-0.552068 -1.674161,-1.26075 -2.640261,-1.694918 -1.356538,-0.129202 -2.714652,-0.267094 -4.076621,-0.347347 -1.757494,-0.303135 -3.539744,-0.350055 -5.309042,-0.566539 -1.039215,-0.0881 -2.066888,-0.243234 -3.105027,-0.336673 0,0 -0.481359,-0.573253 -0.481359,-0.573253 v 0 c 1.040431,0.09923 2.070907,0.247195 3.112575,0.342108 1.767251,0.221821 3.547863,0.255843 5.302278,0.566143 1.368156,0.07553 2.73045,0.236419 4.094962,0.32655 0.971288,0.439003 1.74503,1.119152 2.657754,1.689384 1.495634,1.157364 3.22817,2.002412 4.512974,3.422631 1.463997,1.260637 2.28885,1.953265 3.510312,3.218425 0.0094,0.0099 0.627383,0.600622 0.544779,0.720458 -0.07314,0.10615 -0.394318,-0.332037 -0.293903,-0.251235 0.5053,0.406575 0.943769,0.738685 1.304681,1.263685 0.53248,0.97614 1.262969,1.79759 1.816339,2.74643 0.457757,0.7812 0.957203,1.53279 1.395193,2.32562 -0.651942,-0.49621 0.0026,-0.0144 0.53702,0.57546 0.287732,0.3175 0.337259,0.87412 0.708427,1.1418 1.01144,1.20861 2.165796,2.25367 3.325506,3.33452 0.832376,1.02087 2.116961,1.89911 2.651716,2.68766 0.666906,0.43364 1.195476,1.05467 1.9986962,1.27191 1.2837224,0.97295 2.8486345,1.53026 4.2578154,2.28975 2.084483,0.94435 4.1433983,1.97917 6.2989883,2.74299 1.340723,0.23984 2.640143,0.69893 4.021742,0.66769 0,0 0.490139,0.56534 0.490139,0.56534 z"
         inkscape:connector-curvature="0" />
      <path
         inkscape:connector-curvature="0"
         d="m 7.8233422,146.45027 c -0.9586546,1.0027 -2.1919526,1.61803 -3.3209915,2.38984 -2.0592095,1.00701 -4.2593698,1.71941 -6.4042161,2.5316 -1.5300693,0.47357 -3.0302302,1.15744 -4.6203257,1.40903 -0.729046,0.38185 -1.52922,0.36587 -2.310943,0.51052 -1.7553299,-0.0905 -3.4972699,0.0105 -5.2474739,-0.0128 -1.564268,0.13433 -3.154062,0.14176 -4.717881,-0.01 -1.866332,-0.37453 -0.341604,-0.26612 -2.096954,-0.33421 -0.866254,-0.27327 -1.754463,-0.43389 -2.630426,-0.66952 -1.064092,-0.26987 -2.16166,-0.33375 -3.229077,-0.65964 -2.292212,-0.27212 1.505292,0.29129 -1.42909,0.0163 -1.660261,-0.15561 0.942554,-0.15801 -0.891976,-0.12029 0.0674,0.004 0.269639,0.006 0.202445,0.013 -0.659514,0.074 -1.068584,-0.0657 -1.815708,-0.0512 -0.0672,0.001 0.24387,0.0778 0.178561,0.0936 -0.602285,0.14607 -1.235672,0.0971 -1.853719,0.14302 -1.910384,-0.0891 -3.735182,0.51451 -5.607304,0.76753 -1.033528,0.25282 -2.075286,0.29239 -3.065415,0.66855 -1.05055,0.86789 -2.108358,1.73075 -3.128134,2.63709 -1.457057,1.02843 -2.750439,2.25553 -4.154563,3.35358 -0.797111,0.67257 -1.633468,1.28957 -2.433595,1.9576 0,0 -0.745723,-0.065 -0.745723,-0.065 v 0 c 0.805821,-0.66557 1.63911,-1.2896 2.442772,-1.95909 1.406453,-1.09282 2.689554,-2.32789 4.149497,-3.34908 1.020792,-0.91407 2.097841,-1.76361 3.126401,-2.66476 0.997213,-0.37642 2.025268,-0.44263 3.073874,-0.68483 1.875943,-0.23925 3.698553,-0.86686 5.611297,-0.77116 1.926598,-0.14386 2.999617,-0.23739 4.757925,-0.20654 0.01372,4.2e-4 0.868329,-0.019 0.894663,0.1242 0.02335,0.12677 -0.513611,0.044 -0.385473,0.0302 0.644794,-0.0698 1.189674,-0.14505 1.816112,-0.029 1.066764,0.31368 2.164153,0.37796 3.226384,0.65757 0.876082,0.22868 1.760703,0.40695 2.631032,0.65783 -0.811863,0.11015 -0.0083,-0.012 0.786643,0.0272 0.427964,0.021 0.856586,0.37959 1.308317,0.3064 1.569817,0.13938 3.125037,0.062 4.70935,0.006 1.310447,0.13324 2.839787,-0.15413 3.7755099,0.0253 0.778198,-0.16497 1.59109,-0.0996 2.312653,-0.51399 1.5957013,-0.2198 3.0963173,-0.93232 4.6297855,-1.39177 2.141684,-0.80626 4.3292633,-1.53047 6.3935683,-2.51466 1.1176034,-0.77848 2.3610398,-1.37272 3.3158577,-2.37178 0,0 0.746338,0.0532 0.746338,0.0532 z"
         id="path1845"
         style="opacity:1;fill:none;fill-opacity:0.90165872;fill-rule:nonzero;stroke:#ffff6a;stroke-width:5;stroke-miterlimit:4;stroke-dasharray:none;stroke-opacity:1" />
      <path
         style="opacity:1;fill:none;fill-opacity:0.90165872;fill-rule:nonzero;stroke:#ffff6a;stroke-width:5;stroke-miterlimit:4;stroke-dasharray:none;stroke-opacity:1"
         id="path1847"
         d="m 23.549806,170.63975 c -0.434673,1.31738 -1.283813,2.40302 -1.971563,3.58515 -1.426553,1.79426 -3.106991,3.38308 -4.694597,5.03823 -1.178031,1.08518 -2.238675,2.3474 -3.566306,3.25795 -0.494174,0.65811 -1.223549,0.98757 -1.86723,1.45414 -1.6238478,0.67268 -3.153304,1.51251 -4.7436427,2.24366 -1.3547052,0.79357 -2.7869969,1.48353 -4.2642501,2.01858 -1.84614365,0.46392 -0.4228179,-0.0935 -2.03705255,0.59944 -0.899617,0.12555 -1.77064435,0.36225 -2.66285135,0.52595 -1.0767912,0.21364 -2.0952803,0.62766 -3.1991493,0.79215 -2.186674,0.73942 1.484373,-0.38391 -1.283374,0.6289 -1.565989,0.57303 0.783159,-0.54775 -0.857096,0.27473 0.06258,-0.0254 0.246046,-0.11046 0.188382,-0.0753 -0.563697,0.35025 -0.993101,0.39992 -1.661475,0.73411 -0.06025,0.0298 0.253635,-0.0346 0.201456,0.008 -0.481049,0.39074 -1.074004,0.61873 -1.612327,0.92581 -1.76325,0.74058 -3.151515,2.06985 -4.733183,3.1029 -0.824557,0.67246 -1.748193,1.15591 -2.480555,1.92108 -0.575587,1.23515 -1.159888,2.46888 -1.691163,3.72551 -0.873642,1.55481 -1.514113,3.21867 -2.310038,4.81359 -0.43069,0.94987 -0.920699,1.86642 -1.356064,2.81348 0,0 -0.701276,0.2618 -0.701276,0.2618 v 0 c 0.441563,-0.94729 0.92578,-1.86887 1.363709,-2.81877 0.800276,-1.5912 1.428039,-3.25783 2.307398,-4.80734 0.52887,-1.26406 1.13627,-2.49403 1.677707,-3.74975 0.738646,-0.76846 1.63846,-1.27007 2.481196,-1.93943 1.591036,-1.02225 2.96701,-2.37225 4.735228,-3.10788 1.677771,-0.9579 2.606444,-1.5035 4.207345,-2.23132 0.01257,-0.006 0.775881,-0.39034 0.861202,-0.27235 0.07557,0.10443 -0.444849,0.26046 -0.335079,0.19293 0.552211,-0.34014 1.011863,-0.64226 1.627373,-0.8067 1.0980318,-0.17523 2.1165314,-0.58881 3.1958281,-0.79286 0.88932765,-0.17003 1.76470065,-0.38925 2.6583745,-0.53676 -0.68572225,0.44837 -0.012652,-0.007 0.7219794,-0.31352 0.39545,-0.16497 0.9365807,-0.0254 1.3130106,-0.28562 1.4773484,-0.54881 2.8483594,-1.28707 4.254828,-2.01853 1.2405147,-0.44288 2.4979099,-1.35963 3.4199234,-1.59976 0.631765,-0.4834 1.39385,-0.77374 1.867283,-1.45801 1.346355,-0.88425 2.395097,-2.17254 3.582264,-3.24643 1.587299,-1.64844 3.251303,-3.24252 4.692264,-5.01836 0.674558,-1.18323 1.541916,-2.25419 1.974689,-3.56663 0,0 0.69676,-0.27272 0.69676,-0.27272 z"
         inkscape:connector-curvature="0" />
      <path
         inkscape:connector-curvature="0"
         d="m 57.491864,180.40567 c 0.345062,1.34364 0.216132,2.71587 0.275144,4.08224 -0.232584,2.28042 -0.789779,4.52491 -1.233025,6.77515 -0.406057,1.54935 -0.617742,3.18439 -1.24399,4.66746 -0.06084,0.82075 -0.497057,1.49175 -0.787134,2.23193 -1.003998,1.44269 -1.83832,2.97516 -2.782552,4.449 -0.712174,1.39921 -1.545584,2.75306 -2.50045,4.00078 -1.303807,1.38692 -0.406413,0.14948 -1.391384,1.60404 -0.689588,0.59122 -1.29512,1.26059 -1.95788,1.87992 -0.7912,0.76101 -1.425173,1.65923 -2.265695,2.39347 -1.441797,1.80264 1.04243,-1.12432 -0.740997,1.22208 -1.00907,1.32758 0.363685,-0.8838 -0.573278,0.69386 0.03897,-0.0551 0.147519,-0.22578 0.117951,-0.16506 -0.285521,0.59909 -0.62021,0.87266 -1.002521,1.51472 -0.03464,0.0576 0.19485,-0.16602 0.173914,-0.10199 -0.19409,0.58857 -0.570226,1.10052 -0.857684,1.64957 -1.084708,1.5751 -1.536016,3.4434 -2.310012,5.16671 -0.331229,1.01113 -0.847878,1.91661 -1.051457,2.95603 0.182053,1.35047 0.356004,2.70444 0.586954,4.04907 0.103655,1.78043 0.462461,3.52683 0.65319,5.29908 0.150069,1.0321 0.232217,2.06816 0.376833,3.10042 0,0 -0.449079,0.59888 -0.449079,0.59888 v 0 c -0.139523,-1.0358 -0.229261,-2.07297 -0.373252,-3.109 -0.185059,-1.77147 -0.556058,-3.51334 -0.65204,-5.29239 -0.236984,-1.34959 -0.38946,-2.71286 -0.611363,-4.06221 0.207093,-1.04559 0.693886,-1.9535 1.042092,-2.97183 0.787711,-1.71928 1.217484,-3.5984 2.309046,-5.17201 0.89546,-1.71191 1.382807,-2.67243 2.337727,-4.14916 0.0073,-0.0118 0.442513,-0.74736 0.57802,-0.69407 0.11998,0.0471 -0.233928,0.45935 -0.177963,0.34326 0.281307,-0.58438 0.505213,-1.0868 0.934634,-1.55742 0.829813,-0.74013 1.464031,-1.638 2.262517,-2.39228 0.65692,-0.62311 1.275544,-1.2801 1.948277,-1.8866 -0.335293,0.74755 -0.01443,9.3e-4 0.438594,-0.6536 0.243877,-0.3523 0.774758,-0.52685 0.951216,-0.94908 0.947519,-1.25935 1.703272,-2.6208 2.492544,-3.99566 0.80531,-1.04235 1.369083,-2.49274 2.015686,-3.1925 0.270963,-0.74792 0.755831,-1.40365 0.785091,-2.23522 0.656204,-1.47104 0.843799,-3.1216 1.263641,-4.66638 0.446609,-2.24442 0.98713,-4.48447 1.241785,-6.75716 -0.07071,-1.36017 0.08148,-2.72988 -0.262517,-4.06834 0,0 0.439383,-0.60563 0.439383,-0.60563 z"
         id="path1849"
         style="opacity:1;fill:none;fill-opacity:0.90165872;fill-rule:nonzero;stroke:#ffff6a;stroke-width:5;stroke-miterlimit:4;stroke-dasharray:none;stroke-opacity:1" />
    </g>
  </g>
</svg>
