<?xml version="1.0" encoding="UTF-8" standalone="no"?>
<!-- Created with Inkscape (http://www.inkscape.org/) -->

<svg
   xmlns:dc="http://purl.org/dc/elements/1.1/"
   xmlns:cc="http://creativecommons.org/ns#"
   xmlns:rdf="http://www.w3.org/1999/02/22-rdf-syntax-ns#"
   xmlns:svg="http://www.w3.org/2000/svg"
   xmlns="http://www.w3.org/2000/svg"
   xmlns:sodipodi="http://sodipodi.sourceforge.net/DTD/sodipodi-0.dtd"
   xmlns:inkscape="http://www.inkscape.org/namespaces/inkscape"
   width="210mm"
   height="297mm"
   viewBox="0 0 210 297"
   version="1.1"
   id="svg8"
   inkscape:version="0.92.2 5c3e80d, 2017-08-06"
   sodipodi:docname="balloons.svg">
  <defs
     id="defs2" />
  <sodipodi:namedview
     id="base"
     pagecolor="#ffffff"
     bordercolor="#666666"
     borderopacity="1.0"
     inkscape:pageopacity="0.0"
     inkscape:pageshadow="2"
     inkscape:zoom="0.175"
     inkscape:cx="-262.76706"
     inkscape:cy="399.36796"
     inkscape:document-units="mm"
     inkscape:current-layer="layer1"
     showgrid="false"
     inkscape:window-width="1440"
     inkscape:window-height="782"
     inkscape:window-x="0"
     inkscape:window-y="1"
     inkscape:window-maximized="1" />
  <metadata
     id="metadata5">
    <rdf:RDF>
      <cc:Work
         rdf:about="">
        <dc:format>image/svg+xml</dc:format>
        <dc:type
           rdf:resource="http://purl.org/dc/dcmitype/StillImage" />
        <dc:title></dc:title>
      </cc:Work>
    </rdf:RDF>
  </metadata>
  <g
     inkscape:label="Layer 1"
     inkscape:groupmode="layer"
     id="layer1"
     style="opacity:1">
    <g
       id="g1067"
       transform="matrix(0.69403874,0,0,0.68851816,148.93515,-27.533935)">
      <path
         inkscape:connector-curvature="0"
         id="path1062"
         d="m -129.57022,231.73527 c 0,-0.19392 1.11105,-1.5422 2.46901,-2.99613 2.81124,-3.00993 4.15147,-5.76155 6.76227,-13.88364 2.34125,-7.2835 3.83067,-14.03724 3.9161,-17.75741 0.0686,-2.98889 0.10052,-3.08279 1.12808,-3.32269 2.47734,-0.57837 9.72187,-1.34801 10.03296,-1.06589 0.45497,0.41263 1.06578,3.74761 1.06821,5.8324 9.3e-4,0.9256 -0.31527,2.55147 -0.703,3.61303 -2.0051,5.4898 0.49522,20.52383 4.1482,24.94239 0.67076,0.81134 1.043142,1.59791 0.842597,1.77978 -0.197657,0.17926 -1.916937,0.65933 -3.820637,1.0668 -5.41845,1.1598 -25.84379,2.57558 -25.84379,1.79136 z"
         style="opacity:1;fill:#24c298;fill-opacity:0.98823529;fill-rule:nonzero;stroke:none;stroke-width:8.06903839;stroke-miterlimit:4;stroke-dasharray:none;stroke-opacity:1" />
      <path
         inkscape:connector-curvature="0"
         id="path1038"
         d="m -37.041659,105.74404 c 0.960656,43.71248 -30.532943,80.20514 -63.582031,104.96287 -25.48107,12.85774 -48.39901,-10.35031 -62.46429,-29.23037 -22.55313,-25.08967 -39.28172,-58.35421 -33.31148,-92.919488 3.50506,-34.538533 29.39058,-67.293015 65.15834,-71.423744 39.130296,-7.026291 82.595111,18.208553 90.01599,58.582933 2.718026,9.76409 4.154036,19.89024 4.183471,30.027799 z"
         style="opacity:1;fill:#25c398;fill-opacity:0.98578198;fill-rule:nonzero;stroke:none;stroke-width:5;stroke-miterlimit:4;stroke-dasharray:none;stroke-opacity:1" />
      <path
         inkscape:connector-curvature="0"
         id="path1041"
         d="m -144.46249,26.574487 c -29.52542,7.889866 -49.38023,41.419369 -41.72089,71.079108 2.76343,-9.296445 2.90634,-24.158357 10.25459,-33.892375 9.6512,-17.103095 27.07177,-28.440581 45.78395,-33.267954 4.35287,-0.725867 21.45622,-4.650856 8.78226,-6.970907 -7.83986,-1.265925 -15.53056,1.427507 -23.09991,3.052128 z"
         style="opacity:1;fill:#fbfefd;fill-opacity:0.98578198;fill-rule:nonzero;stroke:none;stroke-width:5;stroke-miterlimit:4;stroke-dasharray:none;stroke-opacity:1" />
    </g>
    <g
       id="g1108"
       transform="translate(40.065476,-55.940476)">
      <path
         style="opacity:1;fill:#6c71d6;fill-opacity:0.98659973;fill-rule:nonzero;stroke:none;stroke-width:5.57790804;stroke-miterlimit:4;stroke-dasharray:none;stroke-opacity:1"
         d="m 191.30007,160.7462 c 0,-0.13352 0.77111,-1.06184 1.71359,-2.06289 1.95111,-2.07239 2.88128,-3.96693 4.69327,-9.55914 1.62492,-5.01482 2.65864,-9.6649 2.71793,-12.2263 0.0476,-2.0579 0.0698,-2.12256 0.78293,-2.28773 1.71937,-0.39822 6.74735,-0.92813 6.96326,-0.73389 0.31577,0.28411 0.7397,2.5803 0.74138,4.01572 6.5e-4,0.63729 -0.21881,1.75673 -0.48791,2.48763 -1.39161,3.77983 0.3437,14.13103 2.87901,17.17329 0.46554,0.55862 0.72399,1.10019 0.5848,1.22541 -0.13718,0.12343 -1.33043,0.45396 -2.65167,0.73451 -3.76061,0.79855 -17.93659,1.77334 -17.93659,1.23339 z"
         id="path1069"
         inkscape:connector-curvature="0" />
      <path
         style="opacity:1;fill:#6c71d6;fill-opacity:0.98659973;fill-rule:nonzero;stroke:none;stroke-width:3.45636463;stroke-miterlimit:4;stroke-dasharray:none;stroke-opacity:1"
         d="m 255.51847,73.998948 c 0.66674,30.096832 -21.19104,55.222692 -44.12839,72.268842 -17.68485,8.85279 -33.59079,-7.12638 -43.35264,-20.12564 -15.65274,-17.27469 -27.26303,-40.177934 -23.11945,-63.976756 2.43264,-23.780407 20.3982,-46.332463 45.22241,-49.176545 27.15794,-4.8377285 57.32421,12.53692 62.47458,40.335414 1.88642,6.722753 2.88306,13.694791 2.90349,20.674685 z"
         id="path1071"
         inkscape:connector-curvature="0" />
      <path
         style="opacity:1;fill:#e8e9f9;fill-opacity:0.98659973;fill-rule:nonzero;stroke:none;stroke-width:3.45636463;stroke-miterlimit:4;stroke-dasharray:none;stroke-opacity:1"
         d="m 180.96426,19.489273 c -20.49179,5.432316 -34.2718,28.517987 -28.95592,48.939256 1.91793,-6.400771 2.01711,-16.633467 7.11708,-23.335515 6.69831,-11.775792 18.78886,-19.581857 31.77584,-22.905591 3.02106,-0.499772 14.89145,-3.202199 6.09523,-4.799596 -5.44117,-0.871612 -10.77881,0.982865 -16.03223,2.101446 z"
         id="path1073"
         inkscape:connector-curvature="0" />
    </g>
    <g
       id="g1214"
       transform="translate(-122.46429,-33.261905)"
       inkscape:export-filename="/Users/jayantha/Desktop/Personal/Youtube_Channel/Art-works/Components/png/balloon.png"
       inkscape:export-xdpi="96"
       inkscape:export-ydpi="96">
      <path
         inkscape:connector-curvature="0"
         id="path1160"
         d="m -148.9975,275.54335 c 19.53949,7.94844 2.02022,31.38375 0.0901,45.39046 -11.91095,38.48704 -30.15928,75.48927 -34.71885,115.89684 -0.0771,3.85097 0.72807,7.83916 2.95368,11.05744"
         style="fill:none;stroke:#000000;stroke-width:0.26458332px;stroke-linecap:butt;stroke-linejoin:miter;stroke-opacity:1" />
      <g
         id="g1121"
         transform="matrix(0.60606317,-0.33819699,0.33550688,0.60124237,-192.60388,86.399022)">
        <path
           inkscape:connector-curvature="0"
           id="path1115"
           d="m -129.57022,231.73527 c 0,-0.19392 1.11105,-1.5422 2.46901,-2.99613 2.81124,-3.00993 4.15147,-5.76155 6.76227,-13.88364 2.34125,-7.2835 3.83067,-14.03724 3.9161,-17.75741 0.0686,-2.98889 0.10052,-3.08279 1.12808,-3.32269 2.47734,-0.57837 9.72187,-1.34801 10.03296,-1.06589 0.45497,0.41263 1.06578,3.74761 1.06821,5.8324 9.3e-4,0.9256 -0.31527,2.55147 -0.703,3.61303 -2.0051,5.4898 0.49522,20.52383 4.1482,24.94239 0.67076,0.81134 1.043142,1.59791 0.842597,1.77978 -0.197657,0.17926 -1.916937,0.65933 -3.820637,1.0668 -5.41845,1.1598 -25.84379,2.57558 -25.84379,1.79136 z"
           style="opacity:1;fill:#24c298;fill-opacity:0.98823529;fill-rule:nonzero;stroke:none;stroke-width:8.06903839;stroke-miterlimit:4;stroke-dasharray:none;stroke-opacity:1" />
        <path
           inkscape:connector-curvature="0"
           id="path1117"
           d="m -37.041659,105.74404 c 0.960656,43.71248 -30.532943,80.20514 -63.582031,104.96287 -25.48107,12.85774 -48.39901,-10.35031 -62.46429,-29.23037 -22.55313,-25.08967 -39.28172,-58.35421 -33.31148,-92.919488 3.50506,-34.538533 29.39058,-67.293015 65.15834,-71.423744 39.130296,-7.026291 82.595111,18.208553 90.01599,58.582933 2.718026,9.76409 4.154036,19.89024 4.183471,30.027799 z"
           style="opacity:1;fill:#25c398;fill-opacity:0.98578198;fill-rule:nonzero;stroke:none;stroke-width:5;stroke-miterlimit:4;stroke-dasharray:none;stroke-opacity:1" />
        <path
           inkscape:connector-curvature="0"
           id="path1119"
           d="m -144.46249,26.574487 c -29.52542,7.889866 -49.38023,41.419369 -41.72089,71.079108 2.76343,-9.296445 2.90634,-24.158357 10.25459,-33.892375 9.6512,-17.103095 27.07177,-28.440581 45.78395,-33.267954 4.35287,-0.725867 21.45622,-4.650856 8.78226,-6.970907 -7.83986,-1.265925 -15.53056,1.427507 -23.09991,3.052128 z"
           style="opacity:1;fill:#fbfefd;fill-opacity:0.98578198;fill-rule:nonzero;stroke:none;stroke-width:5;stroke-miterlimit:4;stroke-dasharray:none;stroke-opacity:1" />
      </g>
      <path
         inkscape:connector-curvature="0"
         id="path1131"
         d="m -188.99963,169.09263 c -0.0219,-0.13172 0.58691,-1.17373 1.35283,-2.31554 1.5856,-2.36379 2.19314,-4.38503 3.06539,-10.1984 0.7822,-5.21315 1.04088,-9.96972 0.68013,-12.50628 -0.28987,-2.03794 -0.27855,-2.10536 0.39793,-2.38503 1.631,-0.67426 6.50444,-2.01998 6.74923,-1.8637 0.35802,0.22859 1.15206,2.42443 1.38866,3.84022 0.10495,0.62859 0.0717,1.76885 -0.0742,2.53394 -0.75418,3.95663 2.65197,13.88421 5.65103,16.47047 0.55069,0.47489 0.8943,0.96686 0.77748,1.11317 -0.11513,0.14422 -1.23818,0.6656 -2.49569,1.15862 -3.57919,1.4033 -17.40445,4.6852 -17.49282,4.15253 z"
         style="opacity:1;fill:#394be2;fill-opacity:1;fill-rule:nonzero;stroke:none;stroke-width:5.57790804;stroke-miterlimit:4;stroke-dasharray:none;stroke-opacity:1" />
      <path
         inkscape:connector-curvature="0"
         id="path1133"
         d="m -142.36206,65.821282 c 9.46696,28.576922 -4.05783,59.009658 -20.98505,82.034918 -14.30952,13.65149 -34.20342,3.04178 -47.34935,-6.52164 -20.0319,-11.9225 -37.85048,-30.41184 -40.87113,-54.379091 -4.65089,-23.4477 5.90802,-50.278017 28.80555,-60.279675 24.5437,-12.592231 58.47984,-4.832023 71.55888,20.232322 3.77568,5.873519 6.77387,12.24639 8.8411,18.913166 z"
         style="opacity:1;fill:#394be2;fill-opacity:1;fill-rule:nonzero;stroke:none;stroke-width:3.45636463;stroke-miterlimit:4;stroke-dasharray:none;stroke-opacity:1" />
      <path
         inkscape:connector-curvature="0"
         id="path1135"
         d="m -222.31632,31.432371 c -19.32631,8.713057 -29.14193,33.742847 -20.55528,53.018642 0.84441,-6.628369 -0.73258,-16.739303 3.20165,-24.185708 4.68057,-12.713334 15.33041,-22.393053 27.59824,-27.797611 2.89852,-0.987505 14.16651,-5.596377 5.22746,-5.732508 -5.51046,0.03073 -10.47258,2.733834 -15.47207,4.697185 z"
         style="opacity:1;fill:#e8e9f9;fill-opacity:0.98659973;fill-rule:nonzero;stroke:none;stroke-width:3.45636463;stroke-miterlimit:4;stroke-dasharray:none;stroke-opacity:1" />
      <g
         transform="rotate(23.084829,61.353426,-290.83542)"
         id="g1145">
        <path
           style="opacity:1;fill:#fbf663;fill-opacity:0.98714492;fill-rule:nonzero;stroke:none;stroke-width:5.57790804;stroke-miterlimit:4;stroke-dasharray:none;stroke-opacity:1"
           d="m 85.466737,315.71644 c 0,-0.13352 0.77111,-1.06184 1.71359,-2.06289 1.95111,-2.07239 2.88128,-3.96693 4.69327,-9.55914 1.62492,-5.01482 2.65864,-9.6649 2.71793,-12.2263 0.0476,-2.0579 0.0698,-2.12256 0.78293,-2.28773 1.71937,-0.39822 6.747353,-0.92813 6.963263,-0.73389 0.31577,0.28411 0.7397,2.5803 0.74138,4.01572 6.5e-4,0.63729 -0.21881,1.75673 -0.48791,2.48763 -1.39161,3.77983 0.3437,14.13103 2.87901,17.17329 0.46554,0.55862 0.72399,1.10019 0.5848,1.22541 -0.13718,0.12343 -1.33043,0.45396 -2.65167,0.73451 -3.760613,0.79855 -17.936593,1.77334 -17.936593,1.23339 z"
           id="path1099"
           inkscape:connector-curvature="0" />
        <path
           style="opacity:1;fill:#f9f21f;fill-opacity:0.98714492;fill-rule:nonzero;stroke:none;stroke-width:3.45636463;stroke-miterlimit:4;stroke-dasharray:none;stroke-opacity:1"
           d="m 149.68514,228.96919 c 0.66674,30.09683 -21.19104,55.22269 -44.12839,72.26884 -17.684853,8.85279 -33.590793,-7.12638 -43.352643,-20.12564 -15.65274,-17.27469 -27.26303,-40.17794 -23.11945,-63.97676 2.43264,-23.7804 20.3982,-46.33246 45.22241,-49.17654 27.157943,-4.83773 57.324213,12.53692 62.474583,40.33541 1.88642,6.72275 2.88306,13.69479 2.90349,20.67469 z"
           id="path1101"
           inkscape:connector-curvature="0" />
        <path
           style="opacity:1;fill:#fffff8;fill-opacity:0.98714492;fill-rule:nonzero;stroke:none;stroke-width:3.45636463;stroke-miterlimit:4;stroke-dasharray:none;stroke-opacity:1"
           d="m 75.130927,174.45951 c -20.49179,5.43232 -34.2718,28.51799 -28.95592,48.93926 1.91793,-6.40077 2.01711,-16.63347 7.11708,-23.33552 6.69831,-11.77579 18.78886,-19.58185 31.77584,-22.90559 3.02106,-0.49977 14.89145,-3.2022 6.09523,-4.79959 -5.44117,-0.87162 -10.77881,0.98286 -16.03223,2.10144 z"
           id="path1103"
           inkscape:connector-curvature="0" />
      </g>
      <g
         transform="rotate(15.492718,-244.93585,21.609877)"
         id="g1156">
        <path
           inkscape:connector-curvature="0"
           id="path1123"
           d="m -106.08304,124.23299 c 0,-0.13352 0.77111,-1.06184 1.71359,-2.06289 1.95111,-2.07239 2.88128,-3.96693 4.693267,-9.55914 1.62492,-5.01482 2.65864,-9.6649 2.71793,-12.2263 0.0476,-2.0579 0.0698,-2.12256 0.78293,-2.28773 1.71937,-0.39822 6.747353,-0.92813 6.963263,-0.73389 0.31577,0.28411 0.7397,2.5803 0.74138,4.01572 6.5e-4,0.63729 -0.21881,1.75673 -0.48791,2.48763 -1.39161,3.77983 0.3437,14.13103 2.87901,17.17329 0.46554,0.55862 0.72399,1.10019 0.5848,1.22541 -0.13718,0.12343 -1.33043,0.45396 -2.65167,0.73451 -3.760613,0.79855 -17.93659,1.77334 -17.93659,1.23339 z"
           style="opacity:1;fill:#e23939;fill-opacity:1;fill-rule:nonzero;stroke:none;stroke-width:5.57790804;stroke-miterlimit:4;stroke-dasharray:none;stroke-opacity:1" />
        <path
           inkscape:connector-curvature="0"
           id="path1125"
           d="m -41.86464,37.48574 c 0.66674,30.09683 -21.19104,55.22269 -44.12839,72.26884 -17.68485,8.85279 -33.59079,-7.12638 -43.35264,-20.12564 -15.65274,-17.27469 -27.26303,-40.17794 -23.11945,-63.97676 2.43264,-23.7804 20.3982,-46.33246 45.22241,-49.17654 27.15794,-4.83773 57.32421,12.53692 62.47458,40.33541 1.88642,6.72275 2.88306,13.69479 2.90349,20.67469 z"
           style="opacity:1;fill:#e23939;fill-opacity:1;fill-rule:nonzero;stroke:none;stroke-width:3.45636463;stroke-miterlimit:4;stroke-dasharray:none;stroke-opacity:1" />
        <path
           inkscape:connector-curvature="0"
           id="path1127"
           d="m -116.41885,-17.02394 c -20.49179,5.43232 -34.2718,28.51799 -28.95592,48.93926 1.91793,-6.40077 2.01711,-16.63347 7.11708,-23.33552 6.69831,-11.77579 18.78886,-19.58185 31.77584,-22.90559 3.02106,-0.49977 14.891447,-3.2022 6.09523,-4.79959 -5.44117,-0.87162 -10.77881,0.98286 -16.03223,2.10144 z"
           style="opacity:1;fill:#fefbfb;fill-opacity:1;fill-rule:nonzero;stroke:none;stroke-width:3.45636463;stroke-miterlimit:4;stroke-dasharray:none;stroke-opacity:1" />
      </g>
      <path
         inkscape:connector-curvature="0"
         id="path1158"
         d="m -179.57561,162.50419 c -0.25949,95.51399 -3.92707,190.97131 -6.38867,286.44223"
         style="fill:none;stroke:#000000;stroke-width:0.26458332px;stroke-linecap:butt;stroke-linejoin:miter;stroke-opacity:1" />
      <path
         inkscape:connector-curvature="0"
         id="path1162"
         d="m -125.84254,157.59391 c 22.50939,23.53309 -12.51912,56.242 -13.39948,83.93709 -22.44375,67.87369 -18.53648,141.1196 -46.72226,207.41542"
         style="fill:none;stroke:#000000;stroke-width:0.26458332px;stroke-linecap:butt;stroke-linejoin:miter;stroke-opacity:1" />
      <path
         inkscape:connector-curvature="0"
         id="path1164"
         d="m -179.92881,266.3757 c 12.26332,36.51678 -8.6122,77.99166 -6.90077,116.68549 -2.08912,21.88883 -2.81401,44.01752 0.8653,64.97809"
         style="fill:none;stroke:#000000;stroke-width:0.28072891px;stroke-linecap:butt;stroke-linejoin:miter;stroke-opacity:1" />
    </g>
  </g>
</svg>
