<?xml version="1.0" encoding="UTF-8" standalone="no"?>
<!-- Created with Inkscape (http://www.inkscape.org/) -->

<svg
   xmlns:dc="http://purl.org/dc/elements/1.1/"
   xmlns:cc="http://creativecommons.org/ns#"
   xmlns:rdf="http://www.w3.org/1999/02/22-rdf-syntax-ns#"
   xmlns:svg="http://www.w3.org/2000/svg"
   xmlns="http://www.w3.org/2000/svg"
   xmlns:sodipodi="http://sodipodi.sourceforge.net/DTD/sodipodi-0.dtd"
   xmlns:inkscape="http://www.inkscape.org/namespaces/inkscape"
   width="210mm"
   height="297mm"
   viewBox="0 0 210 297"
   version="1.1"
   id="svg8"
   inkscape:version="0.92.2 5c3e80d, 2017-08-06"
   sodipodi:docname="bee.svg">
  <defs
     id="defs2">
    <inkscape:path-effect
       effect="bspline"
       id="path-effect907"
       is_visible="true"
       weight="33.333333"
       steps="2"
       helper_size="0"
       apply_no_weight="true"
       apply_with_weight="true"
       only_selected="false" />
    <inkscape:path-effect
       effect="bspline"
       id="path-effect903"
       is_visible="true"
       weight="33.333333"
       steps="2"
       helper_size="0"
       apply_no_weight="true"
       apply_with_weight="true"
       only_selected="false" />
    <inkscape:path-effect
       effect="bspline"
       id="path-effect885"
       is_visible="true"
       weight="33.333333"
       steps="2"
       helper_size="0"
       apply_no_weight="true"
       apply_with_weight="true"
       only_selected="false" />
    <inkscape:path-effect
       effect="bspline"
       id="path-effect881"
       is_visible="true"
       weight="33.333333"
       steps="2"
       helper_size="0"
       apply_no_weight="true"
       apply_with_weight="true"
       only_selected="false" />
    <inkscape:path-effect
       effect="bspline"
       id="path-effect877"
       is_visible="true"
       weight="33.333333"
       steps="2"
       helper_size="0"
       apply_no_weight="true"
       apply_with_weight="true"
       only_selected="false" />
    <inkscape:path-effect
       effect="bspline"
       id="path-effect873"
       is_visible="true"
       weight="33.333333"
       steps="2"
       helper_size="0"
       apply_no_weight="true"
       apply_with_weight="true"
       only_selected="false" />
  </defs>
  <sodipodi:namedview
     id="base"
     pagecolor="#ffffff"
     bordercolor="#666666"
     borderopacity="1.0"
     inkscape:pageopacity="0.0"
     inkscape:pageshadow="2"
     inkscape:zoom="0.98994949"
     inkscape:cx="360.06623"
     inkscape:cy="445.39385"
     inkscape:document-units="mm"
     inkscape:current-layer="layer1"
     showgrid="false"
     inkscape:window-width="1440"
     inkscape:window-height="782"
     inkscape:window-x="0"
     inkscape:window-y="1"
     inkscape:window-maximized="1" />
  <metadata
     id="metadata5">
    <rdf:RDF>
      <cc:Work
         rdf:about="">
        <dc:format>image/svg+xml</dc:format>
        <dc:type
           rdf:resource="http://purl.org/dc/dcmitype/StillImage" />
        <dc:title></dc:title>
      </cc:Work>
    </rdf:RDF>
  </metadata>
  <g
     inkscape:label="Layer 1"
     inkscape:groupmode="layer"
     id="layer1">
    <path
       style="fill:none;stroke:#000000;stroke-width:1;stroke-linecap:butt;stroke-linejoin:miter;stroke-opacity:1;stroke-miterlimit:4;stroke-dasharray:none"
       d="m 137.10927,169.24516 c -0.16611,-2.80526 -0.13336,-5.68564 1.50265,-8.08643 1.70262,-3.20464 4.5868,-5.8167 7.99102,-7.0935 0.9092,-0.23953 1.9826,-0.10419 2.80032,-0.58902"
       id="path926"
       inkscape:connector-curvature="0" />
    <path
       style="fill:none;stroke:#000000;stroke-width:1;stroke-linecap:butt;stroke-linejoin:miter;stroke-opacity:1;stroke-miterlimit:4;stroke-dasharray:none"
       d="m 137.10927,169.24516 c 7.10109,0.45759 9.59361,-8.77169 16.55172,-9.07996 2.80542,-0.63951 5.70918,-0.73027 8.5716,-0.54174"
       id="path928"
       inkscape:connector-curvature="0" />
    <path
       style="opacity:1;fill:#800000;fill-opacity:0.8530806;fill-rule:nonzero;stroke:none;stroke-width:1;stroke-miterlimit:4;stroke-dasharray:none;stroke-opacity:1"
       d="M 7.9284567,188.38219 21.974626,192.923 v -9.99939 z"
       id="path839"
       inkscape:connector-curvature="0" />
    <path
       style="opacity:1;fill:#c5cefa;fill-opacity:0.65882355;fill-rule:nonzero;stroke:none;stroke-width:0.86699796;stroke-miterlimit:4;stroke-dasharray:none;stroke-opacity:1"
       d="m 102.35339,169.81543 c 0,0 -45.593656,-28.86716 -48.900991,-51.88044 -1.768411,-12.30503 5.10055,-29.12947 17.360524,-33.398418 11.969919,-4.167948 28.337524,4.1994 35.073457,14.493658 13.12207,20.05393 -3.53299,70.7852 -3.53299,70.7852 z"
       id="rect815"
       inkscape:connector-curvature="0"
       sodipodi:nodetypes="caaac" />
    <ellipse
       style="opacity:1;fill:#ffff00;fill-opacity:1;fill-rule:nonzero;stroke:#000000;stroke-width:1;stroke-miterlimit:4;stroke-dasharray:none;stroke-opacity:0.98578197"
       id="path830"
       cx="87.690475"
       cy="187.00891"
       rx="68.035713"
       ry="26.836309" />
    <path
       style="opacity:1;fill:#000000;fill-opacity:0.95734594;fill-rule:nonzero;stroke:none;stroke-width:0.68437362;stroke-miterlimit:4;stroke-dasharray:none;stroke-opacity:1"
       d="m 62.777409,160.92857 h 9.794017 c -13.806,17.13493 -21.564564,34.26985 0,51.40477 h -9.794017 c -18.866784,-16.37473 -15.425491,-33.64831 0,-51.40477 z"
       id="rect832"
       inkscape:connector-curvature="0"
       sodipodi:nodetypes="ccccc" />
    <path
       sodipodi:nodetypes="ccccc"
       inkscape:connector-curvature="0"
       id="path835"
       d="m 82.454222,160.78277 h 7.183111 c -10.125575,17.63889 -15.815851,35.27778 0,52.91667 h -7.183111 c -13.837253,-16.85634 -11.313344,-34.63797 0,-52.91667 z"
       style="opacity:1;fill:#000000;fill-opacity:1;fill-rule:nonzero;stroke:none;stroke-width:0.59465331;stroke-miterlimit:4;stroke-dasharray:none;stroke-opacity:1" />
    <path
       style="opacity:1;fill:#000000;fill-opacity:1;fill-rule:nonzero;stroke:none;stroke-width:0.59168661;stroke-miterlimit:4;stroke-dasharray:none;stroke-opacity:1"
       d="m 104.21902,160.72084 6.58212,0.81427 c -11.551045,17.46333 -18.533866,33.29813 -4.14338,50.76146 l -6.715056,0.81427 c -12.475097,-16.68857 -8.514215,-34.29322 4.276316,-52.39 z"
       id="path837"
       inkscape:connector-curvature="0"
       sodipodi:nodetypes="ccccc" />
    <ellipse
       style="opacity:1;fill:#ffffff;fill-opacity:0.97630334;fill-rule:nonzero;stroke:none;stroke-width:1.18385601;stroke-miterlimit:4;stroke-dasharray:none;stroke-opacity:0.98578198"
       id="path844"
       cx="139.11378"
       cy="179.6633"
       rx="4.9444861"
       ry="5.3453903" />
    <path
       sodipodi:nodetypes="caaac"
       inkscape:connector-curvature="0"
       id="path826"
       d="m 96.47346,167.41 c 0,0 -61.008742,-8.60659 -76.129784,-31.5378 C 12.258571,123.61105 10.624454,102.32976 20.878223,91.814767 30.889399,81.548546 51.770529,82.510209 63.866582,90.211151 87.43053,105.21312 96.47346,167.41 96.47346,167.41 Z"
       style="opacity:1;fill:#c5cefa;fill-opacity:0.65882353;fill-rule:nonzero;stroke:none;stroke-width:1;stroke-miterlimit:4;stroke-dasharray:none;stroke-opacity:1" />
    <path
       sodipodi:nodetypes="ccccc"
       inkscape:connector-curvature="0"
       id="path867"
       d="m 125.56836,164.1846 6.38132,3.22629 c -10.12561,15.0579 -16.35047,24.54313 -0.53454,39.60104 l -5.84678,2.3464 c -13.83731,-14.38986 -11.3134,-29.56963 0,-45.17373 z"
       style="opacity:1;fill:#000000;fill-opacity:1;fill-rule:nonzero;stroke:none;stroke-width:0.54942763;stroke-miterlimit:4;stroke-dasharray:none;stroke-opacity:1" />
    <path
       style="fill:none;stroke:#000000;stroke-width:1;stroke-linecap:butt;stroke-linejoin:miter;stroke-opacity:1;stroke-miterlimit:4;stroke-dasharray:none"
       inkscape:path-effect="#path-effect873"
       inkscape:original-d="m 72.571424,212.33334 c 0.999623,1.16552 4.150056,1.66547 3.471449,3.46789 -0.406268,1.61904 -1.524108,2.98875 -1.724712,4.64922 -0.04928,1.68353 -0.229689,3.43981 0.876528,4.85936 0.939127,1.69781 1.998818,3.31753 2.951752,5.01066 0.224237,0.13523 0.792235,1.29278 0.430797,0.66392"
       id="path871"
       d="m 72.571424,212.33334 c 1.083084,1.08197 2.909891,2.90691 2.902119,3.96523 -0.0078,1.05833 -0.589649,2.62686 -0.726239,4.20031 -0.136591,1.57344 0.164538,3.24286 0.798183,4.86245 0.633646,1.61959 1.615,3.28546 2.17207,4.22108 0.557071,0.93561 0.859681,1.40198 0.859681,1.40198"
       inkscape:connector-curvature="0" />
    <path
       style="fill:none;stroke:#000000;stroke-width:1;stroke-linecap:butt;stroke-linejoin:miter;stroke-opacity:1;stroke-miterlimit:4;stroke-dasharray:none"
       inkscape:path-effect="#path-effect877"
       inkscape:original-d="m 89.637332,213.69944 c 0.347854,1.18137 0.850183,2.35478 0.701128,3.61601 -0.001,3.21998 0.0019,6.43995 -0.0013,9.65993 0.579324,1.12423 1.177109,2.24381 1.499686,3.4707 0.305759,1.09396 1.052628,1.9094 1.467484,2.92863 0.281574,0.28229 0.587937,0.53298 0.346199,0.83059 0.889493,-0.0774 0.346168,0.3434 0.702933,0.74868 l -0.0073,-0.22778"
       id="path875"
       d="m 89.637332,213.69944 c 0.233367,1.20357 0.470843,2.42833 0.585769,4.63216 0.114926,2.20383 0.114492,5.4238 0.364524,7.61294 0.250032,2.18913 0.751739,3.35023 1.250238,4.42432 0.498498,1.07409 0.974988,2.02501 1.291689,2.68568 0.316701,0.66067 0.451072,0.98305 0.675084,1.26827 0.224012,0.28522 0.179438,0.23774 0.364132,0.43446 0.184694,0.19671 0.177394,-0.0311 0.177394,-0.0311"
       inkscape:connector-curvature="0" />
    <path
       style="fill:none;stroke:#000000;stroke-width:1;stroke-linecap:butt;stroke-linejoin:miter;stroke-opacity:1;stroke-miterlimit:4;stroke-dasharray:none"
       inkscape:path-effect="#path-effect881"
       inkscape:original-d="m 99.942702,213.11084 c 0.981988,1.13873 3.037288,1.80919 2.689838,3.66158 0.001,1.97555 0.001,3.9511 -0.001,5.92665 0.6953,1.19108 1.2485,2.45877 1.8738,3.65387 0.70931,1.0683 1.13182,2.17851 1.77379,3.22765 0.001,0.13517 -0.28007,0.52413 0.0941,0.0676"
       id="path879"
       d="m 99.942702,213.11084 c 0.887508,1.20813 1.927798,2.62424 2.308648,4.13068 0.38086,1.50645 0.38052,3.482 0.69456,5.08247 0.31404,1.60046 0.94396,2.82881 1.55942,3.98882 0.61545,1.16001 1.18206,2.19103 1.51029,2.75265 0.32822,0.56162 0.32713,0.56084 0.35761,0.58273"
       inkscape:connector-curvature="0" />
    <path
       style="fill:none;stroke:#000000;stroke-width:1;stroke-linecap:butt;stroke-linejoin:miter;stroke-opacity:1;stroke-miterlimit:4;stroke-dasharray:none"
       inkscape:path-effect="#path-effect885"
       inkscape:original-d="m 115.19316,210.93921 c 0.0288,1.1231 -0.0505,2.25482 0.0422,3.37246 0.30442,0.62754 0.0608,1.4096 0.47222,1.95939 0.53467,0.45831 0.0454,1.30617 0.84401,1.60543 0.41049,0.38164 -0.29363,1.00013 0.44583,1.2702 0.51728,0.81038 1.34933,1.45418 1.65542,2.35143 0.15268,0.2547 0.69452,0.43995 0.40489,0.60814 0.30661,-0.25002 0.47774,-0.17304 0.52267,0.13138 0.12057,0.29214 -0.0465,0.073 0.16935,0.34924 0.14752,0.31378 0.31057,-0.059 -0.009,0.18821 -0.003,0.42898 0.81651,-0.0264 0.28916,0.47233 0.26348,0.22989 0.90745,0.18587 0.63364,0.52103 0.82666,-0.22869 0.053,0.63297 0.67708,0.53422"
       id="path883"
       d="m 115.19316,210.93921 c 0.0141,1.12328 0.0282,2.25384 0.11503,3.14436 0.0868,0.89053 0.25158,1.57417 0.47776,2.17048 0.22618,0.5963 0.46945,1.05905 0.69969,1.57477 0.23023,0.51573 0.34628,0.84635 0.70547,1.47477 0.35918,0.62842 0.93795,1.45053 1.28203,1.94598 0.34409,0.49546 0.58459,0.85669 0.69923,0.88551 0.11464,0.0288 0.2938,0.0739 0.41974,0.23013 0.12594,0.15629 0.008,-0.0867 0.0784,0.16158 0.0703,0.2483 0.0793,0.0601 0.16987,0.30954 0.0906,0.24946 0.11124,0.28315 0.28538,0.45812 0.17415,0.17496 0.53675,0.47312 0.73643,0.63068 0.19967,0.15757 0.14186,0.11195 0.47847,0.37754"
       inkscape:connector-curvature="0" />
    <ellipse
       ry="5.3453903"
       rx="4.9444861"
       cy="178.60498"
       cx="145.4637"
       id="ellipse922"
       style="opacity:1;fill:#ffffff;fill-opacity:0.97630334;fill-rule:nonzero;stroke:none;stroke-width:1.18385601;stroke-miterlimit:4;stroke-dasharray:none;stroke-opacity:0.98578198" />
    <ellipse
       ry="2.6726952"
       rx="2.5390604"
       cy="178.89377"
       cx="146.81079"
       id="ellipse924"
       style="opacity:1;fill:#000000;fill-opacity:0.96682464;fill-rule:nonzero;stroke:none;stroke-width:0.77974355;stroke-miterlimit:4;stroke-dasharray:none;stroke-opacity:0.98578198" />
    <ellipse
       style="opacity:1;fill:#000000;fill-opacity:0.96682464;fill-rule:nonzero;stroke:none;stroke-width:0.77974355;stroke-miterlimit:4;stroke-dasharray:none;stroke-opacity:0.98578198"
       id="path899"
       cx="141.5192"
       cy="181.53957"
       rx="2.5390604"
       ry="2.6726952" />
    <ellipse
       style="opacity:1;fill:#000000;fill-opacity:0.96682464;fill-rule:nonzero;stroke:none;stroke-width:1;stroke-miterlimit:4;stroke-dasharray:none;stroke-opacity:0.98578198"
       id="path963"
       cx="150.74001"
       cy="153.87715"
       rx="2.4054255"
       ry="2.0045214" />
    <ellipse
       ry="2.0045214"
       rx="2.4054255"
       cy="159.74632"
       cx="162.76714"
       id="ellipse965"
       style="opacity:1;fill:#000000;fill-opacity:0.96682464;fill-rule:nonzero;stroke:none;stroke-width:1;stroke-miterlimit:4;stroke-dasharray:none;stroke-opacity:0.98578198" />
    <path
       style="fill:none;stroke:#000000;stroke-width:0.26458332px;stroke-linecap:butt;stroke-linejoin:miter;stroke-opacity:1"
       d="m 133.63476,191.16127 c 2.18278,1.52989 4.30944,3.69251 7.23599,3.26034 0.71588,-0.0145 1.43155,-0.11571 2.11846,-0.32002"
       id="path967"
       inkscape:connector-curvature="0" />
  </g>
</svg>
