<?xml version="1.0" encoding="UTF-8" standalone="no"?>
<!-- Created with Inkscape (http://www.inkscape.org/) -->

<svg
   xmlns:dc="http://purl.org/dc/elements/1.1/"
   xmlns:cc="http://creativecommons.org/ns#"
   xmlns:rdf="http://www.w3.org/1999/02/22-rdf-syntax-ns#"
   xmlns:svg="http://www.w3.org/2000/svg"
   xmlns="http://www.w3.org/2000/svg"
   xmlns:sodipodi="http://sodipodi.sourceforge.net/DTD/sodipodi-0.dtd"
   xmlns:inkscape="http://www.inkscape.org/namespaces/inkscape"
   width="210mm"
   height="297mm"
   viewBox="0 0 210 297"
   version="1.1"
   id="svg8"
   sodipodi:docname="eye.svg"
   inkscape:version="0.92.2 5c3e80d, 2017-08-06">
  <defs
     id="defs2">
    <filter
       inkscape:collect="always"
       style="color-interpolation-filters:sRGB"
       id="filter949"
       x="-0.11057143"
       width="1.2211429"
       y="-0.10554545"
       height="1.2110909">
      <feGaussianBlur
         inkscape:collect="always"
         stdDeviation="1.0343331"
         id="feGaussianBlur951" />
    </filter>
  </defs>
  <sodipodi:namedview
     id="base"
     pagecolor="#ffffff"
     bordercolor="#666666"
     borderopacity="1.0"
     inkscape:pageopacity="0.0"
     inkscape:pageshadow="2"
     inkscape:zoom="0.24748737"
     inkscape:cx="227.65584"
     inkscape:cy="281.16911"
     inkscape:document-units="mm"
     inkscape:current-layer="layer1"
     showgrid="false"
     inkscape:window-width="1440"
     inkscape:window-height="782"
     inkscape:window-x="0"
     inkscape:window-y="1"
     inkscape:window-maximized="1" />
  <metadata
     id="metadata5">
    <rdf:RDF>
      <cc:Work
         rdf:about="">
        <dc:format>image/svg+xml</dc:format>
        <dc:type
           rdf:resource="http://purl.org/dc/dcmitype/StillImage" />
      </cc:Work>
    </rdf:RDF>
  </metadata>
  <g
     inkscape:label="Layer 1"
     inkscape:groupmode="layer"
     id="layer1">
    <g
       id="g908"
       inkscape:export-filename="/Users/jayantha/Desktop/Personal/Youtube_Channel/Art-works/Components/Eye/eye_ball.png"
       inkscape:export-xdpi="96"
       inkscape:export-ydpi="96">
      <g
         transform="translate(-71.815476,21.166667)"
         id="g900">
        <ellipse
           ry="61.988094"
           rx="64.255951"
           cy="188.8988"
           cx="90.714287"
           id="ellipse896"
           style="opacity:1;fill:#ffffff;fill-opacity:1;fill-rule:nonzero;stroke:#060202;stroke-width:5;stroke-miterlimit:4;stroke-dasharray:none;stroke-opacity:1" />
        <path
           inkscape:connector-curvature="0"
           style="opacity:1;fill:#7ca4ec;fill-opacity:0.99607843;fill-rule:nonzero;stroke:none;stroke-width:4.79646015;stroke-miterlimit:4;stroke-dasharray:none;stroke-opacity:1"
           d="m 91.187485,248.53263 a 62.2552,58.877265 0 0 0 62.255275,-58.87762 62.2552,58.877265 0 0 0 -17.88607,-41.27543 62.2552,58.877265 0 0 1 6.89978,26.91518 62.2552,58.877265 0 0 1 -62.255266,58.87714 62.2552,58.877265 0 0 1 -44.369206,-17.60167 62.2552,58.877265 0 0 0 55.355487,31.9624 z"
           id="path898" />
      </g>
      <g
         transform="rotate(-15.343737,119.74757,164.24112)"
         id="g894">
        <ellipse
           style="opacity:1;fill:#ffffff;fill-opacity:1;fill-rule:nonzero;stroke:#060202;stroke-width:5;stroke-miterlimit:4;stroke-dasharray:none;stroke-opacity:1"
           id="path880"
           cx="90.714287"
           cy="188.8988"
           rx="64.255951"
           ry="61.988094" />
        <path
           id="path890"
           d="m 91.187485,248.53263 a 62.2552,58.877265 0 0 0 62.255275,-58.87762 62.2552,58.877265 0 0 0 -17.88607,-41.27543 62.2552,58.877265 0 0 1 6.89978,26.91518 62.2552,58.877265 0 0 1 -62.255266,58.87714 62.2552,58.877265 0 0 1 -44.369206,-17.60167 62.2552,58.877265 0 0 0 55.355487,31.9624 z"
           style="opacity:1;fill:#7ca4ec;fill-opacity:0.99607843;fill-rule:nonzero;stroke:none;stroke-width:4.79646015;stroke-miterlimit:4;stroke-dasharray:none;stroke-opacity:1"
           inkscape:connector-curvature="0" />
      </g>
    </g>
    <g
       id="g980"
       inkscape:export-filename="/Users/jayantha/Desktop/Personal/Youtube_Channel/Art-works/Components/Figures/Eye/eye_pupil.png"
       inkscape:export-xdpi="96"
       inkscape:export-ydpi="96"
       transform="translate(43.832203,-166.77619)">
      <g
         transform="matrix(0.70765273,0,0,0.68235291,155.5633,108.75487)"
         id="g955">
        <circle
           style="opacity:1;fill:#010307;fill-opacity:0.99607843;fill-rule:nonzero;stroke:none;stroke-width:5;stroke-miterlimit:4;stroke-dasharray:none;stroke-opacity:1"
           id="path929"
           cx="-268.33862"
           cy="382.52625"
           r="40.624966" />
        <ellipse
           style="opacity:1;fill:#ffffff;fill-opacity:0.99607843;fill-rule:nonzero;stroke:none;stroke-width:5;stroke-miterlimit:4;stroke-dasharray:none;stroke-opacity:1;filter:url(#filter949)"
           id="path931"
           cx="-275.2876"
           cy="361.14468"
           rx="11.22532"
           ry="11.759859" />
      </g>
      <g
         transform="matrix(0.69449484,0,0,0.68235291,226.56694,97.91316)"
         id="g961">
        <circle
           r="40.624966"
           cy="382.52625"
           cx="-268.33862"
           id="circle957"
           style="opacity:1;fill:#010307;fill-opacity:0.99607843;fill-rule:nonzero;stroke:none;stroke-width:5;stroke-miterlimit:4;stroke-dasharray:none;stroke-opacity:1" />
        <ellipse
           ry="11.759859"
           rx="11.22532"
           cy="361.14468"
           cx="-275.2876"
           id="ellipse959"
           style="opacity:1;fill:#ffffff;fill-opacity:0.99607843;fill-rule:nonzero;stroke:none;stroke-width:5;stroke-miterlimit:4;stroke-dasharray:none;stroke-opacity:1;filter:url(#filter949)" />
      </g>
    </g>
    <g
       id="g984"
       transform="translate(0,-13.898015)"
       inkscape:export-filename="/Users/jayantha/Desktop/Personal/Youtube_Channel/Art-works/Components/Eye/eye_brow.png"
       inkscape:export-xdpi="96"
       inkscape:export-ydpi="96">
      <path
         inkscape:connector-curvature="0"
         id="path975"
         d="M 173.72844,72.465834 A 62.637921,73.696751 50.372935 0 0 77.560272,68.388785 62.637921,73.696751 50.372935 0 0 47.566149,116.75142 58.197928,91.338521 51.442615 0 1 69.174953,95.547303 58.197928,91.338521 51.442615 0 1 176.50252,85.194832 58.197928,91.338521 51.442615 0 1 184.49485,116.59569 62.637921,73.696751 50.372935 0 0 173.72844,72.465834 Z"
         style="opacity:1;fill:#000000;fill-opacity:0.99607843;fill-rule:nonzero;stroke:none;stroke-width:3.30886531;stroke-miterlimit:4;stroke-dasharray:none;stroke-opacity:1" />
      <path
         style="opacity:1;fill:#000000;fill-opacity:0.99607843;fill-rule:nonzero;stroke:none;stroke-width:3.30886531;stroke-miterlimit:4;stroke-dasharray:none;stroke-opacity:1"
         d="M -96.014226,98.123709 A 73.696751,62.637921 39.627065 0 1 0.15394414,94.04666 73.696751,62.637921 39.627065 0 1 30.148064,142.40929 91.338521,58.197928 38.557385 0 0 8.5392641,121.20518 91.338521,58.197928 38.557385 0 0 -98.788306,110.85271 a 91.338521,58.197928 38.557385 0 0 -7.992334,31.40085 73.696751,62.637921 39.627065 0 1 10.766414,-44.129851 z"
         id="path980"
         inkscape:connector-curvature="0" />
    </g>
  </g>
</svg>
