<?xml version="1.0" encoding="UTF-8" standalone="no"?>
<!-- Created with Inkscape (http://www.inkscape.org/) -->

<svg
   xmlns:dc="http://purl.org/dc/elements/1.1/"
   xmlns:cc="http://creativecommons.org/ns#"
   xmlns:rdf="http://www.w3.org/1999/02/22-rdf-syntax-ns#"
   xmlns:svg="http://www.w3.org/2000/svg"
   xmlns="http://www.w3.org/2000/svg"
   xmlns:sodipodi="http://sodipodi.sourceforge.net/DTD/sodipodi-0.dtd"
   xmlns:inkscape="http://www.inkscape.org/namespaces/inkscape"
   width="210mm"
   height="297mm"
   viewBox="0 0 210 297"
   version="1.1"
   id="svg8"
   inkscape:version="0.92.2 5c3e80d, 2017-08-06"
   sodipodi:docname="eye.svg">
  <defs
     id="defs2" />
  <sodipodi:namedview
     id="base"
     pagecolor="#ffffff"
     bordercolor="#666666"
     borderopacity="1.0"
     inkscape:pageopacity="0.0"
     inkscape:pageshadow="2"
     inkscape:zoom="0.11313708"
     inkscape:cx="919.13448"
     inkscape:cy="-3748.6612"
     inkscape:document-units="mm"
     inkscape:current-layer="layer1"
     showgrid="false"
     showborder="false"
     inkscape:window-width="1440"
     inkscape:window-height="782"
     inkscape:window-x="0"
     inkscape:window-y="1"
     inkscape:window-maximized="1"
     inkscape:snap-grids="false"
     inkscape:snap-to-guides="false"
     inkscape:object-nodes="false"
     inkscape:snap-page="false" />
  <metadata
     id="metadata5">
    <rdf:RDF>
      <cc:Work
         rdf:about="">
        <dc:format>image/svg+xml</dc:format>
        <dc:type
           rdf:resource="http://purl.org/dc/dcmitype/StillImage" />
        <dc:title></dc:title>
      </cc:Work>
    </rdf:RDF>
  </metadata>
  <g
     inkscape:label="Layer 1"
     inkscape:groupmode="layer"
     id="layer1">
    <path
       inkscape:connector-curvature="0"
       id="path9274"
       d=""
       style="opacity:0.98000004;fill:#000000;fill-opacity:0.91153846;fill-rule:nonzero;stroke:none;stroke-width:22.09708595;stroke-miterlimit:4;stroke-dasharray:none;stroke-opacity:1" />
    <g
       id="2"
       inkscape:label="#g10450"
       transform="translate(41.907862,-490.92067)">
      <g
         id="g10144"
         transform="translate(0.61860001,353.12986)">
        <ellipse
           style="opacity:0.98000004;fill:#ffffff;fill-opacity:1;fill-rule:nonzero;stroke:#181616;stroke-width:5;stroke-miterlimit:4;stroke-dasharray:none;stroke-opacity:1"
           id="ellipse10136"
           cx="84.189903"
           cy="1432.3943"
           rx="72.496857"
           ry="73.666168" />
        <path
           style="opacity:0.98000004;fill:#5b8de7;fill-opacity:0.81153846;fill-rule:nonzero;stroke:none;stroke-width:5;stroke-miterlimit:4;stroke-dasharray:none;stroke-opacity:1"
           d="m 29.968584,1480.2581 a 73.666167,72.496856 31.925811 0 0 14.928782,12.3576 73.666167,72.496856 31.925811 0 0 100.860904,-22.5742 73.666167,72.496856 31.925811 0 0 -19.93018,-97.5361 73.666167,72.496856 31.925811 0 1 9.25786,88.1307 73.666167,72.496856 31.925811 0 1 -100.860913,22.5743 73.666167,72.496856 31.925811 0 1 -4.256453,-2.9523 z"
           id="path10138"
           inkscape:connector-curvature="0" />
        <ellipse
           style="opacity:0.98000004;fill:#000000;fill-opacity:0.81153846;fill-rule:nonzero;stroke:none;stroke-width:5;stroke-miterlimit:4;stroke-dasharray:none;stroke-opacity:1"
           id="ellipse10140"
           cx="83.020592"
           cy="1426.5479"
           rx="29.232607"
           ry="30.401907" />
        <circle
           style="opacity:0.98000004;fill:#ffffff;fill-opacity:0.91153846;fill-rule:nonzero;stroke:none;stroke-width:5;stroke-miterlimit:4;stroke-dasharray:none;stroke-opacity:1"
           id="circle10142"
           cx="81.851295"
           cy="1406.6697"
           r="7.0158248" />
      </g>
      <g
         transform="translate(103.51737,328.57447)"
         id="g10154">
        <ellipse
           ry="73.666168"
           rx="72.496857"
           cy="1432.3943"
           cx="84.189903"
           id="ellipse10146"
           style="opacity:0.98000004;fill:#ffffff;fill-opacity:1;fill-rule:nonzero;stroke:#181616;stroke-width:5;stroke-miterlimit:4;stroke-dasharray:none;stroke-opacity:1" />
        <path
           inkscape:connector-curvature="0"
           id="path10148"
           d="m 29.968584,1480.2581 a 73.666167,72.496856 31.925811 0 0 14.928782,12.3576 73.666167,72.496856 31.925811 0 0 100.860904,-22.5742 73.666167,72.496856 31.925811 0 0 -19.93018,-97.5361 73.666167,72.496856 31.925811 0 1 9.25786,88.1307 73.666167,72.496856 31.925811 0 1 -100.860913,22.5743 73.666167,72.496856 31.925811 0 1 -4.256453,-2.9523 z"
           style="opacity:0.98000004;fill:#5b8de7;fill-opacity:0.81153846;fill-rule:nonzero;stroke:none;stroke-width:5;stroke-miterlimit:4;stroke-dasharray:none;stroke-opacity:1" />
        <ellipse
           ry="30.401907"
           rx="29.232607"
           cy="1426.5479"
           cx="83.020592"
           id="ellipse10150"
           style="opacity:0.98000004;fill:#000000;fill-opacity:0.81153846;fill-rule:nonzero;stroke:none;stroke-width:5;stroke-miterlimit:4;stroke-dasharray:none;stroke-opacity:1" />
        <circle
           r="7.0158248"
           cy="1406.6697"
           cx="81.851295"
           id="circle10152"
           style="opacity:0.98000004;fill:#ffffff;fill-opacity:0.91153846;fill-rule:nonzero;stroke:none;stroke-width:5;stroke-miterlimit:4;stroke-dasharray:none;stroke-opacity:1" />
      </g>
      <path
         inkscape:connector-curvature="0"
         id="path10156"
         d="m 266.31639,1614.1444 a 62.154173,85.924488 49.474118 0 0 -104.96576,5.7208 62.154173,85.924488 49.474118 0 0 -36.39084,56.1135 62.154173,85.924488 49.474118 0 1 31.87844,-42.0343 62.154173,85.924488 49.474118 0 1 104.96621,-5.7212 62.154173,85.924488 49.474118 0 1 8.53741,47.1637 62.154173,85.924488 49.474118 0 0 -4.02546,-61.2425 z"
         style="opacity:0.98000004;fill:#000000;fill-opacity:1;fill-rule:nonzero;stroke:none;stroke-width:5;stroke-miterlimit:4;stroke-dasharray:none;stroke-opacity:1" />
      <path
         style="opacity:0.98000004;fill:#000000;fill-opacity:1;fill-rule:nonzero;stroke:none;stroke-width:5;stroke-miterlimit:4;stroke-dasharray:none;stroke-opacity:1"
         d="m -39.671927,1623.3295 a 85.924488,62.154173 40.525882 0 1 104.965757,5.7208 85.924488,62.154173 40.525882 0 1 36.39084,56.1135 85.924488,62.154173 40.525882 0 0 -31.87844,-42.0343 85.924488,62.154173 40.525882 0 0 -104.966207,-5.7212 85.924488,62.154173 40.525882 0 0 -8.53741,47.1637 85.924488,62.154173 40.525882 0 1 4.02546,-61.2425 z"
         id="path10158"
         inkscape:connector-curvature="0" />
    </g>
    <text
       xml:space="preserve"
       style="font-style:normal;font-weight:normal;font-size:25.39999962px;line-height:1.25;font-family:sans-serif;letter-spacing:0px;word-spacing:0px;fill:#000000;fill-opacity:1;stroke:none;stroke-width:0.26458332"
       x="880.53333"
       y="1406.1333"
       id="text10596"><tspan
         sodipodi:role="line"
         id="tspan10594"
         x="880.53333"
         y="1428.6063"
         style="stroke-width:0.26458332" /></text>
  </g>
</svg>
