<?xml version="1.0" encoding="UTF-8" standalone="no"?>
<!-- Created with Inkscape (http://www.inkscape.org/) -->

<svg
   xmlns:dc="http://purl.org/dc/elements/1.1/"
   xmlns:cc="http://creativecommons.org/ns#"
   xmlns:rdf="http://www.w3.org/1999/02/22-rdf-syntax-ns#"
   xmlns:svg="http://www.w3.org/2000/svg"
   xmlns="http://www.w3.org/2000/svg"
   xmlns:sodipodi="http://sodipodi.sourceforge.net/DTD/sodipodi-0.dtd"
   xmlns:inkscape="http://www.inkscape.org/namespaces/inkscape"
   width="210mm"
   height="297mm"
   viewBox="0 0 210 297"
   version="1.1"
   id="svg1299"
   inkscape:version="0.92.2 5c3e80d, 2017-08-06"
   sodipodi:docname="flower.svg">
  <defs
     id="defs1293" />
  <sodipodi:namedview
     id="base"
     pagecolor="#ffffff"
     bordercolor="#666666"
     borderopacity="1.0"
     inkscape:pageopacity="0.0"
     inkscape:pageshadow="2"
     inkscape:zoom="0.98994949"
     inkscape:cx="418.87617"
     inkscape:cy="548.41524"
     inkscape:document-units="mm"
     inkscape:current-layer="layer1"
     showgrid="false"
     inkscape:window-width="1440"
     inkscape:window-height="789"
     inkscape:window-x="0"
     inkscape:window-y="1"
     inkscape:window-maximized="1" />
  <metadata
     id="metadata1296">
    <rdf:RDF>
      <cc:Work
         rdf:about="">
        <dc:format>image/svg+xml</dc:format>
        <dc:type
           rdf:resource="http://purl.org/dc/dcmitype/StillImage" />
        <dc:title />
      </cc:Work>
    </rdf:RDF>
  </metadata>
  <g
     inkscape:label="Layer 1"
     inkscape:groupmode="layer"
     id="layer1">
    <g
       id="g1055"
       inkscape:export-filename="/Users/jayantha/Desktop/Personal/Youtube_Channel/Art-works/Components/png/flower.png"
       inkscape:export-xdpi="96"
       inkscape:export-ydpi="96">
      <g
         inkscape:export-ydpi="96"
         inkscape:export-xdpi="96"
         inkscape:export-filename="/Users/jayantha/Desktop/Personal/Youtube_Channel/Art-works/Components/png/flower.png"
         id="g1007">
        <path
           style="opacity:1;fill:#fffff8;fill-opacity:0.969697;fill-rule:nonzero;stroke:none;stroke-width:1;stroke-miterlimit:4;stroke-dasharray:none;stroke-opacity:1"
           d="m 128.81812,116.05846 a 15.111236,13.547632 0 0 0 -15.11122,13.54775 15.111236,13.547632 0 0 0 0.36216,2.87173 15.111236,13.547632 0 0 0 -7.96326,11.92241 15.111236,13.547632 0 0 0 11.78567,13.20353 15.111236,13.547632 0 0 0 15.08883,12.97758 15.111236,13.547632 0 0 0 13.57652,-7.63716 15.111236,13.547632 0 0 0 2.16839,0.15684 15.111236,13.547632 0 0 0 15.11122,-13.54743 15.111236,13.547632 0 0 0 -3.13345,-8.24461 15.111236,13.547632 0 0 0 2.22859,-7.04866 15.111236,13.547632 0 0 0 -15.11122,-13.54743 15.111236,13.547632 0 0 0 -6.48454,1.32514 15.111236,13.547632 0 0 0 -12.51769,-5.97969 z"
           id="path947"
           inkscape:connector-curvature="0" />
        <g
           id="g994"
           transform="translate(70.559155,48.643054)">
          <ellipse
             ry="15.510455"
             rx="15.559093"
             cy="94.445602"
             cx="64.365784"
             id="path1359"
             style="opacity:1;fill:#fffe00;fill-opacity:1;fill-rule:nonzero;stroke:none;stroke-width:2.12904954;stroke-miterlimit:4;stroke-dasharray:none;stroke-opacity:1" />
          <g
             transform="matrix(1.0355777,0,0,1.0942809,-39.655065,-74.417236)"
             id="g1367">
            <ellipse
               style="opacity:1;fill:#000000;fill-opacity:1;fill-rule:nonzero;stroke:none;stroke-width:2;stroke-miterlimit:4;stroke-dasharray:none;stroke-opacity:1"
               id="path1361"
               cx="93.927086"
               cy="149.77826"
               rx="1.8898809"
               ry="2.4568453" />
            <ellipse
               ry="0.71959335"
               rx="0.6203506"
               cy="151.18141"
               cx="93.793449"
               id="ellipse1363"
               style="opacity:1;fill:#ffffff;fill-opacity:1;fill-rule:nonzero;stroke:none;stroke-width:0.62013471;stroke-miterlimit:4;stroke-dasharray:none;stroke-opacity:1" />
          </g>
          <g
             transform="matrix(1.0355777,0,0,1.0942809,-27.338428,-74.56347)"
             id="g1373">
            <ellipse
               ry="2.4568453"
               rx="1.8898809"
               cy="149.77826"
               cx="93.927086"
               id="ellipse1369"
               style="opacity:1;fill:#000000;fill-opacity:1;fill-rule:nonzero;stroke:none;stroke-width:2;stroke-miterlimit:4;stroke-dasharray:none;stroke-opacity:1" />
            <ellipse
               style="opacity:1;fill:#ffffff;fill-opacity:1;fill-rule:nonzero;stroke:none;stroke-width:0.62013471;stroke-miterlimit:4;stroke-dasharray:none;stroke-opacity:1"
               id="ellipse1371"
               cx="93.793449"
               cy="151.18141"
               rx="0.6203506"
               ry="0.71959335" />
          </g>
          <path
             sodipodi:open="true"
             d="m 70.156751,97.331001 a 6.158319,5.6300077 0 0 1 -3.079159,4.875729 6.158319,5.6300077 0 0 1 -6.15832,0 6.158319,5.6300077 0 0 1 -3.079159,-4.875729"
             sodipodi:end="3.1415927"
             sodipodi:start="0"
             sodipodi:ry="5.6300077"
             sodipodi:rx="6.158319"
             sodipodi:cy="97.331001"
             sodipodi:cx="63.998432"
             sodipodi:type="arc"
             id="path1382"
             style="opacity:1;fill:none;fill-opacity:1;fill-rule:nonzero;stroke:#000000;stroke-width:0.53226238;stroke-miterlimit:4;stroke-dasharray:none;stroke-opacity:1" />
        </g>
        <path
           style="fill:none;stroke:#1e9409;stroke-width:1;stroke-linecap:butt;stroke-linejoin:miter;stroke-opacity:1;stroke-miterlimit:4;stroke-dasharray:none"
           d="m 146.55682,162.9443 c 0.69867,5.32721 0.37496,10.73208 0.81861,16.07975 -0.33317,7.13478 -3.59817,13.92505 -7.32619,19.88803"
           id="path970"
           inkscape:connector-curvature="0" />
      </g>
      <ellipse
         ry="3.2072344"
         rx="6.1471992"
         cy="189.82491"
         cx="154.21452"
         id="path1009"
         style="opacity:1;fill:#00d83b;fill-opacity:1;fill-rule:nonzero;stroke:#1e9409;stroke-width:1;stroke-miterlimit:4;stroke-dasharray:none;stroke-opacity:1" />
      <ellipse
         transform="rotate(33.598879)"
         style="opacity:1;fill:#00d83b;fill-opacity:1;fill-rule:nonzero;stroke:#1e9409;stroke-width:1;stroke-miterlimit:4;stroke-dasharray:none;stroke-opacity:1"
         id="ellipse1011"
         cx="215.17909"
         cy="76.598221"
         rx="6.1471992"
         ry="3.2072344" />
    </g>
  </g>
</svg>
