<?xml version="1.0" encoding="UTF-8" standalone="no"?>
<!-- Created with Inkscape (http://www.inkscape.org/) -->

<svg
   xmlns:dc="http://purl.org/dc/elements/1.1/"
   xmlns:cc="http://creativecommons.org/ns#"
   xmlns:rdf="http://www.w3.org/1999/02/22-rdf-syntax-ns#"
   xmlns:svg="http://www.w3.org/2000/svg"
   xmlns="http://www.w3.org/2000/svg"
   xmlns:sodipodi="http://sodipodi.sourceforge.net/DTD/sodipodi-0.dtd"
   xmlns:inkscape="http://www.inkscape.org/namespaces/inkscape"
   width="210mm"
   height="297mm"
   viewBox="0 0 210 297"
   version="1.1"
   id="svg8"
   inkscape:version="0.92.2 5c3e80d, 2017-08-06"
   sodipodi:docname="mushroom.svg">
  <defs
     id="defs2" />
  <sodipodi:namedview
     id="base"
     pagecolor="#ffffff"
     bordercolor="#666666"
     borderopacity="1.0"
     inkscape:pageopacity="0.0"
     inkscape:pageshadow="2"
     inkscape:zoom="0.49497475"
     inkscape:cx="370.29745"
     inkscape:cy="27.628038"
     inkscape:document-units="mm"
     inkscape:current-layer="layer1"
     showgrid="false"
     inkscape:window-width="1440"
     inkscape:window-height="782"
     inkscape:window-x="0"
     inkscape:window-y="1"
     inkscape:window-maximized="1" />
  <metadata
     id="metadata5">
    <rdf:RDF>
      <cc:Work
         rdf:about="">
        <dc:format>image/svg+xml</dc:format>
        <dc:type
           rdf:resource="http://purl.org/dc/dcmitype/StillImage" />
        <dc:title />
      </cc:Work>
    </rdf:RDF>
  </metadata>
  <g
     inkscape:label="Layer 1"
     inkscape:groupmode="layer"
     id="layer1">
    <g
       id="g855"
       transform="translate(-114.39136,6.9490077)">
      <path
         sodipodi:nodetypes="ccccccccccc"
         inkscape:connector-curvature="0"
         id="rect818"
         d="m 87.769235,188.67279 28.537205,-0.75595 c 4.62012,6.98004 1.43177,15.03907 2.66536,23.49575 1.2749,6.96061 2.17029,14.01954 2.34079,21.09607 -0.2069,5.24509 -1.08515,10.75212 -3.98545,15.2253 -3.11095,3.82835 -8.44877,4.70915 -13.10497,4.72464 -3.89102,-0.19524 -7.801954,-0.51827 -11.667244,0.14967 -5.40604,0.32015 -11.290404,-2.31236 -13.809487,-7.26558 -1.383649,-3.12127 -0.946428,-6.65596 -1.374322,-9.97269 -0.646923,-8.35061 -0.319648,-16.85355 2.053031,-24.93333 2.054906,-7.51182 5.234048,-14.64578 8.345087,-21.76388 z"
         style="opacity:1;fill:#067309;fill-opacity:0.88151658;fill-rule:nonzero;stroke:none;stroke-width:1;stroke-miterlimit:4;stroke-dasharray:none;stroke-opacity:1" />
      <path
         sodipodi:nodetypes="sssssssss"
         inkscape:connector-curvature="0"
         id="path815"
         d="m 172.73511,173.0238 c 0,16.07379 -18.13764,22.39386 -34.87856,20.74879 0,0 -22.01508,-5.49438 -38.448822,-4.11784 -27.07462,2.26786 -28.19493,7.87739 -37.69286,8.65356 -18.679433,1.52649 -34.87856,-10.72262 -34.878561,-26.79641 0,-16.07379 17.267748,-31.00385 28.074985,-41.53748 10.807236,-10.53364 27.249206,-24.23037 43.740486,-24.23037 16.491292,0 34.067182,14.07471 44.874422,24.60835 10.80723,10.53363 29.20891,26.59762 29.20891,42.6714 z"
         style="opacity:1;fill:#9e1db7;fill-opacity:1;fill-rule:nonzero;stroke:none;stroke-width:1;stroke-miterlimit:4;stroke-dasharray:none;stroke-opacity:1" />
      <ellipse
         transform="scale(1,-1)"
         ry="9.3544331"
         rx="9.0871639"
         cy="-155.61444"
         cx="125.61669"
         id="path825"
         style="opacity:1;fill:#ffffff;fill-opacity:0.97156402;fill-rule:nonzero;stroke:none;stroke-width:1;stroke-miterlimit:4;stroke-dasharray:none;stroke-opacity:1" />
      <ellipse
         style="opacity:1;fill:#ffffff;fill-opacity:1;fill-rule:nonzero;stroke:none;stroke-width:1.33315825;stroke-miterlimit:4;stroke-dasharray:none;stroke-opacity:1"
         id="ellipse827"
         cx="59.601112"
         cy="-170.04698"
         rx="12.027129"
         ry="12.561667"
         transform="scale(1,-1)" />
      <ellipse
         style="opacity:1;fill:#ffffff;fill-opacity:0.97156402;fill-rule:nonzero;stroke:none;stroke-width:1;stroke-miterlimit:4;stroke-dasharray:none;stroke-opacity:1"
         id="ellipse829"
         cx="159.82719"
         cy="-170.04698"
         rx="9.0871639"
         ry="9.3544331"
         transform="scale(1,-1)" />
      <ellipse
         transform="scale(1,-1)"
         ry="5.6126599"
         rx="5.6126604"
         cy="-134.7674"
         cx="75.637276"
         id="ellipse833"
         style="opacity:1;fill:#ffffff;fill-opacity:0.97156402;fill-rule:nonzero;stroke:none;stroke-width:0.60875958;stroke-miterlimit:4;stroke-dasharray:none;stroke-opacity:1" />
      <ellipse
         style="opacity:1;fill:#ffffff;fill-opacity:0.97156402;fill-rule:nonzero;stroke:none;stroke-width:1.07218456;stroke-miterlimit:4;stroke-dasharray:none;stroke-opacity:1"
         id="ellipse835"
         cx="113.85684"
         cy="-124.87844"
         rx="10.156242"
         ry="9.6217022"
         transform="scale(1,-1)" />
      <path
         sodipodi:nodetypes="cscc"
         inkscape:connector-curvature="0"
         id="path845"
         d="m 94.412854,189.86543 c 0,0 -19.972201,20.01727 -12.250213,48.42239 4.905659,18.04534 8.222428,10.43873 8.222428,10.43873 -3.389031,-24.34763 -0.514666,-40.40145 4.027785,-58.86112 z"
         style="fill:#034a06;fill-opacity:0.44549764;stroke:none;stroke-width:0.32528436px;stroke-linecap:butt;stroke-linejoin:miter;stroke-opacity:1" />
    </g>
    <g
       id="g1221"
       inkscape:export-xdpi="96"
       inkscape:export-ydpi="96">
      <path
         style="opacity:1;fill:#3ef543;fill-opacity:0.88151658;fill-rule:nonzero;stroke:none;stroke-width:1;stroke-miterlimit:4;stroke-dasharray:none;stroke-opacity:1"
         d="m 188.79711,288.63159 28.53721,-0.75595 c 4.62012,6.98004 1.43177,15.03907 2.66536,23.49575 1.2749,6.96061 2.17029,14.01954 2.34079,21.09607 -0.2069,5.24509 -1.08515,10.75212 -3.98545,15.2253 -3.11095,3.82835 -8.44877,4.70915 -13.10497,4.72464 -3.89102,-0.19524 -7.80195,-0.51827 -11.66724,0.14967 -5.40604,0.32015 -11.29041,-2.31236 -13.80949,-7.26558 -1.38365,-3.12127 -0.94643,-6.65596 -1.37432,-9.97269 -0.64693,-8.35061 -0.31965,-16.85355 2.05303,-24.93333 2.0549,-7.51182 5.23405,-14.64578 8.34508,-21.76388 z"
         id="path1187"
         inkscape:connector-curvature="0"
         sodipodi:nodetypes="ccccccccccc" />
      <path
         style="opacity:1;fill:#dd7824;fill-opacity:1;fill-rule:nonzero;stroke:none;stroke-width:1;stroke-miterlimit:4;stroke-dasharray:none;stroke-opacity:1"
         d="m 273.76299,272.9826 c 0,16.07379 -18.13764,22.39386 -34.87856,20.74879 0,0 -22.01508,-5.49438 -38.44882,-4.11784 -27.07462,2.26786 -28.19493,7.87739 -37.69286,8.65356 -18.67944,1.52649 -34.87856,-10.72262 -34.87856,-26.79641 0,-16.07379 17.26774,-31.00385 28.07498,-41.53748 10.80724,-10.53364 27.24921,-24.23037 43.74049,-24.23037 16.49129,0 34.06718,14.07471 44.87442,24.60835 10.80723,10.53363 29.20891,26.59762 29.20891,42.6714 z"
         id="path1189"
         inkscape:connector-curvature="0"
         sodipodi:nodetypes="sssssssss" />
      <ellipse
         style="opacity:1;fill:#ffffff;fill-opacity:0.97156402;fill-rule:nonzero;stroke:none;stroke-width:1;stroke-miterlimit:4;stroke-dasharray:none;stroke-opacity:1"
         id="ellipse1191"
         cx="226.64458"
         cy="-255.57324"
         rx="9.0871639"
         ry="9.3544331"
         transform="scale(1,-1)" />
      <ellipse
         transform="scale(1,-1)"
         ry="12.561667"
         rx="12.027129"
         cy="-270.0058"
         cx="160.629"
         id="ellipse1193"
         style="opacity:1;fill:#ffffff;fill-opacity:1;fill-rule:nonzero;stroke:none;stroke-width:1.33315825;stroke-miterlimit:4;stroke-dasharray:none;stroke-opacity:1" />
      <ellipse
         transform="scale(1,-1)"
         ry="9.3544331"
         rx="9.0871639"
         cy="-270.0058"
         cx="260.85507"
         id="ellipse1195"
         style="opacity:1;fill:#ffffff;fill-opacity:0.97156402;fill-rule:nonzero;stroke:none;stroke-width:1;stroke-miterlimit:4;stroke-dasharray:none;stroke-opacity:1" />
      <ellipse
         style="opacity:1;fill:#ffffff;fill-opacity:0.97156402;fill-rule:nonzero;stroke:none;stroke-width:0.60875958;stroke-miterlimit:4;stroke-dasharray:none;stroke-opacity:1"
         id="ellipse1197"
         cx="176.66516"
         cy="-234.7262"
         rx="5.6126604"
         ry="5.6126599"
         transform="scale(1,-1)" />
      <ellipse
         transform="scale(1,-1)"
         ry="9.6217022"
         rx="10.156242"
         cy="-224.83725"
         cx="214.88472"
         id="ellipse1199"
         style="opacity:1;fill:#ffffff;fill-opacity:0.97156402;fill-rule:nonzero;stroke:none;stroke-width:1.07218456;stroke-miterlimit:4;stroke-dasharray:none;stroke-opacity:1" />
      <path
         style="fill:#07bf0f;fill-opacity:0.44549763;stroke:none;stroke-width:0.32528436px;stroke-linecap:butt;stroke-linejoin:miter;stroke-opacity:1"
         d="m 195.44073,289.82423 c 0,0 -19.9722,20.01727 -12.25021,48.42239 4.90566,18.04534 8.22243,10.43873 8.22243,10.43873 -3.38903,-24.34763 -0.51467,-40.40145 4.02778,-58.86112 z"
         id="path1201"
         inkscape:connector-curvature="0"
         sodipodi:nodetypes="cscc" />
    </g>
  </g>
</svg>
